M48
;GenerationSoftware,Autodesk,EAGLE,9.7.0*%
;CreationDate,2023-03-20T08:21:29Z*%
FMAT,2
ICI,OFF
METRIC,TZ,000.000
T3C0.350
T2C0.840
T1C2.100
%
G90
M71
T1
X106554Y48124
X48386Y48124
X106554Y15104
T2
X56190Y46190
X58690Y46190
T3
X66751Y40538
X83972Y33223
X83972Y35662
X93878Y16154
X106375Y19202
X67056Y17069
X56693Y15697
X80467Y27127
X79705Y41758
X82448Y43739
X54559Y43129
X78638Y19050
X64922Y27584
X52121Y28346
X52273Y38252
X81382Y43739
X72390Y43586
X93878Y46482
X70256Y22708
X73762Y25603
X64160Y44044
X61722Y20269
X60503Y20574
X59893Y35814
X53188Y16612
X98450Y16154
X97079Y40843
X76962Y38557
X76352Y40996
X88087Y40996
X92354Y39776
X101194Y35814
X91897Y31242
X62941Y43434
X103022Y42062
X54864Y38252
X53492Y35966
X98450Y18593
X48463Y40386
X51206Y40386
X83668Y40843
X83668Y42062
X62179Y40386
X99670Y40843
X93726Y42215
X53797Y36881
X50749Y37795
X58979Y35814
X87935Y35052
X78029Y35509
X100432Y42672
X82448Y35204
X55931Y35204
X58217Y35204
X62027Y35204
X51664Y35357
X64922Y35204
X90373Y22860
X100279Y33223
X96926Y35357
X77114Y35052
X89154Y35357
X55778Y25603
X52121Y25603
X59588Y25603
X62789Y30632
X59741Y32614
X64922Y32614
X105156Y22708
X89764Y30632
X92659Y30632
X82601Y30785
X71018Y30785
X72847Y33833
X48768Y30480
X51206Y30480
X53645Y30632
X58826Y30632
X63246Y28194
X64922Y30632
X102870Y19507
X82601Y28346
X84734Y28346
X88849Y30175
X91897Y29718
X78029Y28194
X95707Y29718
X67513Y28194
X68732Y28194
X103632Y25298
X49073Y25603
X51206Y27737
X54254Y27737
X58826Y27737
X62027Y27584
X67361Y25756
X69494Y26365
X84887Y25298
X82601Y25146
X63703Y25603
X91745Y25603
X54254Y26822
X57607Y26822
X51359Y33223
X57607Y34290
X104546Y25298
X67361Y23165
X69494Y23317
X51664Y20422
X53188Y18898
X100584Y25146
X67361Y20726
X69494Y21031
X89306Y20574
X87478Y19964
X101803Y20269
X106223Y28194
X99974Y26365
X105613Y30328
X97841Y25756
X100279Y35357
X95707Y28804
X80467Y24841
X91897Y28804
X92812Y45568
X76657Y23927
X77419Y20117
X87935Y23317
X83972Y25756
X79553Y27737
X88544Y28956
X90221Y20422
X81991Y15545
X77419Y16002
X75895Y20574
X75590Y27737
X74524Y32766
X77114Y29108
X73000Y24536
X71933Y27737
X72847Y30937
X72847Y36424
X86716Y27889
X94031Y33376
X81686Y20574
X68123Y32766
X68885Y30023
X86411Y18745
X63856Y32766
X62027Y32614
X84734Y16459
X66751Y18288
X61417Y21488
X90221Y18593
X61570Y18898
X57607Y22403
X89002Y14935
X90373Y14783
X49225Y35357
X49073Y28194
X81077Y30937
X89306Y43434
X87935Y42977
X75438Y42367
X87782Y24994
M30