G04 EAGLE Gerber RS-274X export*
G75*
%MOMM*%
%FSLAX34Y34*%
%LPD*%
%INTop Copper*%
%IPPOS*%
%AMOC8*
5,1,8,0,0,1.08239X$1,22.5*%
G01*
G04 Define Apertures*
%ADD10R,1.000000X0.900000*%
%ADD11R,0.560000X0.629100*%
%ADD12R,1.164600X2.715300*%
%ADD13R,0.970200X0.920900*%
%ADD14R,2.715300X1.164600*%
%ADD15R,1.164600X1.465300*%
%ADD16R,0.920900X0.970200*%
%ADD17R,0.629100X0.560000*%
%ADD18R,1.700000X1.800000*%
%ADD19R,0.911800X0.611800*%
%ADD20R,0.600000X1.550000*%
%ADD21R,1.200000X1.800000*%
%ADD22C,1.348000*%
%ADD23R,0.875700X1.210300*%
%ADD24R,0.900000X0.800000*%
%ADD25R,0.973900X0.798700*%
%ADD26R,0.798700X0.973900*%
%ADD27R,0.644000X0.535100*%
%ADD28R,0.535100X0.644000*%
%ADD29R,0.300000X0.700000*%
%ADD30R,1.380000X0.800000*%
%ADD31R,0.635000X1.270000*%
%ADD32R,1.320800X0.558800*%
%ADD33C,0.155000*%
%ADD34C,0.090000*%
%ADD35R,1.200000X0.550000*%
%ADD36C,0.147500*%
%ADD37R,1.400000X1.000000*%
%ADD38R,0.900000X1.500000*%
%ADD39R,1.500000X0.900000*%
%ADD40R,0.900000X0.900000*%
%ADD41C,0.152400*%
%ADD42C,0.756400*%
G36*
X1004265Y215655D02*
X1003899Y215664D01*
X1003543Y215690D01*
X1003200Y215734D01*
X1002868Y215797D01*
X1002547Y215876D01*
X1002238Y215974D01*
X1001941Y216089D01*
X1001655Y216222D01*
X1001381Y216373D01*
X1001119Y216541D01*
X1000868Y216727D01*
X1000629Y216931D01*
X1000401Y217153D01*
X1000185Y217392D01*
X999980Y217649D01*
X999788Y217924D01*
X999606Y218216D01*
X999437Y218524D01*
X999279Y218849D01*
X999133Y219189D01*
X998998Y219546D01*
X998875Y219920D01*
X998764Y220309D01*
X998665Y220715D01*
X998577Y221137D01*
X998501Y221576D01*
X998437Y222031D01*
X998384Y222502D01*
X998343Y222989D01*
X998314Y223493D01*
X998297Y224013D01*
X998291Y224549D01*
X998314Y225627D01*
X998342Y226140D01*
X998382Y226636D01*
X998433Y227114D01*
X998495Y227575D01*
X998569Y228018D01*
X998654Y228444D01*
X998751Y228852D01*
X998859Y229243D01*
X998978Y229617D01*
X999109Y229973D01*
X999251Y230312D01*
X999404Y230633D01*
X999569Y230937D01*
X999745Y231223D01*
X999933Y231492D01*
X1000134Y231743D01*
X1000349Y231977D01*
X1000577Y232194D01*
X1000818Y232394D01*
X1001072Y232576D01*
X1001340Y232741D01*
X1001620Y232888D01*
X1001914Y233018D01*
X1002221Y233131D01*
X1002541Y233226D01*
X1002874Y233305D01*
X1003221Y233365D01*
X1003580Y233409D01*
X1003953Y233435D01*
X1004339Y233443D01*
X1004715Y233435D01*
X1005078Y233408D01*
X1005428Y233364D01*
X1005766Y233303D01*
X1006092Y233224D01*
X1006405Y233128D01*
X1006705Y233014D01*
X1006993Y232882D01*
X1007269Y232733D01*
X1007532Y232566D01*
X1007783Y232382D01*
X1008021Y232180D01*
X1008246Y231961D01*
X1008459Y231724D01*
X1008660Y231470D01*
X1008847Y231198D01*
X1009024Y230909D01*
X1009188Y230603D01*
X1009342Y230280D01*
X1009484Y229941D01*
X1009614Y229584D01*
X1009733Y229211D01*
X1009841Y228821D01*
X1009938Y228413D01*
X1010023Y227989D01*
X1010097Y227549D01*
X1010159Y227091D01*
X1010210Y226616D01*
X1010279Y225616D01*
X1010301Y224549D01*
X1010295Y224016D01*
X1010277Y223498D01*
X1010248Y222997D01*
X1010206Y222512D01*
X1010152Y222042D01*
X1010086Y221589D01*
X1010009Y221152D01*
X1009919Y220731D01*
X1009818Y220325D01*
X1009705Y219936D01*
X1009579Y219563D01*
X1009442Y219205D01*
X1009293Y218864D01*
X1009132Y218539D01*
X1008959Y218230D01*
X1008774Y217936D01*
X1008577Y217660D01*
X1008369Y217402D01*
X1008150Y217161D01*
X1007919Y216938D01*
X1007677Y216733D01*
X1007424Y216546D01*
X1007159Y216377D01*
X1006883Y216225D01*
X1006596Y216091D01*
X1006297Y215976D01*
X1005987Y215878D01*
X1005665Y215797D01*
X1005332Y215735D01*
X1004988Y215690D01*
X1004632Y215664D01*
X1004265Y215655D01*
G37*
%LPC*%
G36*
X1004290Y217458D02*
X1004530Y217465D01*
X1004761Y217485D01*
X1004985Y217519D01*
X1005200Y217567D01*
X1005407Y217628D01*
X1005606Y217703D01*
X1005797Y217791D01*
X1005980Y217894D01*
X1006321Y218139D01*
X1006629Y218438D01*
X1006905Y218792D01*
X1007148Y219200D01*
X1007361Y219665D01*
X1007546Y220188D01*
X1007702Y220769D01*
X1007829Y221408D01*
X1007929Y222106D01*
X1007999Y222862D01*
X1008042Y223676D01*
X1008056Y224549D01*
X1008043Y225452D01*
X1008002Y226291D01*
X1007935Y227065D01*
X1007840Y227775D01*
X1007718Y228421D01*
X1007570Y229002D01*
X1007394Y229519D01*
X1007191Y229971D01*
X1006958Y230365D01*
X1006689Y230707D01*
X1006385Y230996D01*
X1006046Y231232D01*
X1005672Y231416D01*
X1005471Y231488D01*
X1005263Y231547D01*
X1005045Y231593D01*
X1004818Y231626D01*
X1004583Y231646D01*
X1004339Y231652D01*
X1004089Y231646D01*
X1003848Y231626D01*
X1003616Y231594D01*
X1003392Y231549D01*
X1003178Y231490D01*
X1002973Y231419D01*
X1002589Y231238D01*
X1002241Y231005D01*
X1001929Y230721D01*
X1001653Y230384D01*
X1001413Y229996D01*
X1001205Y229549D01*
X1001024Y229034D01*
X1000871Y228454D01*
X1000746Y227806D01*
X1000649Y227092D01*
X1000579Y226311D01*
X1000538Y225463D01*
X1000524Y224549D01*
X1000538Y223660D01*
X1000580Y222832D01*
X1000650Y222066D01*
X1000749Y221362D01*
X1000876Y220720D01*
X1001031Y220139D01*
X1001214Y219620D01*
X1001425Y219163D01*
X1001667Y218764D01*
X1001942Y218417D01*
X1002251Y218124D01*
X1002592Y217884D01*
X1002967Y217698D01*
X1003167Y217625D01*
X1003375Y217565D01*
X1003591Y217518D01*
X1003816Y217485D01*
X1004049Y217465D01*
X1004290Y217458D01*
G37*
%LPD*%
G36*
X976659Y215655D02*
X976299Y215663D01*
X975951Y215689D01*
X975612Y215731D01*
X975285Y215790D01*
X974968Y215867D01*
X974662Y215960D01*
X974367Y216070D01*
X974083Y216198D01*
X973809Y216342D01*
X973546Y216503D01*
X973294Y216681D01*
X973052Y216876D01*
X972822Y217088D01*
X972601Y217317D01*
X972392Y217563D01*
X972194Y217826D01*
X972006Y218105D01*
X971831Y218400D01*
X971668Y218710D01*
X971517Y219035D01*
X971378Y219376D01*
X971252Y219732D01*
X971137Y220104D01*
X971034Y220491D01*
X970944Y220894D01*
X970865Y221312D01*
X970799Y221745D01*
X970744Y222194D01*
X970702Y222659D01*
X970672Y223138D01*
X970654Y223634D01*
X970648Y224144D01*
X970654Y224697D01*
X970673Y225234D01*
X970704Y225755D01*
X970748Y226259D01*
X970805Y226747D01*
X970874Y227218D01*
X970955Y227674D01*
X971050Y228113D01*
X971156Y228536D01*
X971276Y228942D01*
X971407Y229332D01*
X971552Y229706D01*
X971709Y230064D01*
X971878Y230405D01*
X972060Y230730D01*
X972255Y231039D01*
X972461Y231330D01*
X972678Y231602D01*
X972905Y231856D01*
X973144Y232091D01*
X973392Y232307D01*
X973652Y232504D01*
X973922Y232683D01*
X974202Y232842D01*
X974494Y232983D01*
X974796Y233105D01*
X975108Y233209D01*
X975432Y233293D01*
X975765Y233359D01*
X976110Y233406D01*
X976465Y233434D01*
X976831Y233443D01*
X977309Y233430D01*
X977764Y233388D01*
X978197Y233320D01*
X978607Y233223D01*
X978994Y233099D01*
X979359Y232948D01*
X979701Y232769D01*
X980021Y232563D01*
X980317Y232329D01*
X980592Y232068D01*
X980843Y231779D01*
X981073Y231463D01*
X981279Y231119D01*
X981463Y230748D01*
X981624Y230349D01*
X981763Y229922D01*
X979653Y229542D01*
X979565Y229798D01*
X979466Y230037D01*
X979354Y230259D01*
X979231Y230465D01*
X979095Y230655D01*
X978947Y230828D01*
X978788Y230985D01*
X978616Y231125D01*
X978432Y231248D01*
X978236Y231355D01*
X978028Y231446D01*
X977808Y231520D01*
X977575Y231578D01*
X977331Y231619D01*
X977075Y231644D01*
X976806Y231652D01*
X976573Y231645D01*
X976347Y231625D01*
X976128Y231590D01*
X975915Y231542D01*
X975709Y231480D01*
X975509Y231405D01*
X975130Y231212D01*
X974778Y230965D01*
X974452Y230662D01*
X974153Y230304D01*
X973880Y229892D01*
X973637Y229427D01*
X973427Y228913D01*
X973249Y228350D01*
X973103Y227737D01*
X972990Y227075D01*
X972909Y226364D01*
X972860Y225604D01*
X972844Y224794D01*
X973002Y225065D01*
X973175Y225319D01*
X973364Y225557D01*
X973568Y225777D01*
X973787Y225981D01*
X974021Y226169D01*
X974271Y226339D01*
X974537Y226493D01*
X974815Y226630D01*
X975103Y226748D01*
X975400Y226849D01*
X975708Y226931D01*
X976026Y226994D01*
X976354Y227040D01*
X976692Y227067D01*
X977039Y227076D01*
X977622Y227053D01*
X978174Y226983D01*
X978695Y226866D01*
X979185Y226702D01*
X979644Y226492D01*
X980072Y226234D01*
X980470Y225930D01*
X980836Y225580D01*
X981166Y225189D01*
X981451Y224767D01*
X981692Y224312D01*
X981890Y223825D01*
X982044Y223306D01*
X982153Y222755D01*
X982219Y222171D01*
X982241Y221556D01*
X982218Y220890D01*
X982148Y220260D01*
X982032Y219666D01*
X981870Y219108D01*
X981661Y218586D01*
X981406Y218101D01*
X981105Y217651D01*
X980757Y217237D01*
X980368Y216866D01*
X979944Y216545D01*
X979485Y216273D01*
X978990Y216050D01*
X978460Y215877D01*
X978182Y215809D01*
X977895Y215754D01*
X977599Y215710D01*
X977295Y215679D01*
X976981Y215661D01*
X976659Y215655D01*
G37*
%LPC*%
G36*
X976585Y217434D02*
X976973Y217450D01*
X977340Y217501D01*
X977685Y217584D01*
X978009Y217702D01*
X978311Y217853D01*
X978591Y218037D01*
X978850Y218255D01*
X979088Y218507D01*
X979301Y218788D01*
X979485Y219094D01*
X979641Y219425D01*
X979769Y219781D01*
X979868Y220163D01*
X979939Y220569D01*
X979982Y221001D01*
X979996Y221457D01*
X979982Y221913D01*
X979939Y222342D01*
X979867Y222744D01*
X979766Y223120D01*
X979637Y223468D01*
X979478Y223790D01*
X979292Y224085D01*
X979076Y224353D01*
X978835Y224591D01*
X978571Y224798D01*
X978284Y224973D01*
X977975Y225116D01*
X977643Y225228D01*
X977289Y225307D01*
X976912Y225355D01*
X976512Y225371D01*
X976135Y225357D01*
X975776Y225315D01*
X975436Y225244D01*
X975115Y225146D01*
X974812Y225019D01*
X974528Y224864D01*
X974262Y224681D01*
X974015Y224469D01*
X973793Y224233D01*
X973599Y223976D01*
X973436Y223697D01*
X973302Y223397D01*
X973198Y223076D01*
X973124Y222734D01*
X973079Y222370D01*
X973065Y221985D01*
X973080Y221496D01*
X973126Y221030D01*
X973203Y220587D01*
X973311Y220166D01*
X973450Y219768D01*
X973620Y219393D01*
X973821Y219040D01*
X974052Y218709D01*
X974308Y218410D01*
X974581Y218151D01*
X974871Y217932D01*
X975179Y217752D01*
X975505Y217613D01*
X975847Y217513D01*
X976208Y217453D01*
X976585Y217434D01*
G37*
%LPD*%
G36*
X938612Y215900D02*
X936527Y215900D01*
X936527Y233186D01*
X939606Y233186D01*
X944206Y221200D01*
X944447Y220450D01*
X944679Y219648D01*
X944867Y218935D01*
X944979Y218452D01*
X945131Y219070D01*
X945390Y219942D01*
X945653Y220757D01*
X945814Y221200D01*
X950328Y233186D01*
X953334Y233186D01*
X953334Y215900D01*
X951224Y215900D01*
X951224Y227432D01*
X951231Y228380D01*
X951251Y229309D01*
X951286Y230220D01*
X951334Y231112D01*
X951041Y230074D01*
X950764Y229156D01*
X950502Y228357D01*
X950255Y227677D01*
X945789Y215900D01*
X944145Y215900D01*
X939618Y227677D01*
X938931Y229763D01*
X938526Y231112D01*
X938563Y229751D01*
X938612Y227432D01*
X938612Y215900D01*
G37*
G36*
X994149Y215900D02*
X992063Y215900D01*
X992063Y219814D01*
X983917Y219814D01*
X983917Y221531D01*
X991830Y233186D01*
X994149Y233186D01*
X994149Y221556D01*
X996578Y221556D01*
X996578Y219814D01*
X994149Y219814D01*
X994149Y215900D01*
G37*
%LPC*%
G36*
X992063Y221556D02*
X992063Y230695D01*
X991720Y230045D01*
X991441Y229554D01*
X991241Y229235D01*
X986812Y222709D01*
X986150Y221801D01*
X985954Y221556D01*
X992063Y221556D01*
G37*
%LPD*%
G36*
X927955Y215900D02*
X925624Y215900D01*
X925624Y231272D01*
X919686Y231272D01*
X919686Y233186D01*
X933893Y233186D01*
X933893Y231272D01*
X927955Y231272D01*
X927955Y215900D01*
G37*
G36*
X968150Y215900D02*
X957317Y215900D01*
X957317Y217777D01*
X961721Y217777D01*
X961721Y231076D01*
X957820Y228291D01*
X957820Y230376D01*
X961905Y233186D01*
X963942Y233186D01*
X963942Y217777D01*
X968150Y217777D01*
X968150Y215900D01*
G37*
D10*
X639700Y208060D03*
X655700Y208060D03*
X655700Y167060D03*
X639700Y167060D03*
D11*
X805076Y258045D03*
X795384Y258045D03*
D12*
X814854Y374550D03*
X785346Y374550D03*
D13*
X952500Y367116D03*
X952500Y351624D03*
X952500Y309754D03*
X952500Y325246D03*
D14*
X774700Y332254D03*
X774700Y302746D03*
D13*
X876300Y337121D03*
X876300Y321629D03*
X850900Y337121D03*
X850900Y321629D03*
X1064489Y270097D03*
X1064489Y254605D03*
D15*
X715146Y477714D03*
X732654Y477714D03*
X719954Y292100D03*
X702446Y292100D03*
D16*
X718946Y355600D03*
X703454Y355600D03*
D15*
X719954Y321904D03*
X702446Y321904D03*
D13*
X952500Y465646D03*
X952500Y450154D03*
D17*
X1016506Y482240D03*
X1016506Y472548D03*
D11*
X706354Y215900D03*
X716046Y215900D03*
D16*
X855854Y420652D03*
X871346Y420652D03*
D18*
X687188Y476040D03*
X687188Y435040D03*
D19*
X1003300Y452000D03*
X1003300Y437000D03*
D20*
X791740Y450790D03*
X781740Y450790D03*
X771740Y450790D03*
X801740Y450790D03*
X811740Y450790D03*
X821740Y450790D03*
D21*
X758740Y476040D03*
X834740Y476040D03*
D20*
X874000Y450790D03*
X884000Y450790D03*
X894000Y450790D03*
X904000Y450790D03*
D21*
X861000Y476040D03*
X917000Y476040D03*
D22*
X586900Y461900D03*
X561900Y461900D03*
D23*
X859277Y363387D03*
X880623Y363387D03*
D24*
X953570Y395340D03*
X953570Y414340D03*
X932570Y404840D03*
D25*
X901700Y409594D03*
X901700Y425898D03*
X825500Y321223D03*
X825500Y337527D03*
D26*
X922552Y363387D03*
X906248Y363387D03*
X922137Y323850D03*
X905833Y323850D03*
D27*
X571500Y198125D03*
X571500Y208275D03*
D25*
X950171Y160552D03*
X950171Y144248D03*
X967530Y144248D03*
X967530Y160552D03*
D26*
X744132Y424300D03*
X727828Y424300D03*
X715748Y444500D03*
X732052Y444500D03*
D28*
X947425Y481820D03*
X957575Y481820D03*
D25*
X977900Y436348D03*
X977900Y452652D03*
D28*
X576525Y184150D03*
X566375Y184150D03*
X576525Y165780D03*
X566375Y165780D03*
D25*
X863600Y387318D03*
X863600Y403622D03*
D10*
X503300Y167060D03*
X487300Y167060D03*
X487300Y208060D03*
X503300Y208060D03*
D29*
X703700Y237250D03*
X708700Y237250D03*
X713700Y237250D03*
X718700Y237250D03*
X718700Y257050D03*
X713700Y257050D03*
X708700Y257050D03*
X703700Y257050D03*
D30*
X711200Y247150D03*
D31*
X1041400Y173990D03*
X1041400Y275590D03*
X1028700Y275590D03*
X1016000Y275590D03*
X1003300Y275590D03*
X990600Y275590D03*
X977900Y275590D03*
X965200Y275590D03*
X952500Y275590D03*
X939800Y275590D03*
X927100Y275590D03*
X914400Y275590D03*
X901700Y275590D03*
X889000Y275590D03*
X876300Y275590D03*
X876300Y173990D03*
X889000Y173990D03*
X901700Y173990D03*
X914400Y173990D03*
X927100Y173990D03*
X939800Y173990D03*
X952500Y173990D03*
X965200Y173990D03*
X977900Y173990D03*
X990600Y173990D03*
X1003300Y173990D03*
X1016000Y173990D03*
X1028700Y173990D03*
D32*
X645160Y450242D03*
X645160Y469546D03*
X624840Y459894D03*
D33*
X836435Y232665D02*
X836435Y221115D01*
X836435Y232665D02*
X841085Y232665D01*
X841085Y221115D01*
X836435Y221115D01*
X836435Y222587D02*
X841085Y222587D01*
X841085Y224059D02*
X836435Y224059D01*
X836435Y225531D02*
X841085Y225531D01*
X841085Y227003D02*
X836435Y227003D01*
X836435Y228475D02*
X841085Y228475D01*
X841085Y229947D02*
X836435Y229947D01*
X836435Y231419D02*
X841085Y231419D01*
X823735Y232665D02*
X823735Y221115D01*
X823735Y232665D02*
X828385Y232665D01*
X828385Y221115D01*
X823735Y221115D01*
X823735Y222587D02*
X828385Y222587D01*
X828385Y224059D02*
X823735Y224059D01*
X823735Y225531D02*
X828385Y225531D01*
X828385Y227003D02*
X823735Y227003D01*
X823735Y228475D02*
X828385Y228475D01*
X828385Y229947D02*
X823735Y229947D01*
X823735Y231419D02*
X828385Y231419D01*
X811035Y232665D02*
X811035Y221115D01*
X811035Y232665D02*
X815685Y232665D01*
X815685Y221115D01*
X811035Y221115D01*
X811035Y222587D02*
X815685Y222587D01*
X815685Y224059D02*
X811035Y224059D01*
X811035Y225531D02*
X815685Y225531D01*
X815685Y227003D02*
X811035Y227003D01*
X811035Y228475D02*
X815685Y228475D01*
X815685Y229947D02*
X811035Y229947D01*
X811035Y231419D02*
X815685Y231419D01*
X798335Y232665D02*
X798335Y221115D01*
X798335Y232665D02*
X802985Y232665D01*
X802985Y221115D01*
X798335Y221115D01*
X798335Y222587D02*
X802985Y222587D01*
X802985Y224059D02*
X798335Y224059D01*
X798335Y225531D02*
X802985Y225531D01*
X802985Y227003D02*
X798335Y227003D01*
X798335Y228475D02*
X802985Y228475D01*
X802985Y229947D02*
X798335Y229947D01*
X798335Y231419D02*
X802985Y231419D01*
X785635Y232665D02*
X785635Y221115D01*
X785635Y232665D02*
X790285Y232665D01*
X790285Y221115D01*
X785635Y221115D01*
X785635Y222587D02*
X790285Y222587D01*
X790285Y224059D02*
X785635Y224059D01*
X785635Y225531D02*
X790285Y225531D01*
X790285Y227003D02*
X785635Y227003D01*
X785635Y228475D02*
X790285Y228475D01*
X790285Y229947D02*
X785635Y229947D01*
X785635Y231419D02*
X790285Y231419D01*
X772935Y232665D02*
X772935Y221115D01*
X772935Y232665D02*
X777585Y232665D01*
X777585Y221115D01*
X772935Y221115D01*
X772935Y222587D02*
X777585Y222587D01*
X777585Y224059D02*
X772935Y224059D01*
X772935Y225531D02*
X777585Y225531D01*
X777585Y227003D02*
X772935Y227003D01*
X772935Y228475D02*
X777585Y228475D01*
X777585Y229947D02*
X772935Y229947D01*
X772935Y231419D02*
X777585Y231419D01*
X760235Y232665D02*
X760235Y221115D01*
X760235Y232665D02*
X764885Y232665D01*
X764885Y221115D01*
X760235Y221115D01*
X760235Y222587D02*
X764885Y222587D01*
X764885Y224059D02*
X760235Y224059D01*
X760235Y225531D02*
X764885Y225531D01*
X764885Y227003D02*
X760235Y227003D01*
X760235Y228475D02*
X764885Y228475D01*
X764885Y229947D02*
X760235Y229947D01*
X760235Y231419D02*
X764885Y231419D01*
X747535Y232665D02*
X747535Y221115D01*
X747535Y232665D02*
X752185Y232665D01*
X752185Y221115D01*
X747535Y221115D01*
X747535Y222587D02*
X752185Y222587D01*
X752185Y224059D02*
X747535Y224059D01*
X747535Y225531D02*
X752185Y225531D01*
X752185Y227003D02*
X747535Y227003D01*
X747535Y228475D02*
X752185Y228475D01*
X752185Y229947D02*
X747535Y229947D01*
X747535Y231419D02*
X752185Y231419D01*
X747535Y177665D02*
X747535Y166115D01*
X747535Y177665D02*
X752185Y177665D01*
X752185Y166115D01*
X747535Y166115D01*
X747535Y167587D02*
X752185Y167587D01*
X752185Y169059D02*
X747535Y169059D01*
X747535Y170531D02*
X752185Y170531D01*
X752185Y172003D02*
X747535Y172003D01*
X747535Y173475D02*
X752185Y173475D01*
X752185Y174947D02*
X747535Y174947D01*
X747535Y176419D02*
X752185Y176419D01*
X760235Y177665D02*
X760235Y166115D01*
X760235Y177665D02*
X764885Y177665D01*
X764885Y166115D01*
X760235Y166115D01*
X760235Y167587D02*
X764885Y167587D01*
X764885Y169059D02*
X760235Y169059D01*
X760235Y170531D02*
X764885Y170531D01*
X764885Y172003D02*
X760235Y172003D01*
X760235Y173475D02*
X764885Y173475D01*
X764885Y174947D02*
X760235Y174947D01*
X760235Y176419D02*
X764885Y176419D01*
X772935Y177665D02*
X772935Y166115D01*
X772935Y177665D02*
X777585Y177665D01*
X777585Y166115D01*
X772935Y166115D01*
X772935Y167587D02*
X777585Y167587D01*
X777585Y169059D02*
X772935Y169059D01*
X772935Y170531D02*
X777585Y170531D01*
X777585Y172003D02*
X772935Y172003D01*
X772935Y173475D02*
X777585Y173475D01*
X777585Y174947D02*
X772935Y174947D01*
X772935Y176419D02*
X777585Y176419D01*
X785635Y177665D02*
X785635Y166115D01*
X785635Y177665D02*
X790285Y177665D01*
X790285Y166115D01*
X785635Y166115D01*
X785635Y167587D02*
X790285Y167587D01*
X790285Y169059D02*
X785635Y169059D01*
X785635Y170531D02*
X790285Y170531D01*
X790285Y172003D02*
X785635Y172003D01*
X785635Y173475D02*
X790285Y173475D01*
X790285Y174947D02*
X785635Y174947D01*
X785635Y176419D02*
X790285Y176419D01*
X798335Y177665D02*
X798335Y166115D01*
X798335Y177665D02*
X802985Y177665D01*
X802985Y166115D01*
X798335Y166115D01*
X798335Y167587D02*
X802985Y167587D01*
X802985Y169059D02*
X798335Y169059D01*
X798335Y170531D02*
X802985Y170531D01*
X802985Y172003D02*
X798335Y172003D01*
X798335Y173475D02*
X802985Y173475D01*
X802985Y174947D02*
X798335Y174947D01*
X798335Y176419D02*
X802985Y176419D01*
X811035Y177665D02*
X811035Y166115D01*
X811035Y177665D02*
X815685Y177665D01*
X815685Y166115D01*
X811035Y166115D01*
X811035Y167587D02*
X815685Y167587D01*
X815685Y169059D02*
X811035Y169059D01*
X811035Y170531D02*
X815685Y170531D01*
X815685Y172003D02*
X811035Y172003D01*
X811035Y173475D02*
X815685Y173475D01*
X815685Y174947D02*
X811035Y174947D01*
X811035Y176419D02*
X815685Y176419D01*
X823735Y177665D02*
X823735Y166115D01*
X823735Y177665D02*
X828385Y177665D01*
X828385Y166115D01*
X823735Y166115D01*
X823735Y167587D02*
X828385Y167587D01*
X828385Y169059D02*
X823735Y169059D01*
X823735Y170531D02*
X828385Y170531D01*
X828385Y172003D02*
X823735Y172003D01*
X823735Y173475D02*
X828385Y173475D01*
X828385Y174947D02*
X823735Y174947D01*
X823735Y176419D02*
X828385Y176419D01*
X836435Y177665D02*
X836435Y166115D01*
X836435Y177665D02*
X841085Y177665D01*
X841085Y166115D01*
X836435Y166115D01*
X836435Y167587D02*
X841085Y167587D01*
X841085Y169059D02*
X836435Y169059D01*
X836435Y170531D02*
X841085Y170531D01*
X841085Y172003D02*
X836435Y172003D01*
X836435Y173475D02*
X841085Y173475D01*
X841085Y174947D02*
X836435Y174947D01*
X836435Y176419D02*
X841085Y176419D01*
D34*
X725451Y407450D02*
X720351Y407450D01*
X725451Y407450D02*
X725451Y394850D01*
X720351Y394850D01*
X720351Y407450D01*
X720351Y395705D02*
X725451Y395705D01*
X725451Y396560D02*
X720351Y396560D01*
X720351Y397415D02*
X725451Y397415D01*
X725451Y398270D02*
X720351Y398270D01*
X720351Y399125D02*
X725451Y399125D01*
X725451Y399980D02*
X720351Y399980D01*
X720351Y400835D02*
X725451Y400835D01*
X725451Y401690D02*
X720351Y401690D01*
X720351Y402545D02*
X725451Y402545D01*
X725451Y403400D02*
X720351Y403400D01*
X720351Y404255D02*
X725451Y404255D01*
X725451Y405110D02*
X720351Y405110D01*
X720351Y405965D02*
X725451Y405965D01*
X725451Y406820D02*
X720351Y406820D01*
X715951Y407450D02*
X710851Y407450D01*
X715951Y407450D02*
X715951Y394850D01*
X710851Y394850D01*
X710851Y407450D01*
X710851Y395705D02*
X715951Y395705D01*
X715951Y396560D02*
X710851Y396560D01*
X710851Y397415D02*
X715951Y397415D01*
X715951Y398270D02*
X710851Y398270D01*
X710851Y399125D02*
X715951Y399125D01*
X715951Y399980D02*
X710851Y399980D01*
X710851Y400835D02*
X715951Y400835D01*
X715951Y401690D02*
X710851Y401690D01*
X710851Y402545D02*
X715951Y402545D01*
X715951Y403400D02*
X710851Y403400D01*
X710851Y404255D02*
X715951Y404255D01*
X715951Y405110D02*
X710851Y405110D01*
X710851Y405965D02*
X715951Y405965D01*
X715951Y406820D02*
X710851Y406820D01*
X706451Y407450D02*
X701351Y407450D01*
X706451Y407450D02*
X706451Y394850D01*
X701351Y394850D01*
X701351Y407450D01*
X701351Y395705D02*
X706451Y395705D01*
X706451Y396560D02*
X701351Y396560D01*
X701351Y397415D02*
X706451Y397415D01*
X706451Y398270D02*
X701351Y398270D01*
X701351Y399125D02*
X706451Y399125D01*
X706451Y399980D02*
X701351Y399980D01*
X701351Y400835D02*
X706451Y400835D01*
X706451Y401690D02*
X701351Y401690D01*
X701351Y402545D02*
X706451Y402545D01*
X706451Y403400D02*
X701351Y403400D01*
X701351Y404255D02*
X706451Y404255D01*
X706451Y405110D02*
X701351Y405110D01*
X701351Y405965D02*
X706451Y405965D01*
X706451Y406820D02*
X701351Y406820D01*
X701351Y383750D02*
X706451Y383750D01*
X706451Y371150D01*
X701351Y371150D01*
X701351Y383750D01*
X701351Y372005D02*
X706451Y372005D01*
X706451Y372860D02*
X701351Y372860D01*
X701351Y373715D02*
X706451Y373715D01*
X706451Y374570D02*
X701351Y374570D01*
X701351Y375425D02*
X706451Y375425D01*
X706451Y376280D02*
X701351Y376280D01*
X701351Y377135D02*
X706451Y377135D01*
X706451Y377990D02*
X701351Y377990D01*
X701351Y378845D02*
X706451Y378845D01*
X706451Y379700D02*
X701351Y379700D01*
X701351Y380555D02*
X706451Y380555D01*
X706451Y381410D02*
X701351Y381410D01*
X701351Y382265D02*
X706451Y382265D01*
X706451Y383120D02*
X701351Y383120D01*
X720351Y383750D02*
X725451Y383750D01*
X725451Y371150D01*
X720351Y371150D01*
X720351Y383750D01*
X720351Y372005D02*
X725451Y372005D01*
X725451Y372860D02*
X720351Y372860D01*
X720351Y373715D02*
X725451Y373715D01*
X725451Y374570D02*
X720351Y374570D01*
X720351Y375425D02*
X725451Y375425D01*
X725451Y376280D02*
X720351Y376280D01*
X720351Y377135D02*
X725451Y377135D01*
X725451Y377990D02*
X720351Y377990D01*
X720351Y378845D02*
X725451Y378845D01*
X725451Y379700D02*
X720351Y379700D01*
X720351Y380555D02*
X725451Y380555D01*
X725451Y381410D02*
X720351Y381410D01*
X720351Y382265D02*
X725451Y382265D01*
X725451Y383120D02*
X720351Y383120D01*
D35*
X996501Y463290D03*
X996501Y472790D03*
X996501Y482290D03*
X970499Y482290D03*
X970499Y463290D03*
D36*
X981031Y392047D02*
X995357Y392047D01*
X981031Y392047D02*
X981031Y396473D01*
X995357Y396473D01*
X995357Y392047D01*
X995357Y393448D02*
X981031Y393448D01*
X981031Y394849D02*
X995357Y394849D01*
X995357Y396250D02*
X981031Y396250D01*
X981031Y379347D02*
X995357Y379347D01*
X981031Y379347D02*
X981031Y383773D01*
X995357Y383773D01*
X995357Y379347D01*
X995357Y380748D02*
X981031Y380748D01*
X981031Y382149D02*
X995357Y382149D01*
X995357Y383550D02*
X981031Y383550D01*
X981031Y366647D02*
X995357Y366647D01*
X981031Y366647D02*
X981031Y371073D01*
X995357Y371073D01*
X995357Y366647D01*
X995357Y368048D02*
X981031Y368048D01*
X981031Y369449D02*
X995357Y369449D01*
X995357Y370850D02*
X981031Y370850D01*
X981031Y353947D02*
X995357Y353947D01*
X981031Y353947D02*
X981031Y358373D01*
X995357Y358373D01*
X995357Y353947D01*
X995357Y355348D02*
X981031Y355348D01*
X981031Y356749D02*
X995357Y356749D01*
X995357Y358150D02*
X981031Y358150D01*
X981031Y341247D02*
X995357Y341247D01*
X981031Y341247D02*
X981031Y345673D01*
X995357Y345673D01*
X995357Y341247D01*
X995357Y342648D02*
X981031Y342648D01*
X981031Y344049D02*
X995357Y344049D01*
X995357Y345450D02*
X981031Y345450D01*
X981031Y328547D02*
X995357Y328547D01*
X981031Y328547D02*
X981031Y332973D01*
X995357Y332973D01*
X995357Y328547D01*
X995357Y329948D02*
X981031Y329948D01*
X981031Y331349D02*
X995357Y331349D01*
X995357Y332750D02*
X981031Y332750D01*
X981031Y315847D02*
X995357Y315847D01*
X981031Y315847D02*
X981031Y320273D01*
X995357Y320273D01*
X995357Y315847D01*
X995357Y317248D02*
X981031Y317248D01*
X981031Y318649D02*
X995357Y318649D01*
X995357Y320050D02*
X981031Y320050D01*
X981031Y303147D02*
X995357Y303147D01*
X981031Y303147D02*
X981031Y307573D01*
X995357Y307573D01*
X995357Y303147D01*
X995357Y304548D02*
X981031Y304548D01*
X981031Y305949D02*
X995357Y305949D01*
X995357Y307350D02*
X981031Y307350D01*
X1034431Y303147D02*
X1048757Y303147D01*
X1034431Y303147D02*
X1034431Y307573D01*
X1048757Y307573D01*
X1048757Y303147D01*
X1048757Y304548D02*
X1034431Y304548D01*
X1034431Y305949D02*
X1048757Y305949D01*
X1048757Y307350D02*
X1034431Y307350D01*
X1034431Y315847D02*
X1048757Y315847D01*
X1034431Y315847D02*
X1034431Y320273D01*
X1048757Y320273D01*
X1048757Y315847D01*
X1048757Y317248D02*
X1034431Y317248D01*
X1034431Y318649D02*
X1048757Y318649D01*
X1048757Y320050D02*
X1034431Y320050D01*
X1034431Y328547D02*
X1048757Y328547D01*
X1034431Y328547D02*
X1034431Y332973D01*
X1048757Y332973D01*
X1048757Y328547D01*
X1048757Y329948D02*
X1034431Y329948D01*
X1034431Y331349D02*
X1048757Y331349D01*
X1048757Y332750D02*
X1034431Y332750D01*
X1034431Y341247D02*
X1048757Y341247D01*
X1034431Y341247D02*
X1034431Y345673D01*
X1048757Y345673D01*
X1048757Y341247D01*
X1048757Y342648D02*
X1034431Y342648D01*
X1034431Y344049D02*
X1048757Y344049D01*
X1048757Y345450D02*
X1034431Y345450D01*
X1034431Y353947D02*
X1048757Y353947D01*
X1034431Y353947D02*
X1034431Y358373D01*
X1048757Y358373D01*
X1048757Y353947D01*
X1048757Y355348D02*
X1034431Y355348D01*
X1034431Y356749D02*
X1048757Y356749D01*
X1048757Y358150D02*
X1034431Y358150D01*
X1034431Y366647D02*
X1048757Y366647D01*
X1034431Y366647D02*
X1034431Y371073D01*
X1048757Y371073D01*
X1048757Y366647D01*
X1048757Y368048D02*
X1034431Y368048D01*
X1034431Y369449D02*
X1048757Y369449D01*
X1048757Y370850D02*
X1034431Y370850D01*
X1034431Y379347D02*
X1048757Y379347D01*
X1034431Y379347D02*
X1034431Y383773D01*
X1048757Y383773D01*
X1048757Y379347D01*
X1048757Y380748D02*
X1034431Y380748D01*
X1034431Y382149D02*
X1048757Y382149D01*
X1048757Y383550D02*
X1034431Y383550D01*
X1034431Y392047D02*
X1048757Y392047D01*
X1034431Y392047D02*
X1034431Y396473D01*
X1048757Y396473D01*
X1048757Y392047D01*
X1048757Y393448D02*
X1034431Y393448D01*
X1034431Y394849D02*
X1048757Y394849D01*
X1048757Y396250D02*
X1034431Y396250D01*
D37*
X528750Y177800D03*
X550750Y187300D03*
X550750Y168300D03*
X614250Y177800D03*
X592250Y168300D03*
X592250Y187300D03*
D38*
X484560Y242016D03*
X497260Y242016D03*
X509960Y242016D03*
X522660Y242016D03*
X535360Y242016D03*
X548060Y242016D03*
X560760Y242016D03*
X573460Y242016D03*
X586160Y242016D03*
X598860Y242016D03*
X611560Y242016D03*
X624260Y242016D03*
X636960Y242016D03*
X649660Y242016D03*
D39*
X662160Y272366D03*
X662160Y285066D03*
X662160Y297766D03*
X662160Y310466D03*
X662160Y323166D03*
X662160Y335866D03*
X662160Y348566D03*
X662160Y361266D03*
X662160Y373966D03*
X662160Y386666D03*
D38*
X649660Y417016D03*
X636960Y417016D03*
X624260Y417016D03*
X611560Y417016D03*
X598860Y417016D03*
X586160Y417016D03*
X573460Y417016D03*
X560760Y417016D03*
X548060Y417016D03*
X535360Y417016D03*
X522660Y417016D03*
X509960Y417016D03*
X497260Y417016D03*
X484560Y417016D03*
D40*
X547760Y300516D03*
X547760Y314516D03*
X547760Y328516D03*
X561760Y300516D03*
X561760Y314516D03*
X561760Y328516D03*
X575760Y300516D03*
X575760Y314516D03*
X575760Y328516D03*
D25*
X812800Y410948D03*
X812800Y427252D03*
X774700Y410948D03*
X774700Y427252D03*
D41*
X806196Y248412D02*
X806196Y246888D01*
X806196Y248412D02*
X806196Y257556D01*
X806196Y246888D02*
X819912Y233172D01*
X819912Y219456D01*
X821436Y217932D01*
X830580Y217932D01*
X838200Y225552D01*
X806196Y257556D02*
X805076Y258045D01*
X838760Y226890D02*
X838200Y225552D01*
X851916Y321564D02*
X876300Y321564D01*
X851916Y321564D02*
X850900Y321629D01*
X876300Y321564D02*
X876300Y321629D01*
X850392Y321564D02*
X839724Y321564D01*
X826008Y321564D01*
X825500Y321223D01*
X850392Y321564D02*
X850900Y321629D01*
X810768Y320040D02*
X792480Y320040D01*
X810768Y320040D02*
X824484Y320040D01*
X792480Y320040D02*
X775716Y303276D01*
X824484Y320040D02*
X825500Y321223D01*
X775716Y303276D02*
X774700Y302746D01*
X804672Y248412D02*
X806196Y248412D01*
X810768Y309372D02*
X810768Y320040D01*
X484632Y417576D02*
X484632Y420624D01*
X525780Y461772D01*
X560832Y461772D01*
X484632Y417576D02*
X484560Y417016D01*
X560832Y461772D02*
X561900Y461900D01*
X702564Y355092D02*
X702564Y323088D01*
X702564Y355092D02*
X703454Y355600D01*
X702564Y323088D02*
X702446Y321904D01*
X702564Y321564D02*
X702564Y292608D01*
X702446Y292100D01*
X702564Y321564D02*
X702446Y321904D01*
X687324Y272796D02*
X662940Y272796D01*
X687324Y272796D02*
X701040Y286512D01*
X701040Y291084D01*
X662940Y272796D02*
X662160Y272366D01*
X701040Y291084D02*
X702446Y292100D01*
X743712Y425196D02*
X743712Y466344D01*
X733044Y477012D01*
X743712Y425196D02*
X744132Y424300D01*
X733044Y477012D02*
X732654Y477714D01*
X714756Y400812D02*
X714756Y396240D01*
X719328Y391668D01*
X726948Y391668D01*
X743712Y408432D01*
X743712Y423672D01*
X714756Y400812D02*
X713401Y401150D01*
X743712Y423672D02*
X744132Y424300D01*
X775716Y411480D02*
X812292Y411480D01*
X775716Y411480D02*
X774700Y410948D01*
X812292Y411480D02*
X812800Y410948D01*
X810768Y451104D02*
X810768Y457200D01*
X806196Y461772D01*
X768096Y461772D01*
X765048Y458724D01*
X765048Y443484D01*
X766572Y441960D01*
X766572Y419100D01*
X774192Y411480D01*
X810768Y451104D02*
X811740Y450790D01*
X774192Y411480D02*
X774700Y410948D01*
X862584Y413004D02*
X870204Y420624D01*
X862584Y413004D02*
X854964Y413004D01*
X851916Y409956D01*
X851916Y385572D01*
X867156Y370332D01*
X867156Y356616D01*
X864108Y353568D01*
X839724Y353568D02*
X832104Y353568D01*
X839724Y353568D02*
X864108Y353568D01*
X832104Y353568D02*
X827532Y358140D01*
X801624Y358140D01*
X786384Y373380D01*
X870204Y420624D02*
X871346Y420652D01*
X786384Y373380D02*
X785346Y374550D01*
X893064Y434340D02*
X900684Y426720D01*
X879348Y429768D02*
X871728Y422148D01*
X900684Y426720D02*
X901700Y425898D01*
X871728Y422148D02*
X871346Y420652D01*
X813816Y457200D02*
X810768Y457200D01*
X813816Y457200D02*
X818388Y461772D01*
X826008Y461772D01*
X830580Y457200D01*
X830580Y406908D01*
X815340Y391668D01*
X803148Y391668D01*
X786384Y374904D01*
X811740Y450790D02*
X810768Y457200D01*
X786384Y374904D02*
X785346Y374550D01*
X754380Y423672D02*
X745236Y423672D01*
X744132Y424300D01*
X702564Y365760D02*
X702564Y356616D01*
X702564Y365760D02*
X667512Y400812D01*
X667512Y405384D01*
X702564Y356616D02*
X703454Y355600D01*
X839724Y332232D02*
X839724Y321564D01*
X839724Y353568D02*
X839724Y356616D01*
X560832Y329184D02*
X548640Y329184D01*
X547760Y328516D01*
X560832Y329184D02*
X561760Y328516D01*
X562356Y329184D02*
X574548Y329184D01*
X575760Y328516D01*
X562356Y329184D02*
X561760Y328516D01*
X560832Y313944D02*
X548640Y313944D01*
X560832Y313944D02*
X561760Y314516D01*
X560832Y300228D02*
X548640Y300228D01*
X547760Y300516D01*
X560832Y300228D02*
X561760Y300516D01*
X562356Y300228D02*
X574548Y300228D01*
X575760Y300516D01*
X562356Y300228D02*
X561760Y300516D01*
X576072Y301752D02*
X576072Y313944D01*
X575760Y314516D01*
X576072Y301752D02*
X575760Y300516D01*
X548640Y301752D02*
X548640Y313944D01*
X547760Y314516D01*
X548640Y301752D02*
X547760Y300516D01*
X576072Y315468D02*
X576072Y327660D01*
X575760Y328516D01*
X576072Y315468D02*
X575760Y314516D01*
X487680Y207264D02*
X487680Y167640D01*
X487300Y167060D01*
X487680Y207264D02*
X487300Y208060D01*
X484632Y210312D02*
X484632Y240792D01*
X484632Y210312D02*
X486156Y208788D01*
X484632Y240792D02*
X484560Y242016D01*
X486156Y208788D02*
X487300Y208060D01*
X525780Y300228D02*
X547116Y300228D01*
X525780Y300228D02*
X484632Y259080D01*
X484632Y242316D01*
X547116Y300228D02*
X547760Y300516D01*
X484632Y242316D02*
X484560Y242016D01*
X716280Y230124D02*
X716280Y216408D01*
X716280Y230124D02*
X717804Y231648D01*
X717804Y236220D01*
X716280Y216408D02*
X716046Y215900D01*
X717804Y236220D02*
X718700Y237250D01*
X713232Y249936D02*
X713232Y256032D01*
X713232Y249936D02*
X711708Y248412D01*
X713232Y256032D02*
X713700Y257050D01*
X717804Y242316D02*
X717804Y237744D01*
X717804Y242316D02*
X711708Y248412D01*
X717804Y237744D02*
X718700Y237250D01*
X711200Y247150D02*
X711708Y248412D01*
X661416Y167640D02*
X656844Y167640D01*
X667512Y173736D02*
X673608Y179832D01*
X667512Y173736D02*
X661416Y167640D01*
X673608Y179832D02*
X673608Y190500D01*
X656844Y207264D01*
X656844Y167640D02*
X655700Y167060D01*
X656844Y207264D02*
X655700Y208060D01*
X690372Y190500D02*
X714756Y214884D01*
X690372Y190500D02*
X673608Y190500D01*
X714756Y214884D02*
X716046Y215900D01*
X996696Y472440D02*
X1014984Y472440D01*
X1016506Y472548D01*
X996696Y472440D02*
X996501Y472790D01*
X964692Y449580D02*
X952500Y449580D01*
X964692Y449580D02*
X976884Y437388D01*
X952500Y449580D02*
X952500Y450154D01*
X976884Y437388D02*
X977900Y436348D01*
X992124Y469392D02*
X995172Y472440D01*
X992124Y469392D02*
X990600Y469392D01*
X986028Y464820D01*
X986028Y445008D01*
X981456Y440436D02*
X978408Y437388D01*
X981456Y440436D02*
X986028Y445008D01*
X995172Y472440D02*
X996501Y472790D01*
X978408Y437388D02*
X977900Y436348D01*
X966216Y365760D02*
X952500Y365760D01*
X973836Y358140D02*
X976884Y355092D01*
X973836Y358140D02*
X966216Y365760D01*
X976884Y355092D02*
X976884Y353568D01*
X987552Y342900D01*
X952500Y365760D02*
X952500Y367116D01*
X987552Y342900D02*
X988194Y343460D01*
X1072896Y263652D02*
X1065276Y256032D01*
X1072896Y263652D02*
X1072896Y313944D01*
X1056132Y330708D02*
X1050036Y336804D01*
X1056132Y330708D02*
X1072896Y313944D01*
X1050036Y336804D02*
X1033272Y336804D01*
X1030224Y339852D01*
X1030224Y359664D01*
X1040892Y370332D01*
X1065276Y256032D02*
X1064489Y254605D01*
X1041594Y368860D02*
X1040892Y370332D01*
X938784Y173736D02*
X938784Y161544D01*
X1063752Y192024D02*
X1063752Y254508D01*
X939800Y173990D02*
X938784Y173736D01*
X1063752Y254508D02*
X1064489Y254605D01*
X1042416Y370332D02*
X1042416Y381000D01*
X1041594Y381560D01*
X1042416Y370332D02*
X1041594Y368860D01*
X978408Y362712D02*
X973836Y358140D01*
X978408Y362712D02*
X1007364Y362712D01*
X1008888Y364236D01*
X1014984Y364236D01*
X1024128Y355092D01*
X1024128Y333756D01*
X1033272Y324612D01*
X1050036Y324612D01*
X1056132Y330708D01*
X1040892Y381000D02*
X981456Y440436D01*
X1040892Y381000D02*
X1041594Y381560D01*
X670560Y170688D02*
X667512Y173736D01*
X490728Y166116D02*
X487680Y166116D01*
X490728Y166116D02*
X499872Y156972D01*
X566928Y156972D01*
X487680Y166116D02*
X487300Y167060D01*
X830580Y457200D02*
X865632Y457200D01*
X870204Y461772D01*
X908304Y461772D01*
X917448Y452628D01*
X917448Y394716D01*
X944880Y367284D01*
X952500Y367284D01*
X952500Y367116D01*
D42*
X804672Y248412D03*
X810768Y309372D03*
X893064Y434340D03*
X879348Y429768D03*
X754380Y423672D03*
X667512Y405384D03*
X839724Y332232D03*
X839724Y356616D03*
X938784Y161544D03*
X1063752Y192024D03*
X670560Y170688D03*
X566928Y156972D03*
D41*
X812292Y428244D02*
X803148Y437388D01*
X803148Y449580D01*
X812292Y428244D02*
X812800Y427252D01*
X803148Y449580D02*
X801740Y450790D01*
X774192Y448056D02*
X774192Y428244D01*
X774192Y448056D02*
X772668Y449580D01*
X774192Y428244D02*
X774700Y427252D01*
X772668Y449580D02*
X771740Y450790D01*
X774192Y274320D02*
X774192Y227076D01*
X774192Y274320D02*
X754380Y294132D01*
X754380Y384048D01*
X774192Y403860D01*
X818388Y403860D01*
X821436Y406908D01*
X821436Y414528D01*
X815340Y420624D01*
X806196Y420624D01*
X792480Y434340D01*
X792480Y449580D01*
X774192Y227076D02*
X775260Y226890D01*
X792480Y449580D02*
X791740Y450790D01*
X787908Y243840D02*
X787908Y227076D01*
X787908Y243840D02*
X786384Y245364D01*
X786384Y263652D01*
X794004Y271272D01*
X804672Y271272D01*
X797052Y417576D02*
X797052Y425196D01*
X781812Y440436D01*
X781812Y449580D01*
X787908Y227076D02*
X787960Y226890D01*
X781812Y449580D02*
X781740Y450790D01*
D42*
X804672Y271272D03*
X797052Y417576D03*
D41*
X795528Y257556D02*
X795528Y237744D01*
X800100Y233172D01*
X800100Y227076D01*
X795528Y257556D02*
X795384Y258045D01*
X800100Y227076D02*
X800660Y226890D01*
X1014984Y269748D02*
X1014984Y274320D01*
X1014984Y269748D02*
X987552Y242316D01*
X908304Y242316D01*
X838200Y172212D01*
X1014984Y274320D02*
X1016000Y275590D01*
X800100Y225552D02*
X800100Y220980D01*
X789432Y210312D01*
X769620Y210312D01*
X765048Y205740D01*
X765048Y196596D01*
X780288Y181356D01*
X819912Y181356D02*
X829056Y181356D01*
X819912Y181356D02*
X780288Y181356D01*
X829056Y181356D02*
X838200Y172212D01*
X800100Y225552D02*
X800660Y226890D01*
X838200Y172212D02*
X838760Y171890D01*
X719328Y356616D02*
X719328Y373380D01*
X722376Y376428D01*
X719328Y356616D02*
X718946Y355600D01*
X722376Y376428D02*
X722901Y377450D01*
X720852Y321564D02*
X720852Y292608D01*
X719954Y292100D01*
X729996Y344424D02*
X719328Y355092D01*
X729996Y344424D02*
X731520Y344424D01*
X734568Y341376D01*
X734568Y335280D01*
X720852Y321564D01*
X719328Y355092D02*
X718946Y355600D01*
X719954Y321904D02*
X720852Y321564D01*
X541020Y199644D02*
X536448Y199644D01*
X541020Y199644D02*
X571500Y199644D01*
X536448Y199644D02*
X498348Y237744D01*
X498348Y240792D01*
X571500Y199644D02*
X571500Y198125D01*
X498348Y240792D02*
X497260Y242016D01*
X697992Y269748D02*
X719328Y291084D01*
X697992Y269748D02*
X675132Y269748D01*
X667512Y262128D01*
X513588Y262128D01*
X498348Y246888D01*
X498348Y242316D01*
X719328Y291084D02*
X719954Y292100D01*
X498348Y242316D02*
X497260Y242016D01*
X819912Y181356D02*
X819912Y164592D01*
X803148Y147828D01*
X585216Y147828D01*
X571500Y161544D01*
X571500Y170688D01*
X563880Y178308D01*
X544068Y178308D01*
X541020Y181356D01*
X541020Y199644D01*
X826008Y227076D02*
X826008Y242316D01*
X810768Y257556D01*
X810768Y262128D01*
X809244Y263652D01*
X790956Y263652D01*
X789432Y262128D01*
X789432Y246888D01*
X792480Y243840D01*
X792480Y236220D01*
X794004Y234696D01*
X794004Y219456D01*
X792480Y217932D01*
X783336Y217932D01*
X781812Y219456D01*
X781812Y271272D01*
X757428Y295656D01*
X757428Y382524D01*
X775716Y400812D01*
X819912Y400812D01*
X824484Y405384D01*
X824484Y437388D01*
X545592Y431292D02*
X536448Y422148D01*
X536448Y417576D01*
X826008Y227076D02*
X826060Y226890D01*
X536448Y417576D02*
X535360Y417016D01*
D42*
X824484Y437388D03*
X545592Y431292D03*
D41*
X794004Y207264D02*
X812292Y225552D01*
X794004Y207264D02*
X771144Y207264D01*
X768096Y204216D01*
X768096Y198120D01*
X775716Y190500D01*
X786384Y190500D01*
X649224Y275844D02*
X629412Y275844D01*
X621792Y283464D01*
X521208Y283464D01*
X522732Y382524D02*
X522732Y416052D01*
X812292Y225552D02*
X813360Y226890D01*
X522732Y416052D02*
X522660Y417016D01*
D42*
X786384Y190500D03*
X649224Y275844D03*
X521208Y283464D03*
X522732Y382524D03*
D41*
X577596Y166116D02*
X589788Y166116D01*
X591312Y167640D01*
X577596Y166116D02*
X576525Y165780D01*
X591312Y167640D02*
X592250Y168300D01*
X792480Y150876D02*
X812292Y170688D01*
X792480Y150876D02*
X609600Y150876D01*
X592836Y167640D01*
X812292Y170688D02*
X813360Y171890D01*
X592836Y167640D02*
X592250Y168300D01*
X565404Y184404D02*
X553212Y184404D01*
X551688Y185928D01*
X565404Y184404D02*
X566375Y184150D01*
X551688Y185928D02*
X550750Y187300D01*
X783336Y153924D02*
X800100Y170688D01*
X783336Y153924D02*
X621792Y153924D01*
X601980Y173736D01*
X601980Y175260D01*
X598932Y178308D01*
X571500Y178308D01*
X566928Y182880D01*
X800100Y170688D02*
X800660Y171890D01*
X566928Y182880D02*
X566375Y184150D01*
X958596Y481584D02*
X969264Y481584D01*
X958596Y481584D02*
X957575Y481820D01*
X969264Y481584D02*
X970499Y482290D01*
X952500Y472440D02*
X952500Y465646D01*
X952500Y472440D02*
X957072Y477012D01*
X957072Y481584D01*
X957575Y481820D01*
X726948Y437388D02*
X726948Y435864D01*
X726948Y425196D01*
X726948Y437388D02*
X722376Y441960D01*
X722376Y451104D01*
X720852Y452628D01*
X704088Y452628D01*
X687324Y435864D01*
X726948Y425196D02*
X727828Y424300D01*
X687188Y435040D02*
X687324Y435864D01*
X672084Y449580D02*
X646176Y449580D01*
X672084Y449580D02*
X685800Y435864D01*
X646176Y449580D02*
X645160Y450242D01*
X685800Y435864D02*
X687188Y435040D01*
X821436Y445008D02*
X821436Y449580D01*
X821436Y445008D02*
X813816Y437388D01*
X726948Y435864D02*
X723900Y435864D01*
X821436Y449580D02*
X821740Y450790D01*
X938784Y464820D02*
X952500Y464820D01*
X952500Y465646D01*
D42*
X813816Y437388D03*
X723900Y435864D03*
X938784Y464820D03*
D41*
X681228Y470916D02*
X646176Y470916D01*
X681228Y470916D02*
X685800Y475488D01*
X646176Y470916D02*
X645160Y469546D01*
X685800Y475488D02*
X687188Y476040D01*
X731520Y461772D02*
X731520Y445008D01*
X731520Y461772D02*
X716280Y477012D01*
X731520Y445008D02*
X732052Y444500D01*
X716280Y477012D02*
X715146Y477714D01*
X723900Y406908D02*
X723900Y402336D01*
X723900Y406908D02*
X734568Y417576D01*
X734568Y441960D01*
X733044Y443484D01*
X723900Y402336D02*
X722901Y401150D01*
X733044Y443484D02*
X732052Y444500D01*
X714756Y477012D02*
X687324Y477012D01*
X687188Y476040D01*
X714756Y477012D02*
X715146Y477714D01*
X714756Y443484D02*
X714756Y416052D01*
X704088Y405384D01*
X704088Y402336D01*
X714756Y443484D02*
X715748Y444500D01*
X704088Y402336D02*
X703901Y401150D01*
X996696Y483108D02*
X1014984Y483108D01*
X1016506Y482240D01*
X996696Y483108D02*
X996501Y482290D01*
X707136Y231648D02*
X707136Y227076D01*
X707136Y216408D01*
X707136Y231648D02*
X708660Y233172D01*
X708660Y236220D01*
X707136Y216408D02*
X706354Y215900D01*
X708660Y236220D02*
X708700Y237250D01*
X710184Y237744D02*
X713232Y237744D01*
X713700Y237250D01*
X710184Y237744D02*
X708700Y237250D01*
X624840Y460248D02*
X589788Y460248D01*
X588264Y461772D01*
X586900Y461900D01*
X702564Y227076D02*
X707136Y227076D01*
X737616Y256032D02*
X737616Y329184D01*
X740664Y332232D01*
X740664Y373380D01*
X725424Y388620D01*
X693420Y388620D01*
X641604Y440436D01*
X982980Y483108D02*
X995172Y483108D01*
X982980Y483108D02*
X978408Y487680D01*
X954024Y487680D01*
X952500Y486156D01*
X952500Y477012D01*
X950976Y475488D01*
X943356Y475488D01*
X935736Y483108D01*
X935736Y486156D01*
X928116Y493776D01*
X650748Y493776D01*
X624840Y467868D01*
X624840Y460248D01*
X995172Y483108D02*
X996501Y482290D01*
X624840Y460248D02*
X624840Y459894D01*
D42*
X702564Y227076D03*
X737616Y256032D03*
X641604Y440436D03*
D41*
X947928Y483108D02*
X947928Y486156D01*
X952500Y490728D01*
X1018032Y490728D01*
X1022604Y486156D01*
X1022604Y455676D01*
X1004316Y437388D01*
X947425Y481820D02*
X947928Y483108D01*
X1003300Y437000D02*
X1004316Y437388D01*
X1002792Y452628D02*
X1002792Y455676D01*
X996696Y461772D01*
X1002792Y452628D02*
X1003300Y452000D01*
X996696Y461772D02*
X996501Y463290D01*
X976884Y454152D02*
X969264Y461772D01*
X976884Y454152D02*
X977900Y452652D01*
X969264Y461772D02*
X970499Y463290D01*
X702564Y256032D02*
X685800Y256032D01*
X661416Y231648D01*
X592836Y231648D01*
X586740Y237744D01*
X586740Y240792D01*
X702564Y256032D02*
X703700Y257050D01*
X586740Y240792D02*
X586160Y242016D01*
X708660Y257556D02*
X708660Y260604D01*
X711708Y263652D01*
X720852Y263652D01*
X723900Y260604D01*
X723900Y213360D01*
X670560Y160020D01*
X633984Y160020D01*
X624840Y169164D01*
X624840Y195072D01*
X617220Y202692D01*
X605028Y205740D02*
X574548Y236220D01*
X574548Y240792D01*
X708700Y257050D02*
X708660Y257556D01*
X574548Y240792D02*
X573460Y242016D01*
D42*
X617220Y202692D03*
X605028Y205740D03*
D41*
X640080Y207264D02*
X640080Y167640D01*
X639700Y167060D01*
X640080Y207264D02*
X639700Y208060D01*
X588264Y207264D02*
X571500Y207264D01*
X588264Y207264D02*
X614172Y181356D01*
X614172Y178308D01*
X571500Y207264D02*
X571500Y208275D01*
X614172Y178308D02*
X614250Y177800D01*
X510540Y237744D02*
X510540Y240792D01*
X510540Y237744D02*
X539496Y208788D01*
X571500Y208788D01*
X510540Y240792D02*
X509960Y242016D01*
X571500Y208788D02*
X571500Y208275D01*
X614172Y208788D02*
X638556Y208788D01*
X614172Y208788D02*
X611124Y205740D01*
X611124Y199644D01*
X615696Y195072D01*
X618744Y195072D01*
X621792Y192024D01*
X621792Y184404D01*
X615696Y178308D01*
X638556Y208788D02*
X639700Y208060D01*
X615696Y178308D02*
X614250Y177800D01*
X518160Y167640D02*
X504444Y167640D01*
X524256Y173736D02*
X527304Y176784D01*
X524256Y173736D02*
X518160Y167640D01*
X504444Y167640D02*
X503300Y167060D01*
X527304Y176784D02*
X528750Y177800D01*
X502920Y167640D02*
X502920Y207264D01*
X503300Y208060D01*
X502920Y167640D02*
X503300Y167060D01*
X649224Y408432D02*
X649224Y416052D01*
X649224Y408432D02*
X598932Y358140D01*
X524256Y173736D02*
X531876Y166116D01*
X649224Y416052D02*
X649660Y417016D01*
X528750Y177800D02*
X524256Y173736D01*
D42*
X598932Y358140D03*
X531876Y166116D03*
D41*
X906780Y324612D02*
X906780Y345948D01*
X915924Y355092D01*
X915924Y391668D01*
X909828Y397764D01*
X909828Y431292D01*
X900684Y440436D01*
X899160Y440436D01*
X894588Y445008D01*
X894588Y449580D01*
X906780Y324612D02*
X905833Y323850D01*
X894588Y449580D02*
X894000Y450790D01*
X905256Y393192D02*
X905256Y364236D01*
X905256Y393192D02*
X886968Y411480D01*
X886968Y448056D01*
X885444Y449580D01*
X905256Y364236D02*
X906248Y363387D01*
X885444Y449580D02*
X884000Y450790D01*
X856488Y432816D02*
X856488Y422148D01*
X856488Y432816D02*
X873252Y449580D01*
X856488Y422148D02*
X855854Y420652D01*
X873252Y449580D02*
X874000Y450790D01*
X848868Y364236D02*
X824484Y364236D01*
X848868Y364236D02*
X858012Y364236D01*
X824484Y364236D02*
X815340Y373380D01*
X858012Y364236D02*
X859277Y363387D01*
X815340Y373380D02*
X814854Y374550D01*
X854964Y417576D02*
X854964Y420624D01*
X854964Y417576D02*
X848868Y411480D01*
X848868Y364236D01*
X854964Y420624D02*
X855854Y420652D01*
X954024Y394716D02*
X973836Y394716D01*
X987552Y381000D01*
X954024Y394716D02*
X953570Y395340D01*
X987552Y381000D02*
X988194Y381560D01*
X876300Y336804D02*
X851916Y336804D01*
X850900Y337121D01*
X876300Y337121D02*
X876300Y336804D01*
X850392Y338328D02*
X826008Y338328D01*
X825500Y337527D01*
X850392Y338328D02*
X850900Y337121D01*
X824484Y336804D02*
X778764Y336804D01*
X777240Y335280D02*
X775716Y333756D01*
X777240Y335280D02*
X778764Y336804D01*
X824484Y336804D02*
X825500Y337527D01*
X775716Y333756D02*
X774700Y332254D01*
X950976Y144780D02*
X966216Y144780D01*
X950976Y144780D02*
X950171Y144248D01*
X966216Y144780D02*
X967530Y144248D01*
X969264Y413004D02*
X954024Y413004D01*
X972312Y409956D02*
X987552Y394716D01*
X972312Y409956D02*
X969264Y413004D01*
X954024Y413004D02*
X953570Y414340D01*
X987552Y394716D02*
X988194Y394260D01*
X984504Y161544D02*
X967740Y144780D01*
X970788Y408432D02*
X972312Y409956D01*
X967740Y144780D02*
X967530Y144248D01*
X777240Y335280D02*
X765048Y347472D01*
X765048Y381000D01*
X769620Y385572D01*
X763524Y409956D02*
X763524Y440436D01*
X762000Y441960D01*
X762000Y460248D01*
X766572Y464820D01*
X827532Y464820D01*
X829056Y463296D01*
X867156Y463296D01*
X868680Y464820D01*
X909828Y464820D01*
X931164Y443484D01*
X931164Y419100D01*
X935736Y414528D01*
X952500Y414528D01*
X777240Y335280D02*
X774700Y332254D01*
X952500Y414528D02*
X953570Y414340D01*
D42*
X984504Y161544D03*
X970788Y408432D03*
X769620Y385572D03*
X763524Y409956D03*
D41*
X864108Y387096D02*
X864108Y379476D01*
X879348Y364236D01*
X864108Y387096D02*
X863600Y387318D01*
X879348Y364236D02*
X880623Y363387D01*
X932688Y403860D02*
X966216Y370332D01*
X987552Y370332D01*
X932688Y403860D02*
X932570Y404840D01*
X987552Y370332D02*
X988194Y368860D01*
X862584Y388620D02*
X862584Y391668D01*
X854964Y399288D01*
X854964Y408432D01*
X856488Y409956D01*
X880872Y409956D01*
X923544Y397764D02*
X931164Y405384D01*
X863600Y387318D02*
X862584Y388620D01*
X931164Y405384D02*
X932570Y404840D01*
D42*
X880872Y409956D03*
X923544Y397764D03*
D41*
X864108Y399288D02*
X864108Y402336D01*
X864108Y399288D02*
X899160Y364236D01*
X899160Y358140D01*
X902208Y355092D01*
X911352Y355092D01*
X912876Y356616D01*
X912876Y390144D01*
X902208Y400812D01*
X902208Y408432D01*
X864108Y402336D02*
X863600Y403622D01*
X901700Y409594D02*
X902208Y408432D01*
X989076Y356616D02*
X996696Y356616D01*
X999744Y359664D01*
X1010412Y359664D01*
X1011936Y358140D01*
X918972Y312420D02*
X903732Y312420D01*
X899160Y316992D01*
X899160Y352044D01*
X902208Y355092D01*
X988194Y356160D02*
X989076Y356616D01*
D42*
X1011936Y358140D03*
X918972Y312420D03*
D41*
X952500Y350520D02*
X961644Y350520D01*
X979932Y332232D01*
X987552Y332232D01*
X952500Y350520D02*
X952500Y351624D01*
X987552Y332232D02*
X988194Y330760D01*
X981456Y324612D02*
X952500Y324612D01*
X981456Y324612D02*
X987552Y318516D01*
X952500Y324612D02*
X952500Y325246D01*
X987552Y318516D02*
X988194Y318060D01*
X923544Y359664D02*
X923544Y362712D01*
X923544Y359664D02*
X952500Y330708D01*
X952500Y325246D01*
X923544Y362712D02*
X922552Y363387D01*
X935736Y310896D02*
X952500Y310896D01*
X935736Y310896D02*
X923544Y323088D01*
X952500Y310896D02*
X952500Y309754D01*
X923544Y323088D02*
X922137Y323850D01*
X955548Y306324D02*
X987552Y306324D01*
X955548Y306324D02*
X952500Y309372D01*
X987552Y306324D02*
X988194Y305360D01*
X952500Y309372D02*
X952500Y309754D01*
X624840Y417576D02*
X624840Y429768D01*
X629412Y434340D01*
X1030224Y420624D02*
X1053084Y397764D01*
X1053084Y353568D01*
X1042416Y342900D01*
X624840Y417576D02*
X624260Y417016D01*
X1041594Y343460D02*
X1042416Y342900D01*
D42*
X629412Y434340D03*
X1030224Y420624D03*
D41*
X635508Y417576D02*
X635508Y473964D01*
X652272Y490728D01*
X926592Y490728D01*
X932688Y484632D01*
X932688Y460248D01*
X944880Y448056D01*
X944880Y445008D01*
X964692Y425196D01*
X989076Y425196D01*
X1027176Y387096D01*
X1027176Y338328D01*
X1033272Y332232D01*
X1040892Y332232D01*
X636960Y417016D02*
X635508Y417576D01*
X1040892Y332232D02*
X1041594Y330760D01*
X950976Y172212D02*
X950976Y161544D01*
X950976Y172212D02*
X952500Y173736D01*
X950976Y161544D02*
X950171Y160552D01*
X952500Y173736D02*
X952500Y173990D01*
X548640Y382524D02*
X548640Y416052D01*
X534924Y359664D02*
X489204Y359664D01*
X477012Y347472D01*
X477012Y164592D01*
X499872Y141732D01*
X929640Y141732D01*
X949452Y161544D01*
X548640Y416052D02*
X548060Y417016D01*
X949452Y161544D02*
X950171Y160552D01*
D42*
X548640Y382524D03*
X534924Y359664D03*
D41*
X978408Y179832D02*
X978408Y175260D01*
X978408Y179832D02*
X984504Y185928D01*
X978408Y175260D02*
X977900Y173990D01*
X512064Y403860D02*
X484632Y403860D01*
X836676Y408432D02*
X836676Y420624D01*
X512064Y403860D02*
X512064Y384048D01*
X519684Y376428D01*
X594360Y376428D01*
X621792Y403860D01*
X979932Y408432D02*
X996696Y408432D01*
X979932Y408432D02*
X966216Y422148D01*
X937260Y422148D01*
D42*
X984504Y185928D03*
X484632Y403860D03*
X512064Y403860D03*
X836676Y408432D03*
X836676Y420624D03*
X621792Y403860D03*
X996696Y408432D03*
X937260Y422148D03*
D41*
X537972Y368808D02*
X516636Y368808D01*
X507492Y377952D01*
X548640Y358140D02*
X589788Y358140D01*
X548640Y358140D02*
X537972Y368808D01*
X784860Y350520D02*
X824484Y350520D01*
X879348Y350520D01*
X784860Y350520D02*
X780288Y355092D01*
X990600Y173736D02*
X999744Y164592D01*
X1045464Y164592D01*
X1075944Y195072D01*
X1075944Y384048D01*
X1033272Y426720D01*
X1004316Y426720D01*
X990600Y173990D02*
X990600Y173736D01*
X824484Y350520D02*
X824484Y352044D01*
D42*
X537972Y368808D03*
X507492Y377952D03*
X589788Y358140D03*
X879348Y350520D03*
X780288Y355092D03*
X1004316Y426720D03*
X824484Y352044D03*
D41*
X582168Y352044D02*
X559308Y352044D01*
X582168Y352044D02*
X620268Y352044D01*
X557784Y353568D02*
X516636Y353568D01*
X557784Y353568D02*
X559308Y352044D01*
X620268Y352044D02*
X649224Y352044D01*
X990600Y187452D02*
X1002792Y175260D01*
X990600Y187452D02*
X990600Y188976D01*
X973836Y205740D01*
X911352Y205740D01*
X903732Y213360D01*
X903732Y228600D01*
X1002792Y175260D02*
X1003300Y173990D01*
X1002792Y332232D02*
X998220Y336804D01*
X979932Y336804D01*
X969264Y347472D01*
X969264Y353568D01*
X775716Y350520D02*
X771144Y350520D01*
X775716Y350520D02*
X781812Y344424D01*
X882396Y344424D01*
X891540Y353568D01*
D42*
X559308Y352044D03*
X582168Y352044D03*
X620268Y352044D03*
X516636Y353568D03*
X649224Y352044D03*
X903732Y228600D03*
X1002792Y332232D03*
X969264Y353568D03*
X771144Y350520D03*
X891540Y353568D03*
D41*
X557784Y256032D02*
X521208Y256032D01*
X557784Y256032D02*
X595884Y256032D01*
X617220Y306324D02*
X627888Y306324D01*
X617220Y306324D02*
X597408Y326136D01*
X629412Y306324D02*
X649224Y326136D01*
X629412Y306324D02*
X627888Y306324D01*
X1016508Y192024D02*
X1016508Y175260D01*
X1016508Y192024D02*
X1051560Y227076D01*
X1016508Y175260D02*
X1016000Y173990D01*
X926592Y306324D02*
X897636Y306324D01*
X896112Y307848D02*
X826008Y307848D01*
X896112Y307848D02*
X897636Y306324D01*
X710184Y307848D02*
X710184Y312420D01*
X711708Y313944D01*
X711708Y330708D01*
X719328Y338328D01*
X728472Y338328D01*
D42*
X557784Y256032D03*
X521208Y256032D03*
X595884Y256032D03*
X627888Y306324D03*
X597408Y326136D03*
X649224Y326136D03*
X1051560Y227076D03*
X897636Y306324D03*
X926592Y306324D03*
X826008Y307848D03*
X710184Y307848D03*
X728472Y338328D03*
D41*
X512064Y304800D02*
X487680Y304800D01*
X513588Y306324D02*
X536448Y306324D01*
X513588Y306324D02*
X512064Y304800D01*
X588264Y306324D02*
X588264Y329184D01*
X580644Y336804D01*
X542544Y336804D01*
X536448Y330708D01*
X536448Y306324D01*
X627888Y281940D02*
X632460Y281940D01*
X627888Y281940D02*
X603504Y306324D01*
X588264Y306324D01*
X649224Y306324D02*
X649224Y298704D01*
X632460Y281940D01*
X1028700Y195072D02*
X1028700Y173990D01*
X847344Y283464D02*
X826008Y283464D01*
X905256Y284988D02*
X908304Y281940D01*
X905256Y284988D02*
X888492Y301752D01*
X908304Y281940D02*
X908304Y268224D01*
X906780Y266700D01*
X864108Y266700D01*
X847344Y283464D01*
X906780Y284988D02*
X918972Y297180D01*
X906780Y284988D02*
X905256Y284988D01*
X790956Y281940D02*
X780288Y281940D01*
X790956Y281940D02*
X792480Y283464D01*
X826008Y283464D01*
X918972Y297180D02*
X957072Y297180D01*
X687324Y281940D02*
X675132Y281940D01*
D42*
X487680Y304800D03*
X512064Y304800D03*
X536448Y306324D03*
X588264Y306324D03*
X632460Y281940D03*
X649224Y306324D03*
X1028700Y195072D03*
X826008Y283464D03*
X847344Y283464D03*
X888492Y301752D03*
X918972Y297180D03*
X780288Y281940D03*
X957072Y297180D03*
X675132Y281940D03*
X687324Y281940D03*
D41*
X1042416Y208788D02*
X1042416Y175260D01*
X1042416Y208788D02*
X1057656Y224028D01*
X1057656Y231648D01*
X1036320Y252984D01*
X1042416Y175260D02*
X1041400Y173990D01*
X512064Y277368D02*
X490728Y256032D01*
X512064Y277368D02*
X542544Y277368D01*
X588264Y277368D01*
X589788Y275844D02*
X620268Y275844D01*
X589788Y275844D02*
X588264Y277368D01*
X673608Y257556D02*
X682752Y257556D01*
X688848Y263652D01*
X694944Y263652D01*
X844296Y252984D02*
X848868Y252984D01*
X844296Y252984D02*
X842772Y251460D01*
X826008Y251460D01*
X672084Y256032D02*
X637032Y256032D01*
X672084Y256032D02*
X673608Y257556D01*
X851916Y256032D02*
X917448Y256032D01*
X851916Y256032D02*
X848868Y252984D01*
D42*
X1036320Y252984D03*
X490728Y256032D03*
X512064Y277368D03*
X542544Y277368D03*
X588264Y277368D03*
X620268Y275844D03*
X673608Y257556D03*
X694944Y263652D03*
X848868Y252984D03*
X826008Y251460D03*
X637032Y256032D03*
X917448Y256032D03*
D41*
X576072Y268224D02*
X542544Y268224D01*
X533400Y332232D02*
X513588Y332232D01*
X533400Y332232D02*
X544068Y342900D01*
X576072Y342900D01*
X1042416Y274320D02*
X1042416Y256032D01*
X1045464Y252984D01*
X1042416Y274320D02*
X1041400Y275590D01*
X693420Y231648D02*
X673608Y231648D01*
X693420Y231648D02*
X694944Y233172D01*
D42*
X542544Y268224D03*
X576072Y268224D03*
X513588Y332232D03*
X576072Y342900D03*
X1045464Y252984D03*
X673608Y231648D03*
X694944Y233172D03*
D41*
X531876Y188976D02*
X516636Y204216D01*
X1005840Y251460D02*
X1008888Y254508D01*
X1028700Y274320D01*
X1028700Y275590D01*
X691896Y207264D02*
X673608Y207264D01*
X691896Y207264D02*
X694944Y210312D01*
X880872Y205740D02*
X893064Y205740D01*
X880872Y205740D02*
X874776Y199644D01*
X1008888Y254508D02*
X1021080Y242316D01*
X1021080Y205740D01*
X1018032Y202692D01*
D42*
X516636Y204216D03*
X531876Y188976D03*
X1005840Y251460D03*
X673608Y207264D03*
X694944Y210312D03*
X893064Y205740D03*
X874776Y199644D03*
X1018032Y202692D03*
D41*
X1004316Y275844D02*
X1010412Y281940D01*
X1010412Y283464D01*
X1011936Y284988D01*
X1059180Y284988D01*
X1062228Y281940D01*
X1004316Y275844D02*
X1003300Y275590D01*
D42*
X1062228Y281940D03*
D41*
X999744Y265176D02*
X990600Y274320D01*
X999744Y265176D02*
X999744Y263652D01*
X990600Y274320D02*
X990600Y275590D01*
X1040892Y288036D02*
X1056132Y303276D01*
X1040892Y288036D02*
X1002792Y288036D01*
X990600Y275844D01*
X990600Y275590D01*
D42*
X999744Y263652D03*
X1056132Y303276D03*
D41*
X978408Y274320D02*
X978408Y257556D01*
X978408Y274320D02*
X977900Y275590D01*
X1002792Y341376D02*
X1002792Y353568D01*
X1002792Y341376D02*
X1008888Y335280D01*
X1008888Y306324D01*
X987552Y284988D01*
X986028Y284988D01*
X976884Y275844D01*
X977900Y275590D01*
D42*
X978408Y257556D03*
X1002792Y353568D03*
D41*
X964692Y280416D02*
X964692Y275844D01*
X964692Y280416D02*
X957072Y288036D01*
X964692Y275844D02*
X965200Y275590D01*
X940308Y324612D02*
X940308Y333756D01*
X940308Y324612D02*
X947928Y316992D01*
X975360Y316992D01*
X981456Y310896D01*
X996696Y310896D01*
X999744Y307848D01*
X999744Y301752D01*
X986028Y288036D01*
X972312Y288036D01*
X964692Y280416D01*
X965200Y275590D01*
D42*
X957072Y288036D03*
X940308Y333756D03*
D41*
X940308Y288036D02*
X952500Y275844D01*
X940308Y288036D02*
X918972Y288036D01*
X952500Y275844D02*
X952500Y275590D01*
X928116Y455676D02*
X928116Y484632D01*
X925068Y487680D01*
X751332Y487680D01*
X749808Y486156D01*
X749808Y437388D01*
X760476Y426720D01*
X760476Y416052D01*
X751332Y406908D01*
X751332Y291084D01*
X766572Y275844D01*
X766572Y239268D01*
X774192Y201168D02*
X812292Y201168D01*
X813816Y199644D01*
X861060Y199644D01*
X906780Y245364D01*
X923544Y245364D01*
X952500Y274320D01*
X952500Y275590D01*
D42*
X918972Y288036D03*
X928116Y455676D03*
X766572Y239268D03*
X774192Y201168D03*
D41*
X938784Y268224D02*
X938784Y274320D01*
X938784Y268224D02*
X918972Y248412D01*
X894588Y248412D01*
X879348Y233172D01*
X938784Y274320D02*
X939800Y275590D01*
D42*
X879348Y233172D03*
D41*
X911352Y259080D02*
X926592Y274320D01*
X911352Y259080D02*
X841248Y259080D01*
X839724Y257556D01*
X926592Y274320D02*
X927100Y275590D01*
D42*
X839724Y257556D03*
D41*
X914400Y269748D02*
X914400Y275590D01*
X914400Y269748D02*
X908304Y263652D01*
X821436Y263652D01*
X807720Y277368D01*
X795528Y277368D01*
D42*
X795528Y277368D03*
D41*
X894588Y281940D02*
X900684Y275844D01*
X894588Y281940D02*
X894588Y283464D01*
X888492Y289560D01*
X885444Y289560D01*
X902208Y204216D02*
X902208Y195072D01*
X894588Y187452D01*
X894588Y166116D01*
X883920Y155448D01*
X819912Y155448D01*
X774192Y160020D02*
X768096Y166116D01*
X768096Y188976D01*
X758952Y198120D01*
X758952Y205740D01*
X900684Y275844D02*
X901700Y275590D01*
X755904Y277368D02*
X755904Y208788D01*
X758952Y205740D01*
X745236Y288036D02*
X745236Y327660D01*
X745236Y288036D02*
X755904Y277368D01*
D42*
X885444Y289560D03*
X902208Y204216D03*
X819912Y155448D03*
X774192Y160020D03*
X758952Y205740D03*
X755904Y277368D03*
X745236Y327660D03*
D41*
X882396Y281940D02*
X888492Y275844D01*
X882396Y281940D02*
X882396Y283464D01*
X874776Y291084D01*
X771144Y291084D01*
X888492Y275844D02*
X889000Y275590D01*
X729996Y266700D02*
X729996Y245364D01*
X729996Y266700D02*
X720852Y275844D01*
X728472Y283464D02*
X728472Y309372D01*
X728472Y283464D02*
X720852Y275844D01*
X719328Y277368D01*
X728472Y352044D02*
X728472Y364236D01*
X728472Y352044D02*
X737616Y342900D01*
X737616Y333756D01*
X728472Y324612D01*
X728472Y309372D01*
D42*
X771144Y291084D03*
X729996Y245364D03*
X719328Y277368D03*
X728472Y309372D03*
X728472Y364236D03*
D41*
X870204Y275844D02*
X876300Y275844D01*
X870204Y275844D02*
X867156Y278892D01*
X874776Y249936D02*
X877824Y249936D01*
X874776Y249936D02*
X830580Y205740D01*
X816864Y205740D01*
X876300Y275590D02*
X876300Y275844D01*
X681228Y307848D02*
X681228Y327660D01*
X681228Y307848D02*
X688848Y300228D01*
D42*
X867156Y278892D03*
X877824Y249936D03*
X816864Y205740D03*
X681228Y327660D03*
X688848Y300228D03*
D41*
X864108Y187452D02*
X876300Y175260D01*
X876300Y173990D01*
X638556Y327660D02*
X621792Y327660D01*
X620268Y326136D01*
D42*
X864108Y187452D03*
X638556Y327660D03*
X620268Y326136D03*
D41*
X882396Y167640D02*
X888492Y173736D01*
X882396Y167640D02*
X882396Y166116D01*
X880872Y164592D01*
X847344Y164592D01*
X667512Y182880D02*
X647700Y202692D01*
X647700Y213360D01*
X646176Y214884D01*
X614172Y214884D01*
X888492Y173736D02*
X889000Y173990D01*
D42*
X847344Y164592D03*
X667512Y182880D03*
X614172Y214884D03*
D41*
X902208Y185928D02*
X902208Y175260D01*
X615696Y188976D02*
X611124Y188976D01*
X576072Y224028D01*
X901700Y173990D02*
X902208Y175260D01*
D42*
X902208Y185928D03*
X615696Y188976D03*
X576072Y224028D03*
D41*
X890016Y149352D02*
X914400Y173736D01*
X914400Y173990D01*
D42*
X890016Y149352D03*
D41*
X926592Y170688D02*
X926592Y173736D01*
X926592Y170688D02*
X903732Y147828D01*
X926592Y173736D02*
X927100Y173990D01*
X492252Y318516D02*
X492252Y353568D01*
X492252Y318516D02*
X481584Y307848D01*
X481584Y291084D01*
X490728Y281940D01*
D42*
X903732Y147828D03*
X492252Y353568D03*
X490728Y281940D03*
D41*
X966216Y173736D02*
X966216Y161544D01*
X967530Y160552D01*
X966216Y173736D02*
X965200Y173990D01*
X510540Y417576D02*
X510540Y420624D01*
X542544Y452628D01*
X565404Y452628D01*
X571500Y458724D01*
X571500Y466344D01*
X565404Y472440D01*
X527304Y472440D01*
X483108Y428244D01*
X480060Y428244D01*
X473964Y422148D01*
X473964Y163068D01*
X498348Y138684D01*
X931164Y138684D01*
X946404Y153924D01*
X960120Y153924D01*
X966216Y160020D01*
X510540Y417576D02*
X509960Y417016D01*
X966216Y160020D02*
X967530Y160552D01*
X565404Y166116D02*
X553212Y166116D01*
X551688Y167640D01*
X565404Y166116D02*
X566375Y165780D01*
X551688Y167640D02*
X550750Y168300D01*
X577596Y184404D02*
X589788Y184404D01*
X591312Y185928D01*
X577596Y184404D02*
X576525Y184150D01*
X591312Y185928D02*
X592250Y187300D01*
M02*
