G04 EAGLE Gerber RS-274X export*
G75*
%MOMM*%
%FSLAX34Y34*%
%LPD*%
%INBottom Copper*%
%IPPOS*%
%AMOC8*
5,1,8,0,0,1.08239X$1,22.5*%
G01*
G04 Define Apertures*
%ADD10R,0.611800X0.911800*%
%ADD11C,1.348000*%
%ADD12C,0.152400*%
%ADD13C,0.756400*%
D10*
X947300Y393700D03*
X932300Y393700D03*
X566300Y266700D03*
X551300Y266700D03*
X528200Y266700D03*
X513200Y266700D03*
X490100Y266700D03*
X475100Y266700D03*
X1061600Y241300D03*
X1046600Y241300D03*
X1023500Y241300D03*
X1008500Y241300D03*
X985400Y241300D03*
X970400Y241300D03*
X947300Y241300D03*
X932300Y241300D03*
X909200Y241300D03*
X894200Y241300D03*
X871100Y241300D03*
X856100Y241300D03*
X833000Y241300D03*
X818000Y241300D03*
X909200Y393700D03*
X894200Y393700D03*
X794900Y241300D03*
X779900Y241300D03*
X756800Y241300D03*
X741800Y241300D03*
X718700Y241300D03*
X703700Y241300D03*
X680600Y241300D03*
X665600Y241300D03*
X642500Y241300D03*
X627500Y241300D03*
X604400Y241300D03*
X589400Y241300D03*
X566300Y241300D03*
X551300Y241300D03*
X528200Y241300D03*
X513200Y241300D03*
X490100Y241300D03*
X475100Y241300D03*
X1061600Y215900D03*
X1046600Y215900D03*
X871100Y393700D03*
X856100Y393700D03*
X1023500Y215900D03*
X1008500Y215900D03*
X985400Y215900D03*
X970400Y215900D03*
X947300Y215900D03*
X932300Y215900D03*
X909200Y215900D03*
X894200Y215900D03*
X871100Y215900D03*
X856100Y215900D03*
X833000Y215900D03*
X818000Y215900D03*
X794900Y215900D03*
X779900Y215900D03*
X756800Y215900D03*
X741800Y215900D03*
X718700Y215900D03*
X703700Y215900D03*
X680600Y215900D03*
X665600Y215900D03*
X833000Y393700D03*
X818000Y393700D03*
X642500Y215900D03*
X627500Y215900D03*
X604400Y215900D03*
X589400Y215900D03*
X566300Y215900D03*
X551300Y215900D03*
X528200Y215900D03*
X513200Y215900D03*
X490100Y215900D03*
X475100Y215900D03*
X794900Y393700D03*
X779900Y393700D03*
X756800Y393700D03*
X741800Y393700D03*
X718700Y393700D03*
X703700Y393700D03*
X680600Y393700D03*
X665600Y393700D03*
X642500Y393700D03*
X627500Y393700D03*
X604400Y393700D03*
X589400Y393700D03*
X566300Y393700D03*
X551300Y393700D03*
X528200Y393700D03*
X513200Y393700D03*
X490100Y393700D03*
X475100Y393700D03*
X1061600Y368300D03*
X1046600Y368300D03*
X1023500Y368300D03*
X1008500Y368300D03*
X985400Y368300D03*
X970400Y368300D03*
X947300Y368300D03*
X932300Y368300D03*
X909200Y368300D03*
X894200Y368300D03*
X871100Y368300D03*
X856100Y368300D03*
X833000Y368300D03*
X818000Y368300D03*
X1061600Y393700D03*
X1046600Y393700D03*
X794900Y368300D03*
X779900Y368300D03*
X756800Y368300D03*
X741800Y368300D03*
X718700Y368300D03*
X703700Y368300D03*
X680600Y368300D03*
X665600Y368300D03*
X642500Y368300D03*
X627500Y368300D03*
X604400Y368300D03*
X589400Y368300D03*
X566300Y368300D03*
X551300Y368300D03*
X528200Y368300D03*
X513200Y368300D03*
X490100Y368300D03*
X475100Y368300D03*
X1061600Y342900D03*
X1046600Y342900D03*
X1023500Y342900D03*
X1008500Y342900D03*
X985400Y342900D03*
X970400Y342900D03*
X947300Y342900D03*
X932300Y342900D03*
X909200Y342900D03*
X894200Y342900D03*
X871100Y342900D03*
X856100Y342900D03*
X833000Y342900D03*
X818000Y342900D03*
X794900Y342900D03*
X779900Y342900D03*
X756800Y342900D03*
X741800Y342900D03*
X718700Y342900D03*
X703700Y342900D03*
X680600Y342900D03*
X665600Y342900D03*
X642500Y342900D03*
X627500Y342900D03*
X604400Y342900D03*
X589400Y342900D03*
X566300Y342900D03*
X551300Y342900D03*
X528200Y342900D03*
X513200Y342900D03*
X490100Y342900D03*
X475100Y342900D03*
X1061600Y317500D03*
X1046600Y317500D03*
X1023500Y317500D03*
X1008500Y317500D03*
X985400Y317500D03*
X970400Y317500D03*
X947300Y317500D03*
X932300Y317500D03*
X909200Y317500D03*
X894200Y317500D03*
X871100Y317500D03*
X856100Y317500D03*
X833000Y317500D03*
X818000Y317500D03*
X794900Y317500D03*
X779900Y317500D03*
X756800Y317500D03*
X741800Y317500D03*
X718700Y317500D03*
X703700Y317500D03*
X680600Y317500D03*
X665600Y317500D03*
X642500Y317500D03*
X627500Y317500D03*
X604400Y317500D03*
X589400Y317500D03*
X566300Y317500D03*
X551300Y317500D03*
X528200Y317500D03*
X513200Y317500D03*
X490100Y317500D03*
X475100Y317500D03*
X1061600Y292100D03*
X1046600Y292100D03*
X1023500Y292100D03*
X1008500Y292100D03*
X985400Y292100D03*
X970400Y292100D03*
X947300Y292100D03*
X932300Y292100D03*
X909200Y292100D03*
X894200Y292100D03*
X871100Y292100D03*
X856100Y292100D03*
X833000Y292100D03*
X818000Y292100D03*
X794900Y292100D03*
X779900Y292100D03*
X756800Y292100D03*
X741800Y292100D03*
X1023500Y393700D03*
X1008500Y393700D03*
X718700Y292100D03*
X703700Y292100D03*
X680600Y292100D03*
X665600Y292100D03*
X642500Y292100D03*
X627500Y292100D03*
X604400Y292100D03*
X589400Y292100D03*
X566300Y292100D03*
X551300Y292100D03*
X528200Y292100D03*
X513200Y292100D03*
X490100Y292100D03*
X475100Y292100D03*
X1061600Y266700D03*
X1046600Y266700D03*
X1023500Y266700D03*
X1008500Y266700D03*
X985400Y266700D03*
X970400Y266700D03*
X985400Y393700D03*
X970400Y393700D03*
X947300Y266700D03*
X932300Y266700D03*
X909200Y266700D03*
X894200Y266700D03*
X871100Y266700D03*
X856100Y266700D03*
X833000Y266700D03*
X818000Y266700D03*
X794900Y266700D03*
X779900Y266700D03*
X756800Y266700D03*
X741800Y266700D03*
X718700Y266700D03*
X703700Y266700D03*
X680600Y266700D03*
X665600Y266700D03*
X642500Y266700D03*
X627500Y266700D03*
X604400Y266700D03*
X589400Y266700D03*
D11*
X586900Y461900D03*
X561900Y461900D03*
D12*
X804672Y262128D02*
X804672Y248412D01*
X804672Y262128D02*
X810768Y268224D01*
X810768Y309372D01*
X883920Y434340D02*
X893064Y434340D01*
X883920Y434340D02*
X879348Y429768D01*
X784860Y423672D02*
X754380Y423672D01*
X784860Y423672D02*
X790956Y429768D01*
X816864Y429768D01*
X818388Y428244D01*
X877824Y428244D01*
X879348Y429768D01*
X672084Y405384D02*
X667512Y405384D01*
X672084Y405384D02*
X690372Y423672D01*
X754380Y423672D01*
X560832Y455676D02*
X560832Y461772D01*
X560832Y455676D02*
X539496Y434340D01*
X539496Y428244D01*
X554736Y413004D01*
X659892Y413004D01*
X667512Y405384D01*
X561900Y461900D02*
X560832Y461772D01*
X839724Y356616D02*
X839724Y332232D01*
X938784Y161544D02*
X975360Y161544D01*
X981456Y155448D01*
X1027176Y155448D01*
X1063752Y192024D01*
X815340Y170688D02*
X670560Y170688D01*
X815340Y170688D02*
X827532Y158496D01*
X935736Y158496D01*
X938784Y161544D01*
X656844Y156972D02*
X566928Y156972D01*
X656844Y156972D02*
X670560Y170688D01*
D13*
X804672Y248412D03*
X810768Y309372D03*
X893064Y434340D03*
X879348Y429768D03*
X754380Y423672D03*
X667512Y405384D03*
X839724Y332232D03*
X839724Y356616D03*
X938784Y161544D03*
X1063752Y192024D03*
X670560Y170688D03*
X566928Y156972D03*
D12*
X804672Y271272D02*
X804672Y409956D01*
X797052Y417576D01*
D13*
X804672Y271272D03*
X797052Y417576D03*
D12*
X818388Y443484D02*
X824484Y437388D01*
X818388Y443484D02*
X664464Y443484D01*
X649224Y428244D01*
X548640Y428244D01*
X545592Y431292D01*
D13*
X824484Y437388D03*
X545592Y431292D03*
D12*
X781812Y190500D02*
X786384Y190500D01*
X781812Y190500D02*
X780288Y188976D01*
X702564Y188976D01*
X690372Y201168D01*
X669036Y201168D01*
X649224Y220980D01*
X649224Y275844D01*
X521208Y283464D02*
X521208Y348996D01*
X522732Y350520D01*
X522732Y382524D01*
D13*
X786384Y190500D03*
X649224Y275844D03*
X521208Y283464D03*
X522732Y382524D03*
D12*
X725424Y437388D02*
X813816Y437388D01*
X725424Y437388D02*
X723900Y435864D01*
X861060Y464820D02*
X938784Y464820D01*
X861060Y464820D02*
X827532Y431292D01*
X819912Y431292D01*
X813816Y437388D01*
D13*
X813816Y437388D03*
X723900Y435864D03*
X938784Y464820D03*
D12*
X702564Y227076D02*
X691896Y227076D01*
X688848Y230124D01*
X688848Y237744D01*
X705612Y254508D01*
X736092Y254508D01*
X737616Y256032D01*
X641604Y440436D02*
X609600Y440436D01*
X588264Y461772D01*
X586900Y461900D01*
D13*
X702564Y227076D03*
X737616Y256032D03*
X641604Y440436D03*
D12*
X617220Y202692D02*
X608076Y202692D01*
X605028Y205740D01*
D13*
X617220Y202692D03*
X605028Y205740D03*
D12*
X598932Y338328D02*
X598932Y358140D01*
X598932Y338328D02*
X582168Y321564D01*
X582168Y260604D01*
X595884Y246888D01*
X595884Y234696D01*
X573024Y211836D01*
X573024Y207264D01*
X531876Y166116D01*
D13*
X598932Y358140D03*
X531876Y166116D03*
D12*
X984504Y161544D02*
X1024128Y161544D01*
X1071372Y208788D01*
X1071372Y400812D01*
X1057656Y414528D01*
X976884Y414528D01*
X970788Y408432D01*
X769620Y385572D02*
X752856Y385572D01*
X751332Y387096D01*
X751332Y399288D01*
X762000Y409956D01*
X763524Y409956D01*
D13*
X984504Y161544D03*
X970788Y408432D03*
X769620Y385572D03*
X763524Y409956D03*
D12*
X880872Y409956D02*
X911352Y409956D01*
X923544Y397764D01*
D13*
X880872Y409956D03*
X923544Y397764D03*
D12*
X1007364Y358140D02*
X1011936Y358140D01*
X1007364Y358140D02*
X992124Y373380D01*
X992124Y399288D01*
X990600Y400812D01*
X981456Y400812D01*
X979932Y399288D01*
X979932Y341376D01*
X966216Y327660D01*
X931164Y327660D01*
X918972Y315468D01*
X918972Y312420D01*
D13*
X1011936Y358140D03*
X918972Y312420D03*
D12*
X650748Y434340D02*
X629412Y434340D01*
X650748Y434340D02*
X687324Y470916D01*
X979932Y470916D01*
X1030224Y420624D01*
D13*
X629412Y434340D03*
X1030224Y420624D03*
D12*
X557784Y373380D02*
X548640Y382524D01*
X557784Y373380D02*
X557784Y362712D01*
X554736Y359664D01*
X534924Y359664D01*
D13*
X548640Y382524D03*
X534924Y359664D03*
D12*
X970788Y394716D02*
X970788Y399288D01*
X978408Y406908D01*
X995172Y406908D01*
X1007364Y394716D01*
X970788Y394716D02*
X970400Y393700D01*
X1007364Y394716D02*
X1008500Y393700D01*
X1039368Y394716D02*
X1045464Y394716D01*
X1039368Y394716D02*
X1030224Y403860D01*
X1018032Y403860D01*
X1008888Y394716D01*
X1045464Y394716D02*
X1046600Y393700D01*
X1008888Y394716D02*
X1008500Y393700D01*
X984504Y185928D02*
X1043940Y185928D01*
X1068324Y210312D01*
X1068324Y399288D01*
X1066800Y400812D01*
X1053084Y400812D01*
X1046988Y394716D01*
X1046600Y393700D01*
X484632Y403860D02*
X475488Y394716D01*
X512064Y394716D02*
X512064Y400812D01*
X475488Y394716D02*
X475100Y393700D01*
X512064Y394716D02*
X513200Y393700D01*
X539496Y394716D02*
X550164Y394716D01*
X539496Y394716D02*
X533400Y400812D01*
X512064Y400812D01*
X550164Y394716D02*
X551300Y393700D01*
X512064Y400812D02*
X512064Y403860D01*
X577596Y394716D02*
X588264Y394716D01*
X577596Y394716D02*
X571500Y400812D01*
X557784Y400812D01*
X551688Y394716D01*
X588264Y394716D02*
X589400Y393700D01*
X551688Y394716D02*
X551300Y393700D01*
X818388Y394716D02*
X827532Y403860D01*
X836676Y403860D02*
X845820Y403860D01*
X836676Y403860D02*
X827532Y403860D01*
X845820Y403860D02*
X854964Y394716D01*
X818388Y394716D02*
X818000Y393700D01*
X854964Y394716D02*
X856100Y393700D01*
X886968Y394716D02*
X893064Y394716D01*
X886968Y394716D02*
X877824Y403860D01*
X865632Y403860D01*
X856488Y394716D01*
X893064Y394716D02*
X894200Y393700D01*
X856488Y394716D02*
X856100Y393700D01*
X928116Y393192D02*
X931164Y393192D01*
X928116Y393192D02*
X926592Y391668D01*
X920496Y391668D01*
X915924Y396240D01*
X915924Y399288D01*
X914400Y400812D01*
X900684Y400812D01*
X894588Y394716D01*
X931164Y393192D02*
X932300Y393700D01*
X894588Y394716D02*
X894200Y393700D01*
X637032Y403860D02*
X629412Y396240D01*
X627888Y394716D01*
X637032Y403860D02*
X655320Y403860D01*
X664464Y394716D01*
X627888Y394716D02*
X627500Y393700D01*
X664464Y394716D02*
X665600Y393700D01*
X704088Y394716D02*
X708660Y394716D01*
X714756Y400812D01*
X734568Y400812D01*
X739140Y396240D02*
X740664Y394716D01*
X739140Y396240D02*
X734568Y400812D01*
X704088Y394716D02*
X703700Y393700D01*
X740664Y394716D02*
X741800Y393700D01*
X778764Y393192D02*
X778764Y385572D01*
X772668Y379476D01*
X754380Y379476D01*
X740664Y393192D01*
X778764Y393192D02*
X779900Y393700D01*
X741800Y393700D02*
X740664Y393192D01*
X675132Y403860D02*
X665988Y394716D01*
X675132Y403860D02*
X693420Y403860D01*
X702564Y394716D01*
X665988Y394716D02*
X665600Y393700D01*
X702564Y394716D02*
X703700Y393700D01*
X836676Y403860D02*
X836676Y408432D01*
X836676Y420624D02*
X807720Y420624D01*
X801624Y426720D01*
X792480Y426720D01*
X781812Y416052D01*
X758952Y416052D01*
X739140Y396240D01*
X741800Y393700D01*
X629412Y396240D02*
X621792Y403860D01*
X629412Y396240D02*
X627500Y393700D01*
X995172Y406908D02*
X996696Y408432D01*
X937260Y422148D02*
X838200Y422148D01*
X836676Y420624D01*
D13*
X984504Y185928D03*
X484632Y403860D03*
X512064Y403860D03*
X836676Y408432D03*
X836676Y420624D03*
X621792Y403860D03*
X996696Y408432D03*
X937260Y422148D03*
D12*
X473964Y382524D02*
X473964Y368808D01*
X473964Y382524D02*
X469392Y387096D01*
X469392Y399288D01*
X480060Y409956D01*
X487680Y409956D01*
X498348Y399288D02*
X507492Y390144D01*
X498348Y399288D02*
X487680Y409956D01*
X507492Y377952D02*
X507492Y373380D01*
X507492Y377952D02*
X507492Y390144D01*
X507492Y373380D02*
X512064Y368808D01*
X475100Y368300D02*
X473964Y368808D01*
X512064Y368808D02*
X513200Y368300D01*
X537972Y368808D02*
X550164Y368808D01*
X551300Y368300D01*
X589788Y367284D02*
X589788Y358140D01*
X589788Y367284D02*
X589400Y368300D01*
X854964Y367284D02*
X854964Y353568D01*
X850392Y348996D01*
X850392Y336804D01*
X851916Y335280D01*
X859536Y335280D01*
X865632Y341376D01*
X865632Y348996D01*
X871728Y355092D01*
X879348Y355092D02*
X880872Y355092D01*
X879348Y355092D02*
X871728Y355092D01*
X880872Y355092D02*
X893064Y367284D01*
X856100Y368300D02*
X854964Y367284D01*
X893064Y367284D02*
X894200Y368300D01*
X925068Y367284D02*
X931164Y367284D01*
X925068Y367284D02*
X915924Y358140D01*
X903732Y358140D01*
X894588Y367284D01*
X931164Y367284D02*
X932300Y368300D01*
X894588Y367284D02*
X894200Y368300D01*
X627888Y381000D02*
X627888Y382524D01*
X627888Y381000D02*
X627888Y368808D01*
X627888Y382524D02*
X637032Y391668D01*
X637032Y399288D01*
X638556Y400812D01*
X647700Y400812D01*
X659892Y388620D01*
X659892Y385572D02*
X659892Y373380D01*
X659892Y385572D02*
X659892Y388620D01*
X659892Y373380D02*
X664464Y368808D01*
X627888Y368808D02*
X627500Y368300D01*
X664464Y368808D02*
X665600Y368300D01*
X704088Y367284D02*
X708660Y367284D01*
X717804Y358140D01*
X731520Y358140D01*
X740664Y367284D01*
X704088Y367284D02*
X703700Y368300D01*
X740664Y367284D02*
X741800Y368300D01*
X769620Y367284D02*
X778764Y367284D01*
X769620Y367284D02*
X763524Y361188D01*
X748284Y361188D01*
X742188Y367284D01*
X778764Y367284D02*
X779900Y368300D01*
X742188Y367284D02*
X741800Y368300D01*
X669036Y385572D02*
X659892Y385572D01*
X669036Y385572D02*
X675132Y391668D01*
X675132Y399288D01*
X676656Y400812D01*
X685800Y400812D01*
X697992Y388620D01*
X697992Y373380D01*
X702564Y368808D01*
X703700Y368300D01*
X879348Y355092D02*
X879348Y350520D01*
X780288Y355092D02*
X780288Y367284D01*
X779900Y368300D01*
X509016Y409956D02*
X498348Y399288D01*
X509016Y409956D02*
X605028Y409956D01*
X621792Y393192D01*
X621792Y387096D01*
X627888Y381000D01*
X1008888Y382524D02*
X1008888Y368808D01*
X1008888Y382524D02*
X1018032Y391668D01*
X1018032Y399288D01*
X1019556Y400812D01*
X1028700Y400812D01*
X1040892Y388620D01*
X1040892Y373380D01*
X1045464Y368808D01*
X1008888Y368808D02*
X1008500Y368300D01*
X1045464Y368808D02*
X1046600Y368300D01*
X816864Y368808D02*
X816864Y382524D01*
X812292Y387096D01*
X812292Y399288D01*
X827532Y414528D01*
X876300Y414528D01*
X877824Y416052D01*
X940308Y416052D01*
X943356Y419100D01*
X943356Y431292D01*
X922020Y452628D01*
X922020Y458724D01*
X925068Y461772D01*
X931164Y461772D01*
X964692Y428244D01*
X964692Y385572D02*
X964692Y373380D01*
X964692Y385572D02*
X964692Y426720D01*
X964692Y428244D01*
X964692Y373380D02*
X969264Y368808D01*
X818000Y368300D02*
X816864Y368808D01*
X969264Y368808D02*
X970400Y368300D01*
X964692Y426720D02*
X1004316Y426720D01*
X1005840Y385572D02*
X1008888Y382524D01*
X1005840Y385572D02*
X1004316Y385572D01*
X995172Y394716D01*
X995172Y400812D01*
X992124Y403860D01*
X979932Y403860D01*
X976884Y400812D01*
X976884Y388620D01*
X973836Y385572D01*
X964692Y385572D01*
X824484Y352044D02*
X824484Y338328D01*
X821436Y335280D01*
X813816Y335280D01*
X812292Y336804D01*
X812292Y362712D01*
X816864Y367284D01*
X818000Y368300D01*
D13*
X537972Y368808D03*
X507492Y377952D03*
X589788Y358140D03*
X879348Y350520D03*
X780288Y355092D03*
X1004316Y426720D03*
X824484Y352044D03*
D12*
X669036Y342900D02*
X665600Y342900D01*
X669036Y342900D02*
X676656Y350520D01*
X694944Y350520D01*
X702564Y342900D01*
X703700Y342900D01*
X741800Y342900D02*
X745236Y342900D01*
X752856Y350520D01*
X771144Y350520D01*
X778764Y342900D01*
X779900Y342900D01*
X669036Y342900D02*
X669036Y326136D01*
X675132Y320040D01*
X675132Y310896D01*
X676656Y309372D01*
X684276Y309372D01*
X707136Y332232D01*
X708660Y332232D01*
X713232Y336804D01*
X713232Y348996D01*
X714756Y350520D01*
X733044Y350520D01*
X740664Y342900D01*
X741800Y342900D01*
X478536Y342900D02*
X475100Y342900D01*
X478536Y342900D02*
X486156Y335280D01*
X504444Y335280D01*
X512064Y342900D01*
X513200Y342900D01*
X551688Y342900D02*
X559308Y350520D01*
X559308Y352044D01*
X582168Y352044D02*
X582168Y348996D01*
X588264Y342900D01*
X551688Y342900D02*
X551300Y342900D01*
X588264Y342900D02*
X589400Y342900D01*
X626364Y342900D02*
X626364Y345948D01*
X620268Y352044D01*
X626364Y342900D02*
X627500Y342900D01*
X513588Y342900D02*
X513588Y350520D01*
X516636Y353568D01*
X513588Y342900D02*
X513200Y342900D01*
X658368Y342900D02*
X665600Y342900D01*
X658368Y342900D02*
X649224Y352044D01*
X818388Y356616D02*
X818388Y342900D01*
X818388Y356616D02*
X827532Y365760D01*
X827532Y399288D01*
X829056Y400812D01*
X838200Y400812D01*
X850392Y388620D01*
X850392Y387096D01*
X851916Y385572D01*
X859536Y385572D01*
X865632Y391668D01*
X865632Y399288D01*
X867156Y400812D01*
X876300Y400812D01*
X877824Y399288D01*
X877824Y376428D02*
X877824Y362712D01*
X877824Y376428D02*
X877824Y399288D01*
X877824Y362712D02*
X873252Y358140D01*
X870204Y358140D01*
X854964Y342900D01*
X818388Y342900D02*
X818000Y342900D01*
X854964Y342900D02*
X856100Y342900D01*
X1008500Y342900D02*
X1011936Y342900D01*
X1019556Y335280D01*
X1037844Y335280D01*
X1045464Y342900D01*
X1046600Y342900D01*
X897636Y342900D02*
X894200Y342900D01*
X897636Y342900D02*
X905256Y350520D01*
X923544Y350520D01*
X925068Y348996D02*
X931164Y342900D01*
X925068Y348996D02*
X923544Y350520D01*
X931164Y342900D02*
X932300Y342900D01*
X969264Y353568D02*
X969264Y358140D01*
X969264Y353568D02*
X969264Y342900D01*
X969264Y358140D02*
X954024Y373380D01*
X954024Y399288D01*
X952500Y400812D01*
X943356Y400812D01*
X941832Y399288D01*
X941832Y376428D02*
X941832Y365760D01*
X941832Y376428D02*
X941832Y399288D01*
X941832Y365760D02*
X925068Y348996D01*
X969264Y342900D02*
X970400Y342900D01*
X903732Y336804D02*
X903732Y228600D01*
X903732Y336804D02*
X897636Y342900D01*
X1007364Y342900D02*
X1007364Y336804D01*
X1002792Y332232D01*
X1007364Y342900D02*
X1008500Y342900D01*
X897636Y376428D02*
X877824Y376428D01*
X897636Y376428D02*
X903732Y370332D01*
X903732Y362712D01*
X905256Y361188D01*
X914400Y361188D01*
X926592Y373380D01*
X926592Y374904D01*
X928116Y376428D01*
X941832Y376428D01*
X891540Y353568D02*
X891540Y344424D01*
X893064Y342900D01*
X894200Y342900D01*
D13*
X559308Y352044D03*
X582168Y352044D03*
X620268Y352044D03*
X516636Y353568D03*
X649224Y352044D03*
X903732Y228600D03*
X1002792Y332232D03*
X969264Y353568D03*
X771144Y350520D03*
X891540Y353568D03*
D12*
X672084Y310896D02*
X665988Y316992D01*
X672084Y310896D02*
X672084Y309372D01*
X675132Y306324D01*
X691896Y306324D01*
X702564Y316992D01*
X665988Y316992D02*
X665600Y317500D01*
X702564Y316992D02*
X703700Y317500D01*
X480060Y318516D02*
X475488Y318516D01*
X480060Y318516D02*
X486156Y324612D01*
X495300Y324612D01*
X499872Y320040D01*
X499872Y242316D01*
X509016Y233172D01*
X516636Y233172D01*
X519684Y236220D01*
X519684Y248412D01*
X516636Y251460D02*
X505968Y262128D01*
X516636Y251460D02*
X519684Y248412D01*
X505968Y262128D02*
X505968Y310896D01*
X512064Y316992D01*
X475488Y318516D02*
X475100Y317500D01*
X512064Y316992D02*
X513200Y317500D01*
X551688Y316992D02*
X551688Y303276D01*
X557784Y297180D01*
X557784Y256032D01*
X521208Y256032D02*
X516636Y251460D01*
X551688Y316992D02*
X551300Y317500D01*
X589788Y316992D02*
X589788Y313944D01*
X595884Y307848D01*
X595884Y256032D01*
X589788Y316992D02*
X589400Y317500D01*
X627888Y316992D02*
X627888Y306324D01*
X597408Y326136D02*
X589788Y318516D01*
X627500Y317500D02*
X627888Y316992D01*
X589788Y318516D02*
X589400Y317500D01*
X656844Y318516D02*
X664464Y318516D01*
X656844Y318516D02*
X649224Y326136D01*
X664464Y318516D02*
X665600Y317500D01*
X742188Y316992D02*
X745236Y316992D01*
X752856Y309372D01*
X771144Y309372D01*
X778764Y316992D01*
X742188Y316992D02*
X741800Y317500D01*
X778764Y316992D02*
X779900Y317500D01*
X816864Y318516D02*
X816864Y327660D01*
X807720Y336804D01*
X807720Y416052D01*
X800100Y423672D01*
X794004Y423672D01*
X789432Y419100D01*
X789432Y327660D01*
X780288Y318516D01*
X816864Y318516D02*
X818000Y317500D01*
X780288Y318516D02*
X779900Y317500D01*
X856488Y316992D02*
X859536Y316992D01*
X867156Y309372D01*
X885444Y309372D01*
X890016Y313944D02*
X893064Y316992D01*
X890016Y313944D02*
X885444Y309372D01*
X856488Y316992D02*
X856100Y317500D01*
X893064Y316992D02*
X894200Y317500D01*
X932688Y318516D02*
X937260Y318516D01*
X943356Y324612D01*
X963168Y324612D01*
X967740Y320040D02*
X969264Y318516D01*
X967740Y320040D02*
X963168Y324612D01*
X932688Y318516D02*
X932300Y317500D01*
X969264Y318516D02*
X970400Y317500D01*
X1010412Y318516D02*
X1013460Y318516D01*
X1010412Y318516D02*
X1008888Y318516D01*
X1013460Y318516D02*
X1019556Y324612D01*
X1039368Y324612D01*
X1045464Y318516D01*
X1008888Y318516D02*
X1008500Y317500D01*
X1045464Y318516D02*
X1046600Y317500D01*
X1051560Y230124D02*
X1051560Y227076D01*
X1051560Y230124D02*
X1056132Y234696D01*
X1056132Y294132D01*
X1043940Y306324D01*
X1022604Y306324D01*
X1010412Y318516D01*
X1008500Y317500D01*
X978408Y330708D02*
X967740Y320040D01*
X978408Y330708D02*
X995172Y330708D01*
X1007364Y318516D01*
X970400Y317500D02*
X967740Y320040D01*
X1007364Y318516D02*
X1008500Y317500D01*
X897636Y306324D02*
X890016Y313944D01*
X926592Y312420D02*
X926592Y306324D01*
X926592Y312420D02*
X931164Y316992D01*
X932300Y317500D01*
X826008Y309372D02*
X818388Y316992D01*
X826008Y309372D02*
X826008Y307848D01*
X818388Y316992D02*
X818000Y317500D01*
X704088Y316992D02*
X704088Y313944D01*
X710184Y307848D01*
X728472Y330708D02*
X728472Y338328D01*
X728472Y330708D02*
X740664Y318516D01*
X704088Y316992D02*
X703700Y317500D01*
X740664Y318516D02*
X741800Y317500D01*
D13*
X557784Y256032D03*
X521208Y256032D03*
X595884Y256032D03*
X627888Y306324D03*
X597408Y326136D03*
X649224Y326136D03*
X1051560Y227076D03*
X897636Y306324D03*
X926592Y306324D03*
X826008Y307848D03*
X710184Y307848D03*
X728472Y338328D03*
D12*
X487680Y304800D02*
X475488Y292608D01*
X512064Y292608D02*
X512064Y304800D01*
X475488Y292608D02*
X475100Y292100D01*
X512064Y292608D02*
X513200Y292100D01*
X536448Y306324D02*
X550164Y292608D01*
X551300Y292100D01*
X588264Y292608D02*
X588264Y306324D01*
X588264Y292608D02*
X589400Y292100D01*
X627888Y291084D02*
X627888Y286512D01*
X632460Y281940D01*
X627888Y291084D02*
X627500Y292100D01*
X650748Y306324D02*
X664464Y292608D01*
X650748Y306324D02*
X649224Y306324D01*
X664464Y292608D02*
X665600Y292100D01*
X970788Y297180D02*
X970788Y306324D01*
X970788Y297180D02*
X970788Y292608D01*
X970788Y306324D02*
X976884Y312420D01*
X976884Y324612D01*
X979932Y327660D01*
X992124Y327660D01*
X1002792Y316992D01*
X1002792Y303276D02*
X1002792Y297180D01*
X1002792Y303276D02*
X1002792Y316992D01*
X1002792Y297180D02*
X1007364Y292608D01*
X970788Y292608D02*
X970400Y292100D01*
X1007364Y292608D02*
X1008500Y292100D01*
X1039368Y292608D02*
X1045464Y292608D01*
X1039368Y292608D02*
X1028700Y303276D01*
X1002792Y303276D01*
X1045464Y292608D02*
X1046600Y292100D01*
X1028700Y204216D02*
X1028700Y195072D01*
X1028700Y204216D02*
X1040892Y216408D01*
X1040892Y225552D01*
X1048512Y233172D01*
X1050036Y233172D01*
X1053084Y236220D01*
X1053084Y284988D01*
X1046988Y291084D01*
X1046600Y292100D01*
X704088Y291084D02*
X704088Y277368D01*
X713232Y268224D01*
X713232Y260604D01*
X714756Y259080D01*
X722376Y259080D01*
X740664Y277368D01*
X740664Y291084D01*
X704088Y291084D02*
X703700Y292100D01*
X740664Y291084D02*
X741800Y292100D01*
X778764Y291084D02*
X778764Y289560D01*
X775716Y286512D02*
X774192Y284988D01*
X775716Y286512D02*
X778764Y289560D01*
X774192Y284988D02*
X768096Y284988D01*
X763524Y289560D01*
X763524Y297180D01*
X760476Y300228D01*
X749808Y300228D01*
X742188Y292608D01*
X778764Y291084D02*
X779900Y292100D01*
X742188Y292608D02*
X741800Y292100D01*
X818388Y291084D02*
X826008Y283464D01*
X847344Y283464D02*
X854964Y291084D01*
X818388Y291084D02*
X818000Y292100D01*
X854964Y291084D02*
X856100Y292100D01*
X893064Y292608D02*
X893064Y297180D01*
X888492Y301752D01*
X893064Y292608D02*
X894200Y292100D01*
X923544Y292608D02*
X931164Y292608D01*
X923544Y292608D02*
X918972Y297180D01*
X931164Y292608D02*
X932300Y292100D01*
X780288Y281940D02*
X775716Y286512D01*
X957072Y297180D02*
X970788Y297180D01*
X675132Y281940D02*
X665988Y291084D01*
X687324Y281940D02*
X687324Y262128D01*
X691896Y257556D01*
X710184Y257556D01*
X713232Y260604D01*
X665988Y291084D02*
X665600Y292100D01*
D13*
X487680Y304800D03*
X512064Y304800D03*
X536448Y306324D03*
X588264Y306324D03*
X632460Y281940D03*
X649224Y306324D03*
X1028700Y195072D03*
X826008Y283464D03*
X847344Y283464D03*
X888492Y301752D03*
X918972Y297180D03*
X780288Y281940D03*
X957072Y297180D03*
X675132Y281940D03*
X687324Y281940D03*
D12*
X932688Y256032D02*
X932688Y252984D01*
X932688Y256032D02*
X932688Y266700D01*
X932688Y252984D02*
X941832Y243840D01*
X941832Y210312D01*
X943356Y208788D01*
X952500Y208788D01*
X954024Y210312D01*
X954024Y251460D01*
X969264Y266700D01*
X932688Y266700D02*
X932300Y266700D01*
X969264Y266700D02*
X970400Y266700D01*
X1008888Y266700D02*
X1008888Y280416D01*
X1018032Y289560D01*
X1018032Y298704D01*
X1019556Y300228D01*
X1027176Y300228D01*
X1045464Y281940D01*
X1045464Y266700D01*
X1008888Y266700D02*
X1008500Y266700D01*
X1036320Y257556D02*
X1036320Y252984D01*
X1036320Y257556D02*
X1045464Y266700D01*
X1046600Y266700D01*
X970788Y266700D02*
X970788Y280416D01*
X979932Y289560D01*
X979932Y323088D01*
X981456Y324612D01*
X990600Y324612D01*
X999744Y315468D01*
X999744Y289560D01*
X1008888Y280416D01*
X970788Y266700D02*
X970400Y266700D01*
X478536Y266700D02*
X475100Y266700D01*
X478536Y266700D02*
X489204Y256032D01*
X490728Y256032D01*
X512064Y266700D02*
X512064Y277368D01*
X512064Y266700D02*
X513200Y266700D01*
X550164Y266700D02*
X550164Y269748D01*
X542544Y277368D01*
X550164Y266700D02*
X551300Y266700D01*
X588264Y266700D02*
X588264Y277368D01*
X588264Y266700D02*
X589400Y266700D01*
X626364Y266700D02*
X626364Y269748D01*
X620268Y275844D01*
X626364Y266700D02*
X627500Y266700D01*
X856488Y266700D02*
X856488Y252984D01*
X865632Y243840D01*
X865632Y210312D01*
X867156Y208788D01*
X876300Y208788D01*
X885444Y217932D01*
X885444Y259080D01*
X893064Y266700D01*
X856488Y266700D02*
X856100Y266700D01*
X893064Y266700D02*
X894200Y266700D01*
X673608Y259080D02*
X665988Y266700D01*
X673608Y259080D02*
X673608Y257556D01*
X694944Y263652D02*
X699516Y263652D01*
X702564Y266700D01*
X665988Y266700D02*
X665600Y266700D01*
X741800Y266700D02*
X745236Y266700D01*
X752856Y259080D01*
X771144Y259080D01*
X772668Y260604D02*
X778764Y266700D01*
X772668Y260604D02*
X771144Y259080D01*
X778764Y266700D02*
X779900Y266700D01*
X816864Y266700D02*
X816864Y251460D01*
X801624Y236220D01*
X801624Y210312D01*
X800100Y208788D01*
X790956Y208788D01*
X789432Y210312D01*
X789432Y243840D01*
X772668Y260604D01*
X816864Y266700D02*
X818000Y266700D01*
X702564Y266700D02*
X702564Y274320D01*
X697992Y278892D01*
X697992Y298704D01*
X701040Y301752D01*
X723900Y301752D01*
X725424Y303276D01*
X737616Y303276D01*
X740664Y306324D01*
X777240Y306324D01*
X786384Y297180D01*
X786384Y272796D01*
X780288Y266700D01*
X703700Y266700D02*
X702564Y266700D01*
X779900Y266700D02*
X780288Y266700D01*
X848868Y252984D02*
X856488Y252984D01*
X826008Y251460D02*
X816864Y251460D01*
X637032Y257556D02*
X627888Y266700D01*
X637032Y257556D02*
X637032Y256032D01*
X627888Y266700D02*
X627500Y266700D01*
X917448Y256032D02*
X932688Y256032D01*
D13*
X1036320Y252984D03*
X490728Y256032D03*
X512064Y277368D03*
X542544Y277368D03*
X588264Y277368D03*
X620268Y275844D03*
X673608Y257556D03*
X694944Y263652D03*
X848868Y252984D03*
X826008Y251460D03*
X637032Y256032D03*
X917448Y256032D03*
D12*
X473964Y256032D02*
X473964Y242316D01*
X473964Y256032D02*
X469392Y260604D01*
X469392Y323088D01*
X473964Y327660D01*
X496824Y327660D01*
X502920Y321564D01*
X502920Y251460D01*
X512064Y242316D01*
X475100Y241300D02*
X473964Y242316D01*
X512064Y242316D02*
X513200Y241300D01*
X550164Y242316D02*
X550164Y256032D01*
X542544Y263652D01*
X542544Y268224D01*
X576072Y268224D02*
X576072Y254508D01*
X588264Y242316D01*
X551300Y241300D02*
X550164Y242316D01*
X588264Y242316D02*
X589400Y241300D01*
X626364Y242316D02*
X626364Y256032D01*
X614172Y268224D01*
X614172Y329184D01*
X617220Y332232D01*
X624840Y332232D01*
X637032Y320040D01*
X637032Y309372D01*
X659892Y286512D01*
X659892Y246888D01*
X664464Y242316D01*
X627500Y241300D02*
X626364Y242316D01*
X664464Y242316D02*
X665600Y241300D01*
X576072Y342900D02*
X576072Y368808D01*
X576072Y342900D02*
X576072Y268224D01*
X576072Y368808D02*
X598932Y391668D01*
X598932Y399288D01*
X600456Y400812D01*
X609600Y400812D01*
X614172Y396240D01*
X614172Y335280D01*
X617220Y332232D01*
X513588Y332232D02*
X502920Y321564D01*
X1008888Y240792D02*
X1008888Y227076D01*
X1018032Y217932D01*
X1018032Y210312D01*
X1019556Y208788D01*
X1028700Y208788D01*
X1037844Y217932D01*
X1037844Y233172D01*
X1045464Y240792D01*
X1008888Y240792D02*
X1008500Y241300D01*
X1045464Y240792D02*
X1046600Y241300D01*
X1045464Y242316D02*
X1045464Y252984D01*
X1045464Y242316D02*
X1046600Y241300D01*
X708660Y242316D02*
X704088Y242316D01*
X708660Y242316D02*
X717804Y251460D01*
X733044Y251460D01*
X742188Y242316D01*
X704088Y242316D02*
X703700Y241300D01*
X772668Y242316D02*
X778764Y242316D01*
X772668Y242316D02*
X766572Y248412D01*
X748284Y248412D01*
X742188Y242316D01*
X778764Y242316D02*
X779900Y241300D01*
X742188Y242316D02*
X741800Y241300D01*
X818388Y228600D02*
X818388Y227076D01*
X818388Y228600D02*
X818388Y240792D01*
X818388Y227076D02*
X827532Y217932D01*
X827532Y210312D01*
X829056Y208788D01*
X838200Y208788D01*
X850392Y220980D01*
X850392Y224028D02*
X850392Y236220D01*
X850392Y224028D02*
X850392Y220980D01*
X850392Y236220D02*
X854964Y240792D01*
X818388Y240792D02*
X818000Y241300D01*
X854964Y240792D02*
X856100Y241300D01*
X893064Y240792D02*
X893064Y227076D01*
X888492Y222504D01*
X888492Y216408D01*
X880872Y208788D02*
X877824Y205740D01*
X880872Y208788D02*
X888492Y216408D01*
X877824Y205740D02*
X865632Y205740D01*
X862584Y208788D01*
X862584Y220980D01*
X859536Y224028D01*
X850392Y224028D01*
X893064Y240792D02*
X894200Y241300D01*
X931164Y228600D02*
X931164Y227076D01*
X931164Y228600D02*
X931164Y240792D01*
X931164Y227076D02*
X915924Y211836D01*
X915924Y208788D01*
X905256Y198120D01*
X891540Y198120D01*
X880872Y208788D01*
X931164Y240792D02*
X932300Y241300D01*
X969264Y240792D02*
X969264Y227076D01*
X957072Y214884D01*
X957072Y208788D01*
X954024Y205740D01*
X941832Y205740D01*
X938784Y208788D01*
X938784Y220980D01*
X931164Y228600D01*
X969264Y240792D02*
X970400Y241300D01*
X780288Y240792D02*
X780288Y227076D01*
X786384Y220980D01*
X786384Y208788D01*
X789432Y205740D01*
X801624Y205740D01*
X812292Y216408D01*
X812292Y222504D01*
X818388Y228600D01*
X780288Y240792D02*
X779900Y241300D01*
X1014984Y210312D02*
X1018032Y210312D01*
X1014984Y210312D02*
X1010412Y205740D01*
X960120Y205740D01*
X957072Y208788D01*
X673608Y233172D02*
X665988Y240792D01*
X673608Y233172D02*
X673608Y231648D01*
X694944Y233172D02*
X702564Y240792D01*
X665988Y240792D02*
X665600Y241300D01*
X702564Y240792D02*
X703700Y241300D01*
D13*
X542544Y268224D03*
X576072Y268224D03*
X513588Y332232D03*
X576072Y342900D03*
X1045464Y252984D03*
X673608Y231648D03*
X694944Y233172D03*
D12*
X480060Y214884D02*
X475488Y214884D01*
X480060Y214884D02*
X486156Y208788D01*
X505968Y208788D01*
X509016Y211836D02*
X512064Y214884D01*
X509016Y211836D02*
X505968Y208788D01*
X475488Y214884D02*
X475100Y215900D01*
X512064Y214884D02*
X513200Y215900D01*
X550164Y214884D02*
X550164Y193548D01*
X539496Y182880D02*
X525780Y169164D01*
X539496Y182880D02*
X550164Y193548D01*
X525780Y169164D02*
X525780Y163068D01*
X528828Y160020D01*
X534924Y160020D01*
X588264Y213360D02*
X589788Y214884D01*
X588264Y213360D02*
X534924Y160020D01*
X550164Y214884D02*
X551300Y215900D01*
X589400Y215900D02*
X589788Y214884D01*
X626364Y214884D02*
X626364Y202692D01*
X620268Y196596D01*
X605028Y196596D01*
X588264Y213360D01*
X626364Y214884D02*
X627500Y215900D01*
X589400Y215900D02*
X588264Y213360D01*
X516636Y204216D02*
X509016Y211836D01*
X531876Y188976D02*
X537972Y182880D01*
X539496Y182880D01*
X970788Y214884D02*
X975360Y214884D01*
X981456Y208788D01*
X1001268Y208788D01*
X1007364Y214884D01*
X970788Y214884D02*
X970400Y215900D01*
X1007364Y214884D02*
X1008500Y215900D01*
X1002792Y248412D02*
X1005840Y251460D01*
X1002792Y248412D02*
X1002792Y220980D01*
X1007364Y216408D01*
X1008500Y215900D01*
X673608Y207264D02*
X665988Y214884D01*
X694944Y210312D02*
X697992Y210312D01*
X702564Y214884D01*
X665988Y214884D02*
X665600Y215900D01*
X702564Y214884D02*
X703700Y215900D01*
X729996Y214884D02*
X740664Y214884D01*
X729996Y214884D02*
X723900Y208788D01*
X710184Y208788D01*
X704088Y214884D01*
X740664Y214884D02*
X741800Y215900D01*
X704088Y214884D02*
X703700Y215900D01*
X780288Y214884D02*
X780288Y210312D01*
X786384Y204216D02*
X787908Y202692D01*
X786384Y204216D02*
X780288Y210312D01*
X787908Y202692D02*
X804672Y202692D01*
X816864Y214884D01*
X780288Y214884D02*
X779900Y215900D01*
X816864Y214884D02*
X818000Y215900D01*
X848868Y214884D02*
X854964Y214884D01*
X848868Y214884D02*
X839724Y205740D01*
X827532Y205740D01*
X818388Y214884D01*
X854964Y214884D02*
X856100Y215900D01*
X818388Y214884D02*
X818000Y215900D01*
X893064Y214884D02*
X893064Y205740D01*
X874776Y199644D02*
X867156Y199644D01*
X856488Y210312D01*
X856488Y214884D01*
X893064Y214884D02*
X894200Y215900D01*
X856488Y214884D02*
X856100Y215900D01*
X926592Y214884D02*
X931164Y214884D01*
X926592Y214884D02*
X906780Y195072D01*
X880872Y195072D02*
X879348Y195072D01*
X880872Y195072D02*
X906780Y195072D01*
X879348Y195072D02*
X874776Y199644D01*
X931164Y214884D02*
X932300Y215900D01*
X1045464Y214884D02*
X1045464Y202692D01*
X1031748Y188976D01*
X1018032Y188976D02*
X990600Y188976D01*
X1018032Y188976D02*
X1031748Y188976D01*
X990600Y188976D02*
X976884Y202692D01*
X940308Y202692D01*
X932688Y210312D01*
X932688Y214884D01*
X1045464Y214884D02*
X1046600Y215900D01*
X932688Y214884D02*
X932300Y215900D01*
X752856Y204216D02*
X742188Y214884D01*
X752856Y204216D02*
X752856Y202692D01*
X760476Y195072D01*
X777240Y195072D01*
X786384Y204216D01*
X742188Y214884D02*
X741800Y215900D01*
X1018032Y202692D02*
X1018032Y188976D01*
X650748Y202692D02*
X626364Y202692D01*
X650748Y202692D02*
X661416Y192024D01*
X690372Y192024D01*
X701040Y181356D01*
X867156Y181356D01*
X880872Y195072D01*
D13*
X516636Y204216D03*
X531876Y188976D03*
X1005840Y251460D03*
X673608Y207264D03*
X694944Y210312D03*
X893064Y205740D03*
X874776Y199644D03*
X1018032Y202692D03*
D12*
X1062228Y342900D02*
X1062228Y367284D01*
X1061600Y368300D01*
X1062228Y368808D02*
X1062228Y393192D01*
X1061600Y393700D01*
X1062228Y368808D02*
X1061600Y368300D01*
X1062228Y240792D02*
X1062228Y216408D01*
X1061600Y215900D01*
X1062228Y240792D02*
X1061600Y241300D01*
X1062228Y281940D02*
X1062228Y291084D01*
X1062228Y281940D02*
X1062228Y266700D01*
X1062228Y291084D02*
X1061600Y292100D01*
X1062228Y292608D02*
X1062228Y316992D01*
X1061600Y317500D01*
X1062228Y292608D02*
X1061600Y292100D01*
X1062228Y266700D02*
X1062228Y242316D01*
X1061600Y241300D01*
X1061600Y266700D02*
X1062228Y266700D01*
X1062228Y318516D02*
X1062228Y342900D01*
X1061600Y342900D01*
X1062228Y318516D02*
X1061600Y317500D01*
D13*
X1062228Y281940D03*
D12*
X1034796Y316992D02*
X1024128Y316992D01*
X1034796Y316992D02*
X1042416Y309372D01*
X1050036Y309372D01*
X1053084Y312420D01*
X1053084Y347472D01*
X1050036Y350520D01*
X1031748Y350520D01*
X1024128Y342900D01*
X1023500Y317500D02*
X1024128Y316992D01*
X1024128Y342900D02*
X1023500Y342900D01*
X1024128Y358140D02*
X1024128Y367284D01*
X1024128Y358140D02*
X1031748Y350520D01*
X1024128Y367284D02*
X1023500Y368300D01*
X1024128Y368808D02*
X1024128Y393192D01*
X1023500Y393700D01*
X1024128Y368808D02*
X1023500Y368300D01*
X1024128Y240792D02*
X1024128Y216408D01*
X1023500Y215900D01*
X1024128Y240792D02*
X1023500Y241300D01*
X1024128Y266700D02*
X1024128Y291084D01*
X1024128Y266700D02*
X1023500Y266700D01*
X1024128Y291084D02*
X1023500Y292100D01*
X999744Y263652D02*
X1004316Y259080D01*
X1014984Y259080D01*
X1022604Y266700D01*
X1023500Y266700D01*
X1022604Y251460D02*
X1022604Y242316D01*
X1022604Y251460D02*
X1014984Y259080D01*
X1022604Y242316D02*
X1023500Y241300D01*
X1056132Y303276D02*
X1050036Y309372D01*
D13*
X999744Y263652D03*
X1056132Y303276D03*
D12*
X986028Y353568D02*
X986028Y367284D01*
X986028Y353568D02*
X986028Y342900D01*
X985400Y342900D01*
X986028Y367284D02*
X985400Y368300D01*
X986028Y368808D02*
X986028Y393192D01*
X985400Y393700D01*
X986028Y368808D02*
X985400Y368300D01*
X986028Y240792D02*
X986028Y216408D01*
X985400Y215900D01*
X986028Y240792D02*
X985400Y241300D01*
X986028Y266700D02*
X986028Y291084D01*
X986028Y266700D02*
X985400Y266700D01*
X986028Y291084D02*
X985400Y292100D01*
X986028Y292608D02*
X986028Y316992D01*
X985400Y317500D01*
X986028Y292608D02*
X985400Y292100D01*
X978408Y260604D02*
X978408Y257556D01*
X978408Y260604D02*
X984504Y266700D01*
X985400Y266700D01*
X984504Y251460D02*
X984504Y242316D01*
X984504Y251460D02*
X978408Y257556D01*
X984504Y242316D02*
X985400Y241300D01*
X986028Y353568D02*
X1002792Y353568D01*
D13*
X978408Y257556D03*
X1002792Y353568D03*
D12*
X947928Y342900D02*
X947928Y367284D01*
X947928Y342900D02*
X947300Y342900D01*
X947928Y367284D02*
X947300Y368300D01*
X947928Y368808D02*
X947928Y393192D01*
X947300Y393700D01*
X947928Y368808D02*
X947300Y368300D01*
X947928Y240792D02*
X947928Y216408D01*
X947300Y215900D01*
X947928Y240792D02*
X947300Y241300D01*
X947928Y288036D02*
X947928Y291084D01*
X947928Y288036D02*
X947928Y266700D01*
X947928Y291084D02*
X947300Y292100D01*
X947928Y292608D02*
X947928Y316992D01*
X947300Y317500D01*
X947928Y292608D02*
X947300Y292100D01*
X947928Y288036D02*
X957072Y288036D01*
X947928Y288036D02*
X947300Y292100D01*
X947928Y266700D02*
X947928Y242316D01*
X947300Y241300D01*
X947300Y266700D02*
X947928Y266700D01*
X946404Y339852D02*
X946404Y342900D01*
X946404Y339852D02*
X940308Y333756D01*
X946404Y342900D02*
X947300Y342900D01*
D13*
X957072Y288036D03*
X940308Y333756D03*
D12*
X909828Y385572D02*
X909828Y393192D01*
X909828Y385572D02*
X909828Y368808D01*
X909200Y368300D01*
X909828Y393192D02*
X909200Y393700D01*
X909828Y240792D02*
X909828Y216408D01*
X909200Y215900D01*
X909828Y240792D02*
X909200Y241300D01*
X909828Y288036D02*
X909828Y291084D01*
X909828Y288036D02*
X909828Y266700D01*
X909828Y291084D02*
X909200Y292100D01*
X909828Y292608D02*
X909828Y316992D01*
X909200Y317500D01*
X909828Y292608D02*
X909200Y292100D01*
X909828Y318516D02*
X909828Y342900D01*
X909200Y342900D01*
X909828Y318516D02*
X909200Y317500D01*
X909828Y288036D02*
X918972Y288036D01*
X909828Y288036D02*
X909200Y292100D01*
X909828Y266700D02*
X909828Y242316D01*
X909200Y241300D01*
X909200Y266700D02*
X909828Y266700D01*
X909828Y385572D02*
X935736Y385572D01*
X938784Y388620D01*
X938784Y409956D01*
X946404Y417576D01*
X946404Y437388D01*
X928116Y455676D01*
X766572Y239268D02*
X766572Y208788D01*
X774192Y201168D01*
D13*
X918972Y288036D03*
X928116Y455676D03*
X766572Y239268D03*
X774192Y201168D03*
D12*
X871728Y376428D02*
X871728Y393192D01*
X871728Y376428D02*
X871728Y368808D01*
X871100Y368300D01*
X871728Y393192D02*
X871100Y393700D01*
X871728Y342900D02*
X871728Y324612D01*
X871728Y318516D01*
X871100Y317500D01*
X871100Y342900D02*
X871728Y342900D01*
X871728Y240792D02*
X871728Y233172D01*
X871728Y216408D01*
X871100Y215900D01*
X871728Y240792D02*
X871100Y241300D01*
X871728Y242316D02*
X871728Y266700D01*
X871100Y266700D01*
X871728Y242316D02*
X871100Y241300D01*
X861060Y281940D02*
X870204Y291084D01*
X861060Y281940D02*
X861060Y275844D01*
X870204Y266700D01*
X871100Y266700D01*
X871728Y233172D02*
X879348Y233172D01*
X871728Y324612D02*
X851916Y324612D01*
X850392Y323088D01*
X850392Y310896D01*
X870204Y291084D01*
X871100Y292100D01*
X871728Y376428D02*
X851916Y376428D01*
X847344Y371856D01*
X847344Y329184D01*
X851916Y324612D01*
D13*
X879348Y233172D03*
D12*
X833628Y342900D02*
X833628Y367284D01*
X833000Y368300D01*
X833628Y368808D02*
X833628Y393192D01*
X833000Y393700D01*
X833628Y368808D02*
X833000Y368300D01*
X833628Y240792D02*
X833628Y216408D01*
X833000Y215900D01*
X833628Y240792D02*
X833000Y241300D01*
X833628Y266700D02*
X833628Y291084D01*
X833000Y292100D01*
X833628Y292608D02*
X833628Y316992D01*
X833000Y317500D01*
X833628Y292608D02*
X833000Y292100D01*
X839724Y260604D02*
X839724Y257556D01*
X839724Y260604D02*
X833628Y266700D01*
X833000Y266700D01*
X833628Y251460D02*
X833628Y242316D01*
X833628Y251460D02*
X839724Y257556D01*
X833628Y242316D02*
X833000Y241300D01*
X833628Y318516D02*
X833628Y342900D01*
X833000Y342900D01*
X833628Y318516D02*
X833000Y317500D01*
D13*
X839724Y257556D03*
D12*
X795528Y342900D02*
X795528Y367284D01*
X794900Y368300D01*
X795528Y368808D02*
X795528Y393192D01*
X794900Y393700D01*
X795528Y368808D02*
X794900Y368300D01*
X795528Y240792D02*
X795528Y216408D01*
X794900Y215900D01*
X795528Y240792D02*
X794900Y241300D01*
X795528Y277368D02*
X795528Y291084D01*
X795528Y277368D02*
X795528Y266700D01*
X795528Y291084D02*
X794900Y292100D01*
X795528Y292608D02*
X795528Y316992D01*
X794900Y317500D01*
X795528Y292608D02*
X794900Y292100D01*
X795528Y266700D02*
X795528Y242316D01*
X794900Y241300D01*
X794900Y266700D02*
X795528Y266700D01*
X795528Y318516D02*
X795528Y342900D01*
X794900Y342900D01*
X795528Y318516D02*
X794900Y317500D01*
D13*
X795528Y277368D03*
D12*
X757428Y335280D02*
X757428Y342900D01*
X757428Y335280D02*
X757428Y327660D01*
X757428Y318516D01*
X756800Y317500D01*
X756800Y342900D02*
X757428Y342900D01*
X757428Y368808D02*
X766572Y368808D01*
X778764Y381000D02*
X786384Y388620D01*
X778764Y381000D02*
X766572Y368808D01*
X786384Y388620D02*
X786384Y399288D01*
X784860Y400812D01*
X763524Y400812D01*
X757428Y394716D01*
X757428Y368808D02*
X756800Y368300D01*
X756800Y393700D02*
X757428Y394716D01*
X757428Y335280D02*
X783336Y335280D01*
X786384Y338328D01*
X786384Y373380D01*
X778764Y381000D01*
X757428Y291084D02*
X757428Y277368D01*
X757428Y266700D01*
X756800Y266700D01*
X757428Y291084D02*
X756800Y292100D01*
X757428Y240792D02*
X757428Y216408D01*
X756800Y215900D01*
X757428Y240792D02*
X756800Y241300D01*
X885444Y286512D02*
X885444Y289560D01*
X885444Y286512D02*
X900684Y271272D01*
X900684Y234696D01*
X897636Y231648D01*
X897636Y224028D01*
X902208Y219456D01*
X902208Y204216D01*
X819912Y155448D02*
X778764Y155448D01*
X774192Y160020D01*
X758952Y205740D02*
X758952Y213360D01*
X757428Y214884D01*
X756800Y215900D01*
X757428Y277368D02*
X755904Y277368D01*
X757428Y327660D02*
X745236Y327660D01*
D13*
X885444Y289560D03*
X902208Y204216D03*
X819912Y155448D03*
X774192Y160020D03*
X758952Y205740D03*
X755904Y277368D03*
X745236Y327660D03*
D12*
X719328Y368808D02*
X719328Y393192D01*
X719328Y368808D02*
X718700Y368300D01*
X719328Y393192D02*
X718700Y393700D01*
X719328Y342900D02*
X719328Y318516D01*
X718700Y317500D01*
X718700Y342900D02*
X719328Y342900D01*
X719328Y240792D02*
X719328Y216408D01*
X718700Y215900D01*
X719328Y240792D02*
X718700Y241300D01*
X719328Y277368D02*
X719328Y291084D01*
X719328Y277368D02*
X719328Y266700D01*
X718700Y266700D01*
X719328Y291084D02*
X718700Y292100D01*
X771144Y291084D02*
X771144Y294132D01*
X762000Y303276D01*
X742188Y303276D01*
X739140Y300228D01*
X726948Y300228D01*
X719328Y292608D01*
X718700Y292100D01*
X719328Y242316D02*
X726948Y242316D01*
X729996Y245364D01*
X719328Y242316D02*
X718700Y241300D01*
X726948Y309372D02*
X719328Y316992D01*
X726948Y309372D02*
X728472Y309372D01*
X719328Y316992D02*
X718700Y317500D01*
X719328Y367284D02*
X725424Y367284D01*
X728472Y364236D01*
X719328Y367284D02*
X718700Y368300D01*
D13*
X771144Y291084D03*
X729996Y245364D03*
X719328Y277368D03*
X728472Y309372D03*
X728472Y364236D03*
D12*
X681228Y342900D02*
X681228Y335280D01*
X681228Y327660D01*
X681228Y318516D01*
X680600Y317500D01*
X680600Y342900D02*
X681228Y342900D01*
X681228Y368808D02*
X681228Y393192D01*
X681228Y368808D02*
X680600Y368300D01*
X681228Y393192D02*
X680600Y393700D01*
X681228Y335280D02*
X707136Y335280D01*
X710184Y338328D01*
X710184Y347472D01*
X690372Y367284D01*
X681228Y367284D01*
X680600Y368300D01*
X681228Y291084D02*
X681228Y266700D01*
X681228Y291084D02*
X680600Y292100D01*
X681228Y240792D02*
X681228Y216408D01*
X680600Y215900D01*
X681228Y240792D02*
X680600Y241300D01*
X867156Y278892D02*
X870204Y278892D01*
X877824Y271272D01*
X877824Y249936D01*
X816864Y205740D02*
X812292Y205740D01*
X803148Y196596D01*
X783336Y196596D01*
X778764Y192024D01*
X704088Y192024D01*
X681228Y214884D01*
X680600Y215900D01*
X681228Y242316D02*
X681228Y266700D01*
X680600Y266700D01*
X681228Y242316D02*
X680600Y241300D01*
X681228Y292608D02*
X688848Y300228D01*
X681228Y292608D02*
X680600Y292100D01*
D13*
X867156Y278892D03*
X877824Y249936D03*
X816864Y205740D03*
X681228Y327660D03*
X688848Y300228D03*
D12*
X643128Y327660D02*
X643128Y342900D01*
X643128Y327660D02*
X643128Y318516D01*
X642500Y317500D01*
X643128Y368808D02*
X643128Y393192D01*
X643128Y368808D02*
X642500Y368300D01*
X643128Y393192D02*
X642500Y393700D01*
X643128Y367284D02*
X643128Y342900D01*
X642500Y342900D01*
X643128Y367284D02*
X642500Y368300D01*
X643128Y291084D02*
X643128Y266700D01*
X643128Y291084D02*
X642500Y292100D01*
X643128Y240792D02*
X643128Y216408D01*
X642500Y215900D01*
X643128Y240792D02*
X642500Y241300D01*
X792480Y187452D02*
X864108Y187452D01*
X792480Y187452D02*
X789432Y184404D01*
X702564Y184404D01*
X688848Y198120D01*
X659892Y198120D01*
X643128Y214884D01*
X642500Y215900D01*
X643128Y242316D02*
X643128Y266700D01*
X642500Y266700D01*
X643128Y242316D02*
X642500Y241300D01*
X643128Y327660D02*
X638556Y327660D01*
X620268Y326136D02*
X620268Y304800D01*
X624840Y300228D01*
X633984Y300228D01*
X641604Y292608D01*
X642500Y292100D01*
D13*
X864108Y187452D03*
X638556Y327660D03*
X620268Y326136D03*
D12*
X605028Y291084D02*
X605028Y266700D01*
X605028Y291084D02*
X604400Y292100D01*
X605028Y292608D02*
X605028Y316992D01*
X604400Y317500D01*
X605028Y292608D02*
X604400Y292100D01*
X605028Y342900D02*
X605028Y367284D01*
X604400Y368300D01*
X605028Y368808D02*
X605028Y393192D01*
X604400Y393700D01*
X605028Y368808D02*
X604400Y368300D01*
X605028Y342900D02*
X605028Y318516D01*
X604400Y317500D01*
X604400Y342900D02*
X605028Y342900D01*
X605028Y240792D02*
X605028Y216408D01*
X604400Y215900D01*
X605028Y240792D02*
X604400Y241300D01*
X826008Y164592D02*
X847344Y164592D01*
X826008Y164592D02*
X815340Y175260D01*
X675132Y175260D01*
X667512Y182880D01*
X614172Y214884D02*
X605028Y214884D01*
X604400Y215900D01*
X605028Y242316D02*
X605028Y266700D01*
X604400Y266700D01*
X605028Y242316D02*
X604400Y241300D01*
D13*
X847344Y164592D03*
X667512Y182880D03*
X614172Y214884D03*
D12*
X566928Y266700D02*
X566928Y291084D01*
X566300Y292100D01*
X566928Y292608D02*
X566928Y316992D01*
X566300Y317500D01*
X566928Y292608D02*
X566300Y292100D01*
X566928Y342900D02*
X566928Y367284D01*
X566300Y368300D01*
X566928Y368808D02*
X566928Y393192D01*
X566300Y393700D01*
X566928Y368808D02*
X566300Y368300D01*
X566928Y342900D02*
X566928Y318516D01*
X566300Y317500D01*
X566300Y342900D02*
X566928Y342900D01*
X566928Y240792D02*
X566928Y224028D01*
X566928Y216408D01*
X566300Y215900D01*
X566928Y240792D02*
X566300Y241300D01*
X876300Y185928D02*
X902208Y185928D01*
X876300Y185928D02*
X868680Y178308D01*
X681228Y178308D01*
X670560Y188976D01*
X615696Y188976D01*
X576072Y224028D02*
X566928Y224028D01*
X566928Y242316D02*
X566928Y266700D01*
X566300Y266700D01*
X566928Y242316D02*
X566300Y241300D01*
D13*
X902208Y185928D03*
X615696Y188976D03*
X576072Y224028D03*
D12*
X528828Y266700D02*
X528828Y291084D01*
X528200Y292100D01*
X528828Y292608D02*
X528828Y316992D01*
X528200Y317500D01*
X528828Y292608D02*
X528200Y292100D01*
X528828Y342900D02*
X528828Y367284D01*
X528200Y368300D01*
X528828Y368808D02*
X528828Y393192D01*
X528200Y393700D01*
X528828Y368808D02*
X528200Y368300D01*
X528828Y342900D02*
X528828Y318516D01*
X528200Y317500D01*
X528200Y342900D02*
X528828Y342900D01*
X528828Y240792D02*
X528828Y216408D01*
X528200Y215900D01*
X528828Y240792D02*
X528200Y241300D01*
X534924Y149352D02*
X890016Y149352D01*
X534924Y149352D02*
X522732Y161544D01*
X522732Y210312D01*
X527304Y214884D01*
X528200Y215900D01*
X528828Y242316D02*
X528828Y266700D01*
X528200Y266700D01*
X528828Y242316D02*
X528200Y241300D01*
D13*
X890016Y149352D03*
D12*
X490728Y353568D02*
X490728Y367284D01*
X490728Y353568D02*
X490728Y342900D01*
X490100Y342900D01*
X490728Y367284D02*
X490100Y368300D01*
X490728Y368808D02*
X490728Y393192D01*
X490100Y393700D01*
X490728Y368808D02*
X490100Y368300D01*
X490728Y291084D02*
X490728Y281940D01*
X490728Y266700D01*
X490728Y291084D02*
X490100Y292100D01*
X490728Y310896D02*
X490728Y316992D01*
X490728Y310896D02*
X493776Y307848D01*
X493776Y295656D01*
X490728Y292608D01*
X490728Y316992D02*
X490100Y317500D01*
X490728Y292608D02*
X490100Y292100D01*
X490728Y240792D02*
X490728Y224028D01*
X490728Y216408D01*
X490100Y215900D01*
X490728Y240792D02*
X490100Y241300D01*
X897636Y147828D02*
X903732Y147828D01*
X897636Y147828D02*
X893064Y143256D01*
X522732Y143256D01*
X469392Y196596D01*
X469392Y222504D01*
X470916Y224028D01*
X490728Y224028D01*
X496824Y260604D02*
X490728Y266700D01*
X496824Y260604D02*
X496824Y248412D01*
X490728Y242316D01*
X490728Y266700D02*
X490100Y266700D01*
X490728Y242316D02*
X490100Y241300D01*
X490728Y353568D02*
X492252Y353568D01*
D13*
X903732Y147828D03*
X492252Y353568D03*
X490728Y281940D03*
M02*
