G04 EAGLE Gerber RS-274X export*
G75*
%MOMM*%
%FSLAX34Y34*%
%LPD*%
%INSilkscreen Top*%
%IPPOS*%
%AMOC8*
5,1,8,0,0,1.08239X$1,22.5*%
G01*
G04 Define Apertures*
%ADD10C,0.203200*%
%ADD11C,0.127000*%
%ADD12C,0.120000*%
%ADD13C,0.254000*%
%ADD14R,2.101209X0.301150*%
%ADD15C,0.200000*%
%ADD16C,0.152400*%
%ADD17C,0.254000*%
%ADD18C,0.200000*%
G36*
X629443Y188817D02*
X629098Y188829D01*
X628772Y188865D01*
X628466Y188926D01*
X628179Y189011D01*
X627911Y189120D01*
X627663Y189254D01*
X627434Y189411D01*
X627225Y189593D01*
X627038Y189797D01*
X626875Y190019D01*
X626738Y190261D01*
X626625Y190522D01*
X626538Y190801D01*
X626475Y191100D01*
X626438Y191418D01*
X626426Y191754D01*
X626448Y192190D01*
X626515Y192597D01*
X626627Y192973D01*
X626784Y193319D01*
X626984Y193631D01*
X627224Y193904D01*
X627505Y194138D01*
X627827Y194333D01*
X628184Y194486D01*
X628573Y194596D01*
X628992Y194661D01*
X629443Y194683D01*
X629748Y194673D01*
X630040Y194644D01*
X630318Y194595D01*
X630582Y194526D01*
X630832Y194437D01*
X631068Y194329D01*
X631290Y194201D01*
X631499Y194054D01*
X631690Y193889D01*
X631860Y193708D01*
X632010Y193513D01*
X632140Y193302D01*
X632248Y193075D01*
X632337Y192833D01*
X632404Y192576D01*
X632451Y192304D01*
X632697Y192397D01*
X632906Y192503D01*
X633079Y192622D01*
X633215Y192755D01*
X633318Y192904D01*
X633391Y193071D01*
X633435Y193257D01*
X633450Y193462D01*
X633436Y193698D01*
X633395Y193945D01*
X633958Y193945D01*
X634027Y193563D01*
X634050Y193198D01*
X634027Y192895D01*
X633960Y192620D01*
X633848Y192374D01*
X633691Y192155D01*
X633482Y191960D01*
X633212Y191783D01*
X632883Y191625D01*
X632493Y191486D01*
X632451Y191085D01*
X632367Y190712D01*
X632240Y190368D01*
X632071Y190053D01*
X631863Y189769D01*
X631617Y189522D01*
X631334Y189310D01*
X631014Y189134D01*
X630662Y188995D01*
X630282Y188896D01*
X629876Y188837D01*
X629443Y188817D01*
G37*
%LPC*%
G36*
X629443Y189631D02*
X629713Y189640D01*
X629970Y189666D01*
X630212Y189710D01*
X630440Y189771D01*
X630653Y189850D01*
X630852Y189946D01*
X631037Y190060D01*
X631207Y190191D01*
X631360Y190338D01*
X631493Y190498D01*
X631605Y190672D01*
X631696Y190860D01*
X631768Y191061D01*
X631819Y191276D01*
X631849Y191504D01*
X631860Y191746D01*
X631850Y191994D01*
X631820Y192228D01*
X631771Y192447D01*
X631702Y192651D01*
X631613Y192840D01*
X631504Y193014D01*
X631376Y193173D01*
X631228Y193317D01*
X631062Y193446D01*
X630880Y193557D01*
X630681Y193651D01*
X630466Y193728D01*
X630235Y193788D01*
X629987Y193831D01*
X629723Y193856D01*
X629443Y193865D01*
X629174Y193856D01*
X628920Y193830D01*
X628682Y193787D01*
X628458Y193727D01*
X628248Y193649D01*
X628054Y193555D01*
X627874Y193442D01*
X627710Y193313D01*
X627562Y193168D01*
X627434Y193009D01*
X627326Y192835D01*
X627237Y192648D01*
X627169Y192446D01*
X627119Y192229D01*
X627090Y191999D01*
X627080Y191754D01*
X627090Y191508D01*
X627119Y191275D01*
X627167Y191058D01*
X627235Y190854D01*
X627323Y190665D01*
X627429Y190491D01*
X627556Y190331D01*
X627701Y190185D01*
X627864Y190055D01*
X628043Y189943D01*
X628237Y189847D01*
X628447Y189769D01*
X628672Y189709D01*
X628914Y189666D01*
X629170Y189640D01*
X629443Y189631D01*
G37*
%LPD*%
G36*
X631087Y195295D02*
X630500Y195295D01*
X626514Y198001D01*
X626514Y198794D01*
X630492Y198794D01*
X630492Y199625D01*
X631087Y199625D01*
X631087Y198794D01*
X632426Y198794D01*
X632426Y198081D01*
X631087Y198081D01*
X631087Y195295D01*
G37*
%LPC*%
G36*
X630492Y195991D02*
X630492Y198081D01*
X627365Y198081D01*
X627588Y197963D01*
X627865Y197800D01*
X630097Y196285D01*
X630408Y196058D01*
X630492Y195991D01*
G37*
%LPD*%
G36*
X400176Y233400D02*
X392319Y233400D01*
X392319Y235073D01*
X400036Y235073D01*
X400445Y235086D01*
X400830Y235126D01*
X401189Y235193D01*
X401522Y235287D01*
X401830Y235408D01*
X402113Y235556D01*
X402370Y235730D01*
X402602Y235931D01*
X402807Y236158D01*
X402985Y236408D01*
X403135Y236682D01*
X403259Y236980D01*
X403354Y237302D01*
X403423Y237647D01*
X403464Y238017D01*
X403478Y238410D01*
X403463Y238814D01*
X403421Y239196D01*
X403350Y239554D01*
X403251Y239889D01*
X403124Y240201D01*
X402968Y240490D01*
X402784Y240755D01*
X402571Y240998D01*
X402331Y241214D01*
X402066Y241402D01*
X401774Y241561D01*
X401455Y241691D01*
X401111Y241792D01*
X400741Y241864D01*
X400344Y241907D01*
X399922Y241922D01*
X392319Y241922D01*
X392319Y243586D01*
X400018Y243586D01*
X400386Y243576D01*
X400741Y243546D01*
X401083Y243497D01*
X401413Y243427D01*
X401729Y243338D01*
X402033Y243229D01*
X402324Y243100D01*
X402602Y242951D01*
X402865Y242784D01*
X403113Y242601D01*
X403344Y242401D01*
X403560Y242185D01*
X403759Y241952D01*
X403943Y241703D01*
X404110Y241437D01*
X404262Y241156D01*
X404396Y240859D01*
X404513Y240549D01*
X404611Y240227D01*
X404692Y239891D01*
X404754Y239542D01*
X404799Y239181D01*
X404826Y238806D01*
X404835Y238418D01*
X404827Y238046D01*
X404801Y237685D01*
X404758Y237336D01*
X404697Y237000D01*
X404620Y236675D01*
X404525Y236362D01*
X404413Y236062D01*
X404283Y235773D01*
X404138Y235499D01*
X403976Y235240D01*
X403799Y234997D01*
X403607Y234771D01*
X403399Y234560D01*
X403175Y234364D01*
X402936Y234185D01*
X402681Y234022D01*
X402412Y233876D01*
X402130Y233750D01*
X401836Y233643D01*
X401529Y233555D01*
X401209Y233487D01*
X400877Y233439D01*
X400533Y233410D01*
X400176Y233400D01*
G37*
G36*
X404660Y246351D02*
X403320Y246351D01*
X403320Y249495D01*
X393826Y249495D01*
X395814Y246710D01*
X394325Y246710D01*
X392319Y249627D01*
X392319Y251081D01*
X403320Y251081D01*
X403320Y254085D01*
X404660Y254085D01*
X404660Y246351D01*
G37*
D10*
X661700Y200940D02*
X661700Y174180D01*
X633700Y174180D02*
X633700Y200940D01*
X646400Y166560D02*
X649000Y166560D01*
X649000Y208560D02*
X646400Y208560D01*
D11*
X639650Y187560D02*
X639652Y187758D01*
X639660Y187955D01*
X639672Y188152D01*
X639689Y188349D01*
X639711Y188545D01*
X639737Y188741D01*
X639769Y188936D01*
X639805Y189130D01*
X639846Y189324D01*
X639891Y189516D01*
X639942Y189707D01*
X639997Y189897D01*
X640056Y190085D01*
X640121Y190272D01*
X640189Y190457D01*
X640263Y190641D01*
X640341Y190822D01*
X640423Y191002D01*
X640510Y191179D01*
X640601Y191355D01*
X640696Y191528D01*
X640795Y191699D01*
X640899Y191867D01*
X641007Y192032D01*
X641118Y192195D01*
X641234Y192355D01*
X641354Y192513D01*
X641477Y192667D01*
X641604Y192818D01*
X641735Y192966D01*
X641870Y193111D01*
X642008Y193252D01*
X642149Y193390D01*
X642294Y193525D01*
X642442Y193656D01*
X642593Y193783D01*
X642747Y193906D01*
X642905Y194026D01*
X643065Y194142D01*
X643228Y194253D01*
X643393Y194361D01*
X643561Y194465D01*
X643732Y194564D01*
X643905Y194659D01*
X644081Y194750D01*
X644258Y194837D01*
X644438Y194919D01*
X644619Y194997D01*
X644803Y195071D01*
X644988Y195139D01*
X645175Y195204D01*
X645363Y195263D01*
X645553Y195318D01*
X645744Y195369D01*
X645936Y195414D01*
X646130Y195455D01*
X646324Y195491D01*
X646519Y195523D01*
X646715Y195549D01*
X646911Y195571D01*
X647108Y195588D01*
X647305Y195600D01*
X647502Y195608D01*
X647700Y195610D01*
X647898Y195608D01*
X648095Y195600D01*
X648292Y195588D01*
X648489Y195571D01*
X648685Y195549D01*
X648881Y195523D01*
X649076Y195491D01*
X649270Y195455D01*
X649464Y195414D01*
X649656Y195369D01*
X649847Y195318D01*
X650037Y195263D01*
X650225Y195204D01*
X650412Y195139D01*
X650597Y195071D01*
X650781Y194997D01*
X650962Y194919D01*
X651142Y194837D01*
X651319Y194750D01*
X651495Y194659D01*
X651668Y194564D01*
X651839Y194465D01*
X652007Y194361D01*
X652172Y194253D01*
X652335Y194142D01*
X652495Y194026D01*
X652653Y193906D01*
X652807Y193783D01*
X652958Y193656D01*
X653106Y193525D01*
X653251Y193390D01*
X653392Y193252D01*
X653530Y193111D01*
X653665Y192966D01*
X653796Y192818D01*
X653923Y192667D01*
X654046Y192513D01*
X654166Y192355D01*
X654282Y192195D01*
X654393Y192032D01*
X654501Y191867D01*
X654605Y191699D01*
X654704Y191528D01*
X654799Y191355D01*
X654890Y191179D01*
X654977Y191002D01*
X655059Y190822D01*
X655137Y190641D01*
X655211Y190457D01*
X655279Y190272D01*
X655344Y190085D01*
X655403Y189897D01*
X655458Y189707D01*
X655509Y189516D01*
X655554Y189324D01*
X655595Y189130D01*
X655631Y188936D01*
X655663Y188741D01*
X655689Y188545D01*
X655711Y188349D01*
X655728Y188152D01*
X655740Y187955D01*
X655748Y187758D01*
X655750Y187560D01*
X655748Y187362D01*
X655740Y187165D01*
X655728Y186968D01*
X655711Y186771D01*
X655689Y186575D01*
X655663Y186379D01*
X655631Y186184D01*
X655595Y185990D01*
X655554Y185796D01*
X655509Y185604D01*
X655458Y185413D01*
X655403Y185223D01*
X655344Y185035D01*
X655279Y184848D01*
X655211Y184663D01*
X655137Y184479D01*
X655059Y184298D01*
X654977Y184118D01*
X654890Y183941D01*
X654799Y183765D01*
X654704Y183592D01*
X654605Y183421D01*
X654501Y183253D01*
X654393Y183088D01*
X654282Y182925D01*
X654166Y182765D01*
X654046Y182607D01*
X653923Y182453D01*
X653796Y182302D01*
X653665Y182154D01*
X653530Y182009D01*
X653392Y181868D01*
X653251Y181730D01*
X653106Y181595D01*
X652958Y181464D01*
X652807Y181337D01*
X652653Y181214D01*
X652495Y181094D01*
X652335Y180978D01*
X652172Y180867D01*
X652007Y180759D01*
X651839Y180655D01*
X651668Y180556D01*
X651495Y180461D01*
X651319Y180370D01*
X651142Y180283D01*
X650962Y180201D01*
X650781Y180123D01*
X650597Y180049D01*
X650412Y179981D01*
X650225Y179916D01*
X650037Y179857D01*
X649847Y179802D01*
X649656Y179751D01*
X649464Y179706D01*
X649270Y179665D01*
X649076Y179629D01*
X648881Y179597D01*
X648685Y179571D01*
X648489Y179549D01*
X648292Y179532D01*
X648095Y179520D01*
X647898Y179512D01*
X647700Y179510D01*
X647502Y179512D01*
X647305Y179520D01*
X647108Y179532D01*
X646911Y179549D01*
X646715Y179571D01*
X646519Y179597D01*
X646324Y179629D01*
X646130Y179665D01*
X645936Y179706D01*
X645744Y179751D01*
X645553Y179802D01*
X645363Y179857D01*
X645175Y179916D01*
X644988Y179981D01*
X644803Y180049D01*
X644619Y180123D01*
X644438Y180201D01*
X644258Y180283D01*
X644081Y180370D01*
X643905Y180461D01*
X643732Y180556D01*
X643561Y180655D01*
X643393Y180759D01*
X643228Y180867D01*
X643065Y180978D01*
X642905Y181094D01*
X642747Y181214D01*
X642593Y181337D01*
X642442Y181464D01*
X642294Y181595D01*
X642149Y181730D01*
X642008Y181868D01*
X641870Y182009D01*
X641735Y182154D01*
X641604Y182302D01*
X641477Y182453D01*
X641354Y182607D01*
X641234Y182765D01*
X641118Y182925D01*
X641007Y183088D01*
X640899Y183253D01*
X640795Y183421D01*
X640696Y183592D01*
X640601Y183765D01*
X640510Y183941D01*
X640423Y184118D01*
X640341Y184298D01*
X640263Y184479D01*
X640189Y184663D01*
X640121Y184848D01*
X640056Y185035D01*
X639997Y185223D01*
X639942Y185413D01*
X639891Y185604D01*
X639846Y185796D01*
X639805Y185990D01*
X639769Y186184D01*
X639737Y186379D01*
X639711Y186575D01*
X639689Y186771D01*
X639672Y186968D01*
X639660Y187165D01*
X639652Y187362D01*
X639650Y187560D01*
X665720Y185558D02*
X665720Y184217D01*
X665719Y185558D02*
X665721Y185629D01*
X665727Y185701D01*
X665736Y185771D01*
X665749Y185841D01*
X665766Y185911D01*
X665787Y185979D01*
X665811Y186046D01*
X665839Y186112D01*
X665870Y186176D01*
X665905Y186239D01*
X665943Y186299D01*
X665984Y186358D01*
X666028Y186414D01*
X666075Y186468D01*
X666124Y186519D01*
X666177Y186567D01*
X666232Y186613D01*
X666289Y186655D01*
X666349Y186695D01*
X666410Y186731D01*
X666474Y186764D01*
X666539Y186793D01*
X666605Y186819D01*
X666673Y186842D01*
X666742Y186861D01*
X666812Y186876D01*
X666882Y186887D01*
X666953Y186895D01*
X667024Y186899D01*
X667096Y186899D01*
X667167Y186895D01*
X667238Y186887D01*
X667308Y186876D01*
X667378Y186861D01*
X667447Y186842D01*
X667515Y186819D01*
X667581Y186793D01*
X667646Y186764D01*
X667710Y186731D01*
X667771Y186695D01*
X667831Y186655D01*
X667888Y186613D01*
X667943Y186567D01*
X667996Y186519D01*
X668045Y186468D01*
X668092Y186414D01*
X668136Y186358D01*
X668177Y186299D01*
X668215Y186239D01*
X668250Y186176D01*
X668281Y186112D01*
X668309Y186046D01*
X668333Y185979D01*
X668354Y185911D01*
X668371Y185841D01*
X668384Y185771D01*
X668393Y185701D01*
X668399Y185629D01*
X668401Y185558D01*
X668401Y184217D01*
X663575Y184217D01*
X663575Y185558D01*
X663577Y185623D01*
X663583Y185687D01*
X663593Y185751D01*
X663606Y185815D01*
X663624Y185877D01*
X663645Y185938D01*
X663669Y185998D01*
X663698Y186056D01*
X663730Y186113D01*
X663765Y186167D01*
X663803Y186219D01*
X663845Y186269D01*
X663889Y186316D01*
X663936Y186360D01*
X663986Y186402D01*
X664038Y186440D01*
X664092Y186475D01*
X664149Y186507D01*
X664207Y186536D01*
X664267Y186560D01*
X664328Y186581D01*
X664390Y186599D01*
X664454Y186612D01*
X664518Y186622D01*
X664582Y186628D01*
X664647Y186630D01*
X664712Y186628D01*
X664776Y186622D01*
X664840Y186612D01*
X664904Y186599D01*
X664966Y186581D01*
X665027Y186560D01*
X665087Y186536D01*
X665145Y186507D01*
X665202Y186475D01*
X665256Y186440D01*
X665308Y186402D01*
X665358Y186360D01*
X665405Y186316D01*
X665449Y186269D01*
X665491Y186219D01*
X665529Y186167D01*
X665564Y186113D01*
X665596Y186056D01*
X665625Y185998D01*
X665649Y185938D01*
X665670Y185877D01*
X665688Y185815D01*
X665701Y185751D01*
X665711Y185687D01*
X665717Y185623D01*
X665719Y185558D01*
X664916Y189374D02*
X667060Y189374D01*
X664916Y189374D02*
X664845Y189376D01*
X664773Y189382D01*
X664703Y189391D01*
X664633Y189404D01*
X664563Y189421D01*
X664495Y189442D01*
X664428Y189466D01*
X664362Y189494D01*
X664298Y189525D01*
X664235Y189560D01*
X664175Y189598D01*
X664116Y189639D01*
X664060Y189683D01*
X664006Y189730D01*
X663955Y189779D01*
X663907Y189832D01*
X663861Y189887D01*
X663819Y189944D01*
X663779Y190004D01*
X663743Y190065D01*
X663710Y190129D01*
X663681Y190194D01*
X663655Y190260D01*
X663632Y190328D01*
X663613Y190397D01*
X663598Y190467D01*
X663587Y190537D01*
X663579Y190608D01*
X663575Y190679D01*
X663575Y190751D01*
X663579Y190822D01*
X663587Y190893D01*
X663598Y190963D01*
X663613Y191033D01*
X663632Y191102D01*
X663655Y191170D01*
X663681Y191236D01*
X663710Y191301D01*
X663743Y191365D01*
X663779Y191426D01*
X663819Y191486D01*
X663861Y191543D01*
X663907Y191598D01*
X663955Y191651D01*
X664006Y191700D01*
X664060Y191747D01*
X664116Y191791D01*
X664175Y191832D01*
X664235Y191870D01*
X664298Y191905D01*
X664362Y191936D01*
X664428Y191964D01*
X664495Y191988D01*
X664563Y192009D01*
X664633Y192026D01*
X664703Y192039D01*
X664773Y192048D01*
X664845Y192054D01*
X664916Y192056D01*
X667060Y192056D01*
X667131Y192054D01*
X667203Y192048D01*
X667273Y192039D01*
X667343Y192026D01*
X667413Y192009D01*
X667481Y191988D01*
X667548Y191964D01*
X667614Y191936D01*
X667678Y191905D01*
X667741Y191870D01*
X667801Y191832D01*
X667860Y191791D01*
X667916Y191747D01*
X667970Y191700D01*
X668021Y191651D01*
X668069Y191598D01*
X668115Y191543D01*
X668157Y191486D01*
X668197Y191426D01*
X668233Y191365D01*
X668266Y191301D01*
X668295Y191236D01*
X668321Y191170D01*
X668344Y191102D01*
X668363Y191033D01*
X668378Y190963D01*
X668389Y190893D01*
X668397Y190822D01*
X668401Y190751D01*
X668401Y190679D01*
X668397Y190608D01*
X668389Y190537D01*
X668378Y190467D01*
X668363Y190397D01*
X668344Y190328D01*
X668321Y190260D01*
X668295Y190194D01*
X668266Y190129D01*
X668233Y190065D01*
X668197Y190004D01*
X668157Y189944D01*
X668115Y189887D01*
X668069Y189832D01*
X668021Y189779D01*
X667970Y189730D01*
X667916Y189683D01*
X667860Y189639D01*
X667801Y189598D01*
X667741Y189560D01*
X667678Y189525D01*
X667614Y189494D01*
X667548Y189466D01*
X667481Y189442D01*
X667413Y189421D01*
X667343Y189404D01*
X667273Y189391D01*
X667203Y189382D01*
X667131Y189376D01*
X667060Y189374D01*
X667060Y194861D02*
X664916Y194861D01*
X664916Y194860D02*
X664845Y194862D01*
X664773Y194868D01*
X664703Y194877D01*
X664633Y194890D01*
X664563Y194907D01*
X664495Y194928D01*
X664428Y194952D01*
X664362Y194980D01*
X664298Y195011D01*
X664235Y195046D01*
X664175Y195084D01*
X664116Y195125D01*
X664060Y195169D01*
X664006Y195216D01*
X663955Y195265D01*
X663907Y195318D01*
X663861Y195373D01*
X663819Y195430D01*
X663779Y195490D01*
X663743Y195551D01*
X663710Y195615D01*
X663681Y195680D01*
X663655Y195746D01*
X663632Y195814D01*
X663613Y195883D01*
X663598Y195953D01*
X663587Y196023D01*
X663579Y196094D01*
X663575Y196165D01*
X663575Y196237D01*
X663579Y196308D01*
X663587Y196379D01*
X663598Y196449D01*
X663613Y196519D01*
X663632Y196588D01*
X663655Y196656D01*
X663681Y196722D01*
X663710Y196787D01*
X663743Y196851D01*
X663779Y196912D01*
X663819Y196972D01*
X663861Y197029D01*
X663907Y197084D01*
X663955Y197137D01*
X664006Y197186D01*
X664060Y197233D01*
X664116Y197277D01*
X664175Y197318D01*
X664235Y197356D01*
X664298Y197391D01*
X664362Y197422D01*
X664428Y197450D01*
X664495Y197474D01*
X664563Y197495D01*
X664633Y197512D01*
X664703Y197525D01*
X664773Y197534D01*
X664845Y197540D01*
X664916Y197542D01*
X667060Y197542D01*
X667131Y197540D01*
X667203Y197534D01*
X667273Y197525D01*
X667343Y197512D01*
X667413Y197495D01*
X667481Y197474D01*
X667548Y197450D01*
X667614Y197422D01*
X667678Y197391D01*
X667741Y197356D01*
X667801Y197318D01*
X667860Y197277D01*
X667916Y197233D01*
X667970Y197186D01*
X668021Y197137D01*
X668069Y197084D01*
X668115Y197029D01*
X668157Y196972D01*
X668197Y196912D01*
X668233Y196851D01*
X668266Y196787D01*
X668295Y196722D01*
X668321Y196656D01*
X668344Y196588D01*
X668363Y196519D01*
X668378Y196449D01*
X668389Y196379D01*
X668397Y196308D01*
X668401Y196237D01*
X668401Y196165D01*
X668397Y196094D01*
X668389Y196023D01*
X668378Y195953D01*
X668363Y195883D01*
X668344Y195814D01*
X668321Y195746D01*
X668295Y195680D01*
X668266Y195615D01*
X668233Y195551D01*
X668197Y195490D01*
X668157Y195430D01*
X668115Y195373D01*
X668069Y195318D01*
X668021Y195265D01*
X667970Y195216D01*
X667916Y195169D01*
X667860Y195125D01*
X667801Y195084D01*
X667741Y195046D01*
X667678Y195011D01*
X667614Y194980D01*
X667548Y194952D01*
X667481Y194928D01*
X667413Y194907D01*
X667343Y194890D01*
X667273Y194877D01*
X667203Y194868D01*
X667131Y194862D01*
X667060Y194860D01*
X668401Y201322D02*
X663575Y201322D01*
X663575Y199981D02*
X663575Y202663D01*
X794730Y251759D02*
X805730Y251759D01*
X805730Y264331D02*
X794730Y264331D01*
X783100Y357833D02*
X817100Y357833D01*
D12*
X817100Y391267D02*
X783100Y391267D01*
D11*
X960491Y368120D02*
X960491Y350620D01*
X944509Y350620D02*
X944509Y368120D01*
X944509Y326250D02*
X944509Y308750D01*
X960491Y308750D02*
X960491Y326250D01*
X791417Y334500D02*
X791417Y300500D01*
D12*
X757983Y300500D02*
X757983Y334500D01*
D11*
X884291Y338125D02*
X884291Y320625D01*
X868309Y320625D02*
X868309Y338125D01*
X858891Y338125D02*
X858891Y320625D01*
X842909Y320625D02*
X842909Y338125D01*
X1072480Y271101D02*
X1072480Y253601D01*
X1056498Y253601D02*
X1056498Y271101D01*
X734900Y488181D02*
X712900Y488181D01*
X712900Y467247D02*
X734900Y467247D01*
X722200Y281633D02*
X700200Y281633D01*
X700200Y302567D02*
X722200Y302567D01*
X719950Y347609D02*
X702450Y347609D01*
X702450Y363591D02*
X719950Y363591D01*
X722200Y311437D02*
X700200Y311437D01*
X700200Y332371D02*
X722200Y332371D01*
X960491Y449150D02*
X960491Y466650D01*
X944509Y466650D02*
X944509Y449150D01*
X1022792Y471894D02*
X1022792Y482894D01*
X1010220Y482894D02*
X1010220Y471894D01*
X716700Y222186D02*
X705700Y222186D01*
X705700Y209614D02*
X716700Y209614D01*
X854850Y428643D02*
X872350Y428643D01*
X872350Y412661D02*
X854850Y412661D01*
D13*
X694688Y453040D02*
X687188Y463540D01*
X680188Y453040D02*
X694688Y453040D01*
X687188Y463540D02*
X680188Y453040D01*
D14*
X687182Y464046D03*
D11*
X698618Y480940D02*
X698620Y481011D01*
X698626Y481082D01*
X698636Y481153D01*
X698650Y481223D01*
X698668Y481292D01*
X698689Y481359D01*
X698715Y481426D01*
X698744Y481491D01*
X698776Y481554D01*
X698813Y481616D01*
X698852Y481675D01*
X698895Y481732D01*
X698941Y481786D01*
X698990Y481838D01*
X699042Y481887D01*
X699096Y481933D01*
X699153Y481976D01*
X699212Y482015D01*
X699274Y482052D01*
X699337Y482084D01*
X699402Y482113D01*
X699469Y482139D01*
X699536Y482160D01*
X699605Y482178D01*
X699675Y482192D01*
X699746Y482202D01*
X699817Y482208D01*
X699888Y482210D01*
X699959Y482208D01*
X700030Y482202D01*
X700101Y482192D01*
X700171Y482178D01*
X700240Y482160D01*
X700307Y482139D01*
X700374Y482113D01*
X700439Y482084D01*
X700502Y482052D01*
X700564Y482015D01*
X700623Y481976D01*
X700680Y481933D01*
X700734Y481887D01*
X700786Y481838D01*
X700835Y481786D01*
X700881Y481732D01*
X700924Y481675D01*
X700963Y481616D01*
X701000Y481554D01*
X701032Y481491D01*
X701061Y481426D01*
X701087Y481359D01*
X701108Y481292D01*
X701126Y481223D01*
X701140Y481153D01*
X701150Y481082D01*
X701156Y481011D01*
X701158Y480940D01*
X701156Y480869D01*
X701150Y480798D01*
X701140Y480727D01*
X701126Y480657D01*
X701108Y480588D01*
X701087Y480521D01*
X701061Y480454D01*
X701032Y480389D01*
X701000Y480326D01*
X700963Y480264D01*
X700924Y480205D01*
X700881Y480148D01*
X700835Y480094D01*
X700786Y480042D01*
X700734Y479993D01*
X700680Y479947D01*
X700623Y479904D01*
X700564Y479865D01*
X700502Y479828D01*
X700439Y479796D01*
X700374Y479767D01*
X700307Y479741D01*
X700240Y479720D01*
X700171Y479702D01*
X700101Y479688D01*
X700030Y479678D01*
X699959Y479672D01*
X699888Y479670D01*
X699817Y479672D01*
X699746Y479678D01*
X699675Y479688D01*
X699605Y479702D01*
X699536Y479720D01*
X699469Y479741D01*
X699402Y479767D01*
X699337Y479796D01*
X699274Y479828D01*
X699212Y479865D01*
X699153Y479904D01*
X699096Y479947D01*
X699042Y479993D01*
X698990Y480042D01*
X698941Y480094D01*
X698895Y480148D01*
X698852Y480205D01*
X698813Y480264D01*
X698776Y480326D01*
X698744Y480389D01*
X698715Y480454D01*
X698689Y480521D01*
X698668Y480588D01*
X698650Y480657D01*
X698636Y480727D01*
X698626Y480798D01*
X698620Y480869D01*
X698618Y480940D01*
D12*
X1010999Y457599D02*
X1010999Y436500D01*
X1010999Y457599D02*
X995601Y457599D01*
X995601Y436500D01*
D11*
X825240Y483040D02*
X768240Y483040D01*
X756740Y463290D02*
X756740Y454040D01*
X765240Y454040D01*
X836740Y454040D02*
X836740Y463290D01*
X836740Y454040D02*
X828240Y454040D01*
D15*
X761740Y446790D02*
X761742Y446853D01*
X761748Y446915D01*
X761758Y446977D01*
X761771Y447039D01*
X761789Y447099D01*
X761810Y447158D01*
X761835Y447216D01*
X761864Y447272D01*
X761896Y447326D01*
X761931Y447378D01*
X761969Y447427D01*
X762011Y447475D01*
X762055Y447519D01*
X762103Y447561D01*
X762152Y447599D01*
X762204Y447634D01*
X762258Y447666D01*
X762314Y447695D01*
X762372Y447720D01*
X762431Y447741D01*
X762491Y447759D01*
X762553Y447772D01*
X762615Y447782D01*
X762677Y447788D01*
X762740Y447790D01*
X762803Y447788D01*
X762865Y447782D01*
X762927Y447772D01*
X762989Y447759D01*
X763049Y447741D01*
X763108Y447720D01*
X763166Y447695D01*
X763222Y447666D01*
X763276Y447634D01*
X763328Y447599D01*
X763377Y447561D01*
X763425Y447519D01*
X763469Y447475D01*
X763511Y447427D01*
X763549Y447378D01*
X763584Y447326D01*
X763616Y447272D01*
X763645Y447216D01*
X763670Y447158D01*
X763691Y447099D01*
X763709Y447039D01*
X763722Y446977D01*
X763732Y446915D01*
X763738Y446853D01*
X763740Y446790D01*
X763738Y446727D01*
X763732Y446665D01*
X763722Y446603D01*
X763709Y446541D01*
X763691Y446481D01*
X763670Y446422D01*
X763645Y446364D01*
X763616Y446308D01*
X763584Y446254D01*
X763549Y446202D01*
X763511Y446153D01*
X763469Y446105D01*
X763425Y446061D01*
X763377Y446019D01*
X763328Y445981D01*
X763276Y445946D01*
X763222Y445914D01*
X763166Y445885D01*
X763108Y445860D01*
X763049Y445839D01*
X762989Y445821D01*
X762927Y445808D01*
X762865Y445798D01*
X762803Y445792D01*
X762740Y445790D01*
X762677Y445792D01*
X762615Y445798D01*
X762553Y445808D01*
X762491Y445821D01*
X762431Y445839D01*
X762372Y445860D01*
X762314Y445885D01*
X762258Y445914D01*
X762204Y445946D01*
X762152Y445981D01*
X762103Y446019D01*
X762055Y446061D01*
X762011Y446105D01*
X761969Y446153D01*
X761931Y446202D01*
X761896Y446254D01*
X761864Y446308D01*
X761835Y446364D01*
X761810Y446422D01*
X761789Y446481D01*
X761771Y446541D01*
X761758Y446603D01*
X761748Y446665D01*
X761742Y446727D01*
X761740Y446790D01*
D11*
X859000Y454040D02*
X859000Y462790D01*
X859000Y454040D02*
X867000Y454040D01*
X919000Y454040D02*
X919000Y462790D01*
X919000Y454040D02*
X911000Y454040D01*
X906000Y483040D02*
X872000Y483040D01*
D15*
X863000Y449790D02*
X863002Y449853D01*
X863008Y449915D01*
X863018Y449977D01*
X863031Y450039D01*
X863049Y450099D01*
X863070Y450158D01*
X863095Y450216D01*
X863124Y450272D01*
X863156Y450326D01*
X863191Y450378D01*
X863229Y450427D01*
X863271Y450475D01*
X863315Y450519D01*
X863363Y450561D01*
X863412Y450599D01*
X863464Y450634D01*
X863518Y450666D01*
X863574Y450695D01*
X863632Y450720D01*
X863691Y450741D01*
X863751Y450759D01*
X863813Y450772D01*
X863875Y450782D01*
X863937Y450788D01*
X864000Y450790D01*
X864063Y450788D01*
X864125Y450782D01*
X864187Y450772D01*
X864249Y450759D01*
X864309Y450741D01*
X864368Y450720D01*
X864426Y450695D01*
X864482Y450666D01*
X864536Y450634D01*
X864588Y450599D01*
X864637Y450561D01*
X864685Y450519D01*
X864729Y450475D01*
X864771Y450427D01*
X864809Y450378D01*
X864844Y450326D01*
X864876Y450272D01*
X864905Y450216D01*
X864930Y450158D01*
X864951Y450099D01*
X864969Y450039D01*
X864982Y449977D01*
X864992Y449915D01*
X864998Y449853D01*
X865000Y449790D01*
X864998Y449727D01*
X864992Y449665D01*
X864982Y449603D01*
X864969Y449541D01*
X864951Y449481D01*
X864930Y449422D01*
X864905Y449364D01*
X864876Y449308D01*
X864844Y449254D01*
X864809Y449202D01*
X864771Y449153D01*
X864729Y449105D01*
X864685Y449061D01*
X864637Y449019D01*
X864588Y448981D01*
X864536Y448946D01*
X864482Y448914D01*
X864426Y448885D01*
X864368Y448860D01*
X864309Y448839D01*
X864249Y448821D01*
X864187Y448808D01*
X864125Y448798D01*
X864063Y448792D01*
X864000Y448790D01*
X863937Y448792D01*
X863875Y448798D01*
X863813Y448808D01*
X863751Y448821D01*
X863691Y448839D01*
X863632Y448860D01*
X863574Y448885D01*
X863518Y448914D01*
X863464Y448946D01*
X863412Y448981D01*
X863363Y449019D01*
X863315Y449061D01*
X863271Y449105D01*
X863229Y449153D01*
X863191Y449202D01*
X863156Y449254D01*
X863124Y449308D01*
X863095Y449364D01*
X863070Y449422D01*
X863049Y449481D01*
X863031Y449541D01*
X863018Y449603D01*
X863008Y449665D01*
X863002Y449727D01*
X863000Y449790D01*
D16*
X611400Y438400D02*
X537400Y438400D01*
X611400Y438400D02*
X611400Y495900D01*
X537400Y495900D02*
X537400Y438400D01*
X537400Y495900D02*
X611400Y495900D01*
D12*
X858450Y372579D02*
X881450Y372579D01*
X881450Y354195D02*
X858450Y354195D01*
D10*
X936570Y390840D02*
X936570Y396840D01*
X936570Y390840D02*
X944570Y390840D01*
X936570Y412840D02*
X936570Y418840D01*
X944570Y418840D01*
D11*
X893691Y426246D02*
X893691Y409246D01*
X909709Y409246D02*
X909709Y426246D01*
X817491Y337875D02*
X817491Y320875D01*
X833509Y320875D02*
X833509Y337875D01*
X905900Y355378D02*
X922900Y355378D01*
X922900Y371396D02*
X905900Y371396D01*
X905485Y315841D02*
X922485Y315841D01*
X922485Y331859D02*
X905485Y331859D01*
X565140Y208700D02*
X565140Y197700D01*
X577860Y197700D02*
X577860Y208700D01*
X958180Y160900D02*
X958180Y143900D01*
X942162Y143900D02*
X942162Y160900D01*
X959521Y160900D02*
X959521Y143900D01*
X975539Y143900D02*
X975539Y160900D01*
X744480Y416291D02*
X727480Y416291D01*
X727480Y432309D02*
X744480Y432309D01*
X732400Y452509D02*
X715400Y452509D01*
X715400Y436491D02*
X732400Y436491D01*
X947000Y488180D02*
X958000Y488180D01*
X958000Y475460D02*
X947000Y475460D01*
X969891Y453000D02*
X969891Y436000D01*
X985909Y436000D02*
X985909Y453000D01*
X576950Y177790D02*
X565950Y177790D01*
X565950Y190510D02*
X576950Y190510D01*
X576950Y159420D02*
X565950Y159420D01*
X565950Y172140D02*
X576950Y172140D01*
X855591Y386970D02*
X855591Y403970D01*
X871609Y403970D02*
X871609Y386970D01*
D10*
X481300Y200940D02*
X481300Y174180D01*
X509300Y174180D02*
X509300Y200940D01*
X496600Y208560D02*
X494000Y208560D01*
X494000Y166560D02*
X496600Y166560D01*
D11*
X487250Y187560D02*
X487252Y187758D01*
X487260Y187955D01*
X487272Y188152D01*
X487289Y188349D01*
X487311Y188545D01*
X487337Y188741D01*
X487369Y188936D01*
X487405Y189130D01*
X487446Y189324D01*
X487491Y189516D01*
X487542Y189707D01*
X487597Y189897D01*
X487656Y190085D01*
X487721Y190272D01*
X487789Y190457D01*
X487863Y190641D01*
X487941Y190822D01*
X488023Y191002D01*
X488110Y191179D01*
X488201Y191355D01*
X488296Y191528D01*
X488395Y191699D01*
X488499Y191867D01*
X488607Y192032D01*
X488718Y192195D01*
X488834Y192355D01*
X488954Y192513D01*
X489077Y192667D01*
X489204Y192818D01*
X489335Y192966D01*
X489470Y193111D01*
X489608Y193252D01*
X489749Y193390D01*
X489894Y193525D01*
X490042Y193656D01*
X490193Y193783D01*
X490347Y193906D01*
X490505Y194026D01*
X490665Y194142D01*
X490828Y194253D01*
X490993Y194361D01*
X491161Y194465D01*
X491332Y194564D01*
X491505Y194659D01*
X491681Y194750D01*
X491858Y194837D01*
X492038Y194919D01*
X492219Y194997D01*
X492403Y195071D01*
X492588Y195139D01*
X492775Y195204D01*
X492963Y195263D01*
X493153Y195318D01*
X493344Y195369D01*
X493536Y195414D01*
X493730Y195455D01*
X493924Y195491D01*
X494119Y195523D01*
X494315Y195549D01*
X494511Y195571D01*
X494708Y195588D01*
X494905Y195600D01*
X495102Y195608D01*
X495300Y195610D01*
X495498Y195608D01*
X495695Y195600D01*
X495892Y195588D01*
X496089Y195571D01*
X496285Y195549D01*
X496481Y195523D01*
X496676Y195491D01*
X496870Y195455D01*
X497064Y195414D01*
X497256Y195369D01*
X497447Y195318D01*
X497637Y195263D01*
X497825Y195204D01*
X498012Y195139D01*
X498197Y195071D01*
X498381Y194997D01*
X498562Y194919D01*
X498742Y194837D01*
X498919Y194750D01*
X499095Y194659D01*
X499268Y194564D01*
X499439Y194465D01*
X499607Y194361D01*
X499772Y194253D01*
X499935Y194142D01*
X500095Y194026D01*
X500253Y193906D01*
X500407Y193783D01*
X500558Y193656D01*
X500706Y193525D01*
X500851Y193390D01*
X500992Y193252D01*
X501130Y193111D01*
X501265Y192966D01*
X501396Y192818D01*
X501523Y192667D01*
X501646Y192513D01*
X501766Y192355D01*
X501882Y192195D01*
X501993Y192032D01*
X502101Y191867D01*
X502205Y191699D01*
X502304Y191528D01*
X502399Y191355D01*
X502490Y191179D01*
X502577Y191002D01*
X502659Y190822D01*
X502737Y190641D01*
X502811Y190457D01*
X502879Y190272D01*
X502944Y190085D01*
X503003Y189897D01*
X503058Y189707D01*
X503109Y189516D01*
X503154Y189324D01*
X503195Y189130D01*
X503231Y188936D01*
X503263Y188741D01*
X503289Y188545D01*
X503311Y188349D01*
X503328Y188152D01*
X503340Y187955D01*
X503348Y187758D01*
X503350Y187560D01*
X503348Y187362D01*
X503340Y187165D01*
X503328Y186968D01*
X503311Y186771D01*
X503289Y186575D01*
X503263Y186379D01*
X503231Y186184D01*
X503195Y185990D01*
X503154Y185796D01*
X503109Y185604D01*
X503058Y185413D01*
X503003Y185223D01*
X502944Y185035D01*
X502879Y184848D01*
X502811Y184663D01*
X502737Y184479D01*
X502659Y184298D01*
X502577Y184118D01*
X502490Y183941D01*
X502399Y183765D01*
X502304Y183592D01*
X502205Y183421D01*
X502101Y183253D01*
X501993Y183088D01*
X501882Y182925D01*
X501766Y182765D01*
X501646Y182607D01*
X501523Y182453D01*
X501396Y182302D01*
X501265Y182154D01*
X501130Y182009D01*
X500992Y181868D01*
X500851Y181730D01*
X500706Y181595D01*
X500558Y181464D01*
X500407Y181337D01*
X500253Y181214D01*
X500095Y181094D01*
X499935Y180978D01*
X499772Y180867D01*
X499607Y180759D01*
X499439Y180655D01*
X499268Y180556D01*
X499095Y180461D01*
X498919Y180370D01*
X498742Y180283D01*
X498562Y180201D01*
X498381Y180123D01*
X498197Y180049D01*
X498012Y179981D01*
X497825Y179916D01*
X497637Y179857D01*
X497447Y179802D01*
X497256Y179751D01*
X497064Y179706D01*
X496870Y179665D01*
X496676Y179629D01*
X496481Y179597D01*
X496285Y179571D01*
X496089Y179549D01*
X495892Y179532D01*
X495695Y179520D01*
X495498Y179512D01*
X495300Y179510D01*
X495102Y179512D01*
X494905Y179520D01*
X494708Y179532D01*
X494511Y179549D01*
X494315Y179571D01*
X494119Y179597D01*
X493924Y179629D01*
X493730Y179665D01*
X493536Y179706D01*
X493344Y179751D01*
X493153Y179802D01*
X492963Y179857D01*
X492775Y179916D01*
X492588Y179981D01*
X492403Y180049D01*
X492219Y180123D01*
X492038Y180201D01*
X491858Y180283D01*
X491681Y180370D01*
X491505Y180461D01*
X491332Y180556D01*
X491161Y180655D01*
X490993Y180759D01*
X490828Y180867D01*
X490665Y180978D01*
X490505Y181094D01*
X490347Y181214D01*
X490193Y181337D01*
X490042Y181464D01*
X489894Y181595D01*
X489749Y181730D01*
X489608Y181868D01*
X489470Y182009D01*
X489335Y182154D01*
X489204Y182302D01*
X489077Y182453D01*
X488954Y182607D01*
X488834Y182765D01*
X488718Y182925D01*
X488607Y183088D01*
X488499Y183253D01*
X488395Y183421D01*
X488296Y183592D01*
X488201Y183765D01*
X488110Y183941D01*
X488023Y184118D01*
X487941Y184298D01*
X487863Y184479D01*
X487789Y184663D01*
X487721Y184848D01*
X487656Y185035D01*
X487597Y185223D01*
X487542Y185413D01*
X487491Y185604D01*
X487446Y185796D01*
X487405Y185990D01*
X487369Y186184D01*
X487337Y186379D01*
X487311Y186575D01*
X487289Y186771D01*
X487272Y186968D01*
X487260Y187165D01*
X487252Y187362D01*
X487250Y187560D01*
X477901Y176376D02*
X473075Y176376D01*
X473075Y177716D01*
X473077Y177787D01*
X473083Y177859D01*
X473092Y177929D01*
X473105Y177999D01*
X473122Y178069D01*
X473143Y178137D01*
X473167Y178204D01*
X473195Y178270D01*
X473226Y178334D01*
X473261Y178397D01*
X473299Y178457D01*
X473340Y178516D01*
X473384Y178572D01*
X473431Y178626D01*
X473480Y178677D01*
X473533Y178725D01*
X473588Y178771D01*
X473645Y178813D01*
X473705Y178853D01*
X473766Y178889D01*
X473830Y178922D01*
X473895Y178951D01*
X473961Y178977D01*
X474029Y179000D01*
X474098Y179019D01*
X474168Y179034D01*
X474238Y179045D01*
X474309Y179053D01*
X474380Y179057D01*
X474452Y179057D01*
X474523Y179053D01*
X474594Y179045D01*
X474664Y179034D01*
X474734Y179019D01*
X474803Y179000D01*
X474871Y178977D01*
X474937Y178951D01*
X475002Y178922D01*
X475066Y178889D01*
X475127Y178853D01*
X475187Y178813D01*
X475244Y178771D01*
X475299Y178725D01*
X475352Y178677D01*
X475401Y178626D01*
X475448Y178572D01*
X475492Y178516D01*
X475533Y178457D01*
X475571Y178397D01*
X475606Y178334D01*
X475637Y178270D01*
X475665Y178204D01*
X475689Y178137D01*
X475710Y178069D01*
X475727Y177999D01*
X475740Y177929D01*
X475749Y177859D01*
X475755Y177787D01*
X475757Y177716D01*
X475756Y177716D02*
X475756Y176376D01*
X475756Y177985D02*
X477901Y179057D01*
X477901Y182001D02*
X477901Y184146D01*
X477901Y182001D02*
X473075Y182001D01*
X473075Y184146D01*
X475220Y183610D02*
X475220Y182001D01*
X477901Y187979D02*
X477899Y188044D01*
X477893Y188108D01*
X477883Y188172D01*
X477870Y188236D01*
X477852Y188298D01*
X477831Y188359D01*
X477807Y188419D01*
X477778Y188477D01*
X477746Y188534D01*
X477711Y188588D01*
X477673Y188640D01*
X477631Y188690D01*
X477587Y188737D01*
X477540Y188781D01*
X477490Y188823D01*
X477438Y188861D01*
X477384Y188896D01*
X477327Y188928D01*
X477269Y188957D01*
X477209Y188981D01*
X477148Y189002D01*
X477086Y189020D01*
X477022Y189033D01*
X476958Y189043D01*
X476894Y189049D01*
X476829Y189051D01*
X477901Y187979D02*
X477899Y187885D01*
X477893Y187791D01*
X477883Y187697D01*
X477870Y187604D01*
X477852Y187512D01*
X477831Y187420D01*
X477806Y187329D01*
X477777Y187239D01*
X477744Y187151D01*
X477708Y187064D01*
X477668Y186979D01*
X477625Y186895D01*
X477578Y186814D01*
X477528Y186734D01*
X477475Y186656D01*
X477418Y186581D01*
X477359Y186508D01*
X477296Y186438D01*
X477231Y186370D01*
X474147Y186505D02*
X474082Y186507D01*
X474018Y186513D01*
X473954Y186523D01*
X473890Y186536D01*
X473828Y186554D01*
X473767Y186575D01*
X473707Y186599D01*
X473649Y186628D01*
X473592Y186660D01*
X473538Y186695D01*
X473486Y186733D01*
X473436Y186775D01*
X473389Y186819D01*
X473345Y186866D01*
X473303Y186916D01*
X473265Y186968D01*
X473230Y187022D01*
X473198Y187079D01*
X473169Y187137D01*
X473145Y187197D01*
X473124Y187258D01*
X473106Y187320D01*
X473093Y187384D01*
X473083Y187448D01*
X473077Y187512D01*
X473075Y187577D01*
X473077Y187663D01*
X473082Y187749D01*
X473092Y187835D01*
X473105Y187920D01*
X473121Y188005D01*
X473141Y188089D01*
X473165Y188172D01*
X473192Y188254D01*
X473223Y188334D01*
X473257Y188414D01*
X473295Y188491D01*
X473336Y188567D01*
X473380Y188641D01*
X473427Y188714D01*
X473477Y188784D01*
X475085Y187041D02*
X475052Y186988D01*
X475015Y186937D01*
X474976Y186888D01*
X474934Y186841D01*
X474889Y186797D01*
X474842Y186756D01*
X474793Y186717D01*
X474741Y186681D01*
X474687Y186648D01*
X474632Y186619D01*
X474575Y186593D01*
X474516Y186570D01*
X474457Y186550D01*
X474396Y186534D01*
X474335Y186521D01*
X474272Y186512D01*
X474210Y186507D01*
X474147Y186505D01*
X475891Y188515D02*
X475924Y188568D01*
X475961Y188619D01*
X476000Y188668D01*
X476042Y188715D01*
X476087Y188759D01*
X476134Y188800D01*
X476183Y188839D01*
X476235Y188875D01*
X476289Y188908D01*
X476344Y188937D01*
X476401Y188963D01*
X476460Y188986D01*
X476519Y189006D01*
X476580Y189022D01*
X476641Y189035D01*
X476704Y189044D01*
X476766Y189049D01*
X476829Y189051D01*
X475890Y188515D02*
X475086Y187041D01*
X477901Y191876D02*
X477901Y194021D01*
X477901Y191876D02*
X473075Y191876D01*
X473075Y194021D01*
X475220Y193485D02*
X475220Y191876D01*
X473075Y197404D02*
X477901Y197404D01*
X473075Y196063D02*
X473075Y198744D01*
X699865Y237950D02*
X699867Y238003D01*
X699873Y238055D01*
X699883Y238107D01*
X699896Y238158D01*
X699914Y238208D01*
X699935Y238257D01*
X699960Y238304D01*
X699988Y238348D01*
X700019Y238391D01*
X700054Y238431D01*
X700091Y238468D01*
X700131Y238503D01*
X700174Y238534D01*
X700219Y238562D01*
X700265Y238587D01*
X700314Y238608D01*
X700364Y238626D01*
X700415Y238639D01*
X700467Y238649D01*
X700519Y238655D01*
X700572Y238657D01*
X700625Y238655D01*
X700677Y238649D01*
X700729Y238639D01*
X700780Y238626D01*
X700830Y238608D01*
X700879Y238587D01*
X700926Y238562D01*
X700970Y238534D01*
X701013Y238503D01*
X701053Y238468D01*
X701090Y238431D01*
X701125Y238391D01*
X701156Y238348D01*
X701184Y238303D01*
X701209Y238257D01*
X701230Y238208D01*
X701248Y238158D01*
X701261Y238107D01*
X701271Y238055D01*
X701277Y238003D01*
X701279Y237950D01*
X701277Y237897D01*
X701271Y237845D01*
X701261Y237793D01*
X701248Y237742D01*
X701230Y237692D01*
X701209Y237643D01*
X701184Y237596D01*
X701156Y237552D01*
X701125Y237509D01*
X701090Y237469D01*
X701053Y237432D01*
X701013Y237397D01*
X700970Y237366D01*
X700925Y237338D01*
X700879Y237313D01*
X700830Y237292D01*
X700780Y237274D01*
X700729Y237261D01*
X700677Y237251D01*
X700625Y237245D01*
X700572Y237243D01*
X700519Y237245D01*
X700467Y237251D01*
X700415Y237261D01*
X700364Y237274D01*
X700314Y237292D01*
X700265Y237313D01*
X700218Y237338D01*
X700174Y237366D01*
X700131Y237397D01*
X700091Y237432D01*
X700054Y237469D01*
X700019Y237509D01*
X699988Y237552D01*
X699960Y237597D01*
X699935Y237643D01*
X699914Y237692D01*
X699896Y237742D01*
X699883Y237793D01*
X699873Y237845D01*
X699867Y237897D01*
X699865Y237950D01*
X699867Y238003D01*
X699873Y238055D01*
X699883Y238107D01*
X699896Y238158D01*
X699914Y238208D01*
X699935Y238257D01*
X699960Y238304D01*
X699988Y238348D01*
X700019Y238391D01*
X700054Y238431D01*
X700091Y238468D01*
X700131Y238503D01*
X700174Y238534D01*
X700219Y238562D01*
X700265Y238587D01*
X700314Y238608D01*
X700364Y238626D01*
X700415Y238639D01*
X700467Y238649D01*
X700519Y238655D01*
X700572Y238657D01*
X700625Y238655D01*
X700677Y238649D01*
X700729Y238639D01*
X700780Y238626D01*
X700830Y238608D01*
X700879Y238587D01*
X700926Y238562D01*
X700970Y238534D01*
X701013Y238503D01*
X701053Y238468D01*
X701090Y238431D01*
X701125Y238391D01*
X701156Y238348D01*
X701184Y238303D01*
X701209Y238257D01*
X701230Y238208D01*
X701248Y238158D01*
X701261Y238107D01*
X701271Y238055D01*
X701277Y238003D01*
X701279Y237950D01*
X701277Y237897D01*
X701271Y237845D01*
X701261Y237793D01*
X701248Y237742D01*
X701230Y237692D01*
X701209Y237643D01*
X701184Y237596D01*
X701156Y237552D01*
X701125Y237509D01*
X701090Y237469D01*
X701053Y237432D01*
X701013Y237397D01*
X700970Y237366D01*
X700925Y237338D01*
X700879Y237313D01*
X700830Y237292D01*
X700780Y237274D01*
X700729Y237261D01*
X700677Y237251D01*
X700625Y237245D01*
X700572Y237243D01*
X700519Y237245D01*
X700467Y237251D01*
X700415Y237261D01*
X700364Y237274D01*
X700314Y237292D01*
X700265Y237313D01*
X700218Y237338D01*
X700174Y237366D01*
X700131Y237397D01*
X700091Y237432D01*
X700054Y237469D01*
X700019Y237509D01*
X699988Y237552D01*
X699960Y237597D01*
X699935Y237643D01*
X699914Y237692D01*
X699896Y237742D01*
X699883Y237793D01*
X699873Y237845D01*
X699867Y237897D01*
X699865Y237950D01*
X704647Y268176D02*
X704647Y271661D01*
X704647Y268176D02*
X704649Y268105D01*
X704655Y268033D01*
X704664Y267963D01*
X704677Y267893D01*
X704694Y267823D01*
X704715Y267755D01*
X704739Y267688D01*
X704767Y267622D01*
X704798Y267558D01*
X704833Y267495D01*
X704871Y267435D01*
X704912Y267376D01*
X704956Y267320D01*
X705003Y267266D01*
X705052Y267215D01*
X705105Y267167D01*
X705160Y267121D01*
X705217Y267079D01*
X705277Y267039D01*
X705338Y267003D01*
X705402Y266970D01*
X705467Y266941D01*
X705533Y266915D01*
X705601Y266892D01*
X705670Y266873D01*
X705740Y266858D01*
X705810Y266847D01*
X705881Y266839D01*
X705952Y266835D01*
X706024Y266835D01*
X706095Y266839D01*
X706166Y266847D01*
X706236Y266858D01*
X706306Y266873D01*
X706375Y266892D01*
X706443Y266915D01*
X706509Y266941D01*
X706574Y266970D01*
X706638Y267003D01*
X706699Y267039D01*
X706759Y267079D01*
X706816Y267121D01*
X706871Y267167D01*
X706924Y267215D01*
X706973Y267266D01*
X707020Y267320D01*
X707064Y267376D01*
X707105Y267435D01*
X707143Y267495D01*
X707178Y267558D01*
X707209Y267622D01*
X707237Y267688D01*
X707261Y267755D01*
X707282Y267823D01*
X707299Y267893D01*
X707312Y267963D01*
X707321Y268033D01*
X707327Y268105D01*
X707329Y268176D01*
X707329Y271661D01*
X711291Y271661D02*
X711291Y266835D01*
X711291Y269248D02*
X710621Y269650D01*
X710574Y269680D01*
X710530Y269714D01*
X710488Y269750D01*
X710449Y269789D01*
X710412Y269830D01*
X710379Y269875D01*
X710349Y269921D01*
X710321Y269969D01*
X710298Y270019D01*
X710278Y270071D01*
X710261Y270124D01*
X710248Y270177D01*
X710239Y270232D01*
X710234Y270287D01*
X710232Y270343D01*
X710234Y270398D01*
X710240Y270453D01*
X710250Y270507D01*
X710264Y270561D01*
X710281Y270614D01*
X710302Y270665D01*
X710327Y270715D01*
X710354Y270763D01*
X710385Y270808D01*
X710420Y270852D01*
X710457Y270893D01*
X710496Y270932D01*
X710539Y270967D01*
X710584Y271000D01*
X710630Y271030D01*
X710679Y271056D01*
X710730Y271078D01*
X710782Y271098D01*
X710835Y271113D01*
X710889Y271125D01*
X710889Y271124D02*
X710978Y271139D01*
X711068Y271149D01*
X711158Y271156D01*
X711248Y271159D01*
X711338Y271158D01*
X711428Y271153D01*
X711517Y271145D01*
X711607Y271132D01*
X711695Y271116D01*
X711783Y271096D01*
X711870Y271073D01*
X711956Y271046D01*
X712040Y271015D01*
X712124Y270980D01*
X712205Y270942D01*
X712286Y270901D01*
X712364Y270856D01*
X711291Y269248D02*
X711962Y268846D01*
X712009Y268816D01*
X712053Y268782D01*
X712095Y268746D01*
X712134Y268707D01*
X712171Y268666D01*
X712204Y268621D01*
X712234Y268575D01*
X712262Y268527D01*
X712285Y268477D01*
X712305Y268425D01*
X712322Y268372D01*
X712335Y268319D01*
X712344Y268264D01*
X712349Y268209D01*
X712351Y268153D01*
X712349Y268098D01*
X712343Y268043D01*
X712333Y267989D01*
X712319Y267935D01*
X712302Y267882D01*
X712281Y267831D01*
X712256Y267781D01*
X712229Y267733D01*
X712198Y267687D01*
X712163Y267644D01*
X712126Y267603D01*
X712087Y267564D01*
X712044Y267529D01*
X711999Y267496D01*
X711952Y267466D01*
X711904Y267440D01*
X711853Y267418D01*
X711801Y267398D01*
X711748Y267383D01*
X711694Y267371D01*
X711694Y267372D02*
X711605Y267357D01*
X711515Y267347D01*
X711425Y267340D01*
X711335Y267337D01*
X711245Y267338D01*
X711155Y267343D01*
X711066Y267351D01*
X710976Y267364D01*
X710888Y267380D01*
X710800Y267400D01*
X710713Y267423D01*
X710627Y267450D01*
X710543Y267481D01*
X710459Y267516D01*
X710378Y267554D01*
X710298Y267595D01*
X710219Y267640D01*
X715072Y270589D02*
X716412Y271661D01*
X716412Y266835D01*
X715072Y266835D02*
X717753Y266835D01*
X863600Y262890D02*
X1054100Y262890D01*
X1054100Y186690D01*
X863600Y186690D01*
X863600Y262890D01*
D16*
X627888Y444908D02*
X627888Y453798D01*
X627888Y474880D02*
X636524Y474880D01*
X627888Y474880D02*
X627888Y465990D01*
X627888Y444908D02*
X631952Y444908D01*
X636524Y444908D01*
X635254Y447956D02*
X635144Y447964D01*
X635034Y447967D01*
X634924Y447966D01*
X634815Y447961D01*
X634705Y447953D01*
X634596Y447940D01*
X634487Y447924D01*
X634379Y447903D01*
X634272Y447879D01*
X634166Y447851D01*
X634061Y447819D01*
X633957Y447783D01*
X633854Y447744D01*
X633753Y447701D01*
X633654Y447654D01*
X633556Y447604D01*
X633460Y447550D01*
X633367Y447493D01*
X633275Y447432D01*
X633185Y447369D01*
X633098Y447302D01*
X633014Y447232D01*
X632932Y447159D01*
X632852Y447083D01*
X632776Y447004D01*
X632702Y446922D01*
X632631Y446838D01*
X632564Y446752D01*
X632499Y446663D01*
X632438Y446572D01*
X632380Y446478D01*
X632326Y446383D01*
X632275Y446286D01*
X632227Y446187D01*
X632183Y446086D01*
X632143Y445984D01*
X632106Y445880D01*
X632074Y445775D01*
X632045Y445669D01*
X632020Y445562D01*
X631998Y445454D01*
X631981Y445346D01*
X631968Y445237D01*
X631958Y445127D01*
X631953Y445018D01*
X631951Y444908D01*
D11*
X844310Y217140D02*
X844310Y181640D01*
X744310Y181640D02*
X744310Y217140D01*
D15*
X850860Y226890D02*
X850862Y226953D01*
X850868Y227015D01*
X850878Y227077D01*
X850891Y227139D01*
X850909Y227199D01*
X850930Y227258D01*
X850955Y227316D01*
X850984Y227372D01*
X851016Y227426D01*
X851051Y227478D01*
X851089Y227527D01*
X851131Y227575D01*
X851175Y227619D01*
X851223Y227661D01*
X851272Y227699D01*
X851324Y227734D01*
X851378Y227766D01*
X851434Y227795D01*
X851492Y227820D01*
X851551Y227841D01*
X851611Y227859D01*
X851673Y227872D01*
X851735Y227882D01*
X851797Y227888D01*
X851860Y227890D01*
X851923Y227888D01*
X851985Y227882D01*
X852047Y227872D01*
X852109Y227859D01*
X852169Y227841D01*
X852228Y227820D01*
X852286Y227795D01*
X852342Y227766D01*
X852396Y227734D01*
X852448Y227699D01*
X852497Y227661D01*
X852545Y227619D01*
X852589Y227575D01*
X852631Y227527D01*
X852669Y227478D01*
X852704Y227426D01*
X852736Y227372D01*
X852765Y227316D01*
X852790Y227258D01*
X852811Y227199D01*
X852829Y227139D01*
X852842Y227077D01*
X852852Y227015D01*
X852858Y226953D01*
X852860Y226890D01*
X852858Y226827D01*
X852852Y226765D01*
X852842Y226703D01*
X852829Y226641D01*
X852811Y226581D01*
X852790Y226522D01*
X852765Y226464D01*
X852736Y226408D01*
X852704Y226354D01*
X852669Y226302D01*
X852631Y226253D01*
X852589Y226205D01*
X852545Y226161D01*
X852497Y226119D01*
X852448Y226081D01*
X852396Y226046D01*
X852342Y226014D01*
X852286Y225985D01*
X852228Y225960D01*
X852169Y225939D01*
X852109Y225921D01*
X852047Y225908D01*
X851985Y225898D01*
X851923Y225892D01*
X851860Y225890D01*
X851797Y225892D01*
X851735Y225898D01*
X851673Y225908D01*
X851611Y225921D01*
X851551Y225939D01*
X851492Y225960D01*
X851434Y225985D01*
X851378Y226014D01*
X851324Y226046D01*
X851272Y226081D01*
X851223Y226119D01*
X851175Y226161D01*
X851131Y226205D01*
X851089Y226253D01*
X851051Y226302D01*
X851016Y226354D01*
X850984Y226408D01*
X850955Y226464D01*
X850930Y226522D01*
X850909Y226581D01*
X850891Y226641D01*
X850878Y226703D01*
X850868Y226765D01*
X850862Y226827D01*
X850860Y226890D01*
D11*
X844310Y217140D02*
X844310Y181640D01*
X744310Y181640D02*
X744310Y217140D01*
X728901Y380800D02*
X728901Y397800D01*
X697901Y397800D02*
X697901Y380800D01*
X697901Y397800D02*
X698901Y397800D01*
X698901Y380800D02*
X697901Y380800D01*
X727901Y380800D02*
X728901Y380800D01*
X728901Y397800D02*
X727901Y397800D01*
D15*
X721901Y413990D02*
X721903Y414053D01*
X721909Y414115D01*
X721919Y414177D01*
X721932Y414239D01*
X721950Y414299D01*
X721971Y414358D01*
X721996Y414416D01*
X722025Y414472D01*
X722057Y414526D01*
X722092Y414578D01*
X722130Y414627D01*
X722172Y414675D01*
X722216Y414719D01*
X722264Y414761D01*
X722313Y414799D01*
X722365Y414834D01*
X722419Y414866D01*
X722475Y414895D01*
X722533Y414920D01*
X722592Y414941D01*
X722652Y414959D01*
X722714Y414972D01*
X722776Y414982D01*
X722838Y414988D01*
X722901Y414990D01*
X722964Y414988D01*
X723026Y414982D01*
X723088Y414972D01*
X723150Y414959D01*
X723210Y414941D01*
X723269Y414920D01*
X723327Y414895D01*
X723383Y414866D01*
X723437Y414834D01*
X723489Y414799D01*
X723538Y414761D01*
X723586Y414719D01*
X723630Y414675D01*
X723672Y414627D01*
X723710Y414578D01*
X723745Y414526D01*
X723777Y414472D01*
X723806Y414416D01*
X723831Y414358D01*
X723852Y414299D01*
X723870Y414239D01*
X723883Y414177D01*
X723893Y414115D01*
X723899Y414053D01*
X723901Y413990D01*
X723899Y413927D01*
X723893Y413865D01*
X723883Y413803D01*
X723870Y413741D01*
X723852Y413681D01*
X723831Y413622D01*
X723806Y413564D01*
X723777Y413508D01*
X723745Y413454D01*
X723710Y413402D01*
X723672Y413353D01*
X723630Y413305D01*
X723586Y413261D01*
X723538Y413219D01*
X723489Y413181D01*
X723437Y413146D01*
X723383Y413114D01*
X723327Y413085D01*
X723269Y413060D01*
X723210Y413039D01*
X723150Y413021D01*
X723088Y413008D01*
X723026Y412998D01*
X722964Y412992D01*
X722901Y412990D01*
X722838Y412992D01*
X722776Y412998D01*
X722714Y413008D01*
X722652Y413021D01*
X722592Y413039D01*
X722533Y413060D01*
X722475Y413085D01*
X722419Y413114D01*
X722365Y413146D01*
X722313Y413181D01*
X722264Y413219D01*
X722216Y413261D01*
X722172Y413305D01*
X722130Y413353D01*
X722092Y413402D01*
X722057Y413454D01*
X722025Y413508D01*
X721996Y413564D01*
X721971Y413622D01*
X721950Y413681D01*
X721932Y413741D01*
X721919Y413803D01*
X721909Y413865D01*
X721903Y413927D01*
X721901Y413990D01*
D10*
X979206Y485490D02*
X987794Y485490D01*
X987794Y460090D02*
X979206Y460090D01*
X976412Y470106D02*
X976412Y475474D01*
D17*
X993660Y456788D03*
D15*
X971394Y400160D02*
X971396Y400223D01*
X971402Y400285D01*
X971412Y400347D01*
X971425Y400409D01*
X971443Y400469D01*
X971464Y400528D01*
X971489Y400586D01*
X971518Y400642D01*
X971550Y400696D01*
X971585Y400748D01*
X971623Y400797D01*
X971665Y400845D01*
X971709Y400889D01*
X971757Y400931D01*
X971806Y400969D01*
X971858Y401004D01*
X971912Y401036D01*
X971968Y401065D01*
X972026Y401090D01*
X972085Y401111D01*
X972145Y401129D01*
X972207Y401142D01*
X972269Y401152D01*
X972331Y401158D01*
X972394Y401160D01*
X972457Y401158D01*
X972519Y401152D01*
X972581Y401142D01*
X972643Y401129D01*
X972703Y401111D01*
X972762Y401090D01*
X972820Y401065D01*
X972876Y401036D01*
X972930Y401004D01*
X972982Y400969D01*
X973031Y400931D01*
X973079Y400889D01*
X973123Y400845D01*
X973165Y400797D01*
X973203Y400748D01*
X973238Y400696D01*
X973270Y400642D01*
X973299Y400586D01*
X973324Y400528D01*
X973345Y400469D01*
X973363Y400409D01*
X973376Y400347D01*
X973386Y400285D01*
X973392Y400223D01*
X973394Y400160D01*
X973392Y400097D01*
X973386Y400035D01*
X973376Y399973D01*
X973363Y399911D01*
X973345Y399851D01*
X973324Y399792D01*
X973299Y399734D01*
X973270Y399678D01*
X973238Y399624D01*
X973203Y399572D01*
X973165Y399523D01*
X973123Y399475D01*
X973079Y399431D01*
X973031Y399389D01*
X972982Y399351D01*
X972930Y399316D01*
X972876Y399284D01*
X972820Y399255D01*
X972762Y399230D01*
X972703Y399209D01*
X972643Y399191D01*
X972581Y399178D01*
X972519Y399168D01*
X972457Y399162D01*
X972394Y399160D01*
X972331Y399162D01*
X972269Y399168D01*
X972207Y399178D01*
X972145Y399191D01*
X972085Y399209D01*
X972026Y399230D01*
X971968Y399255D01*
X971912Y399284D01*
X971858Y399316D01*
X971806Y399351D01*
X971757Y399389D01*
X971709Y399431D01*
X971665Y399475D01*
X971623Y399523D01*
X971585Y399572D01*
X971550Y399624D01*
X971518Y399678D01*
X971489Y399734D01*
X971464Y399792D01*
X971443Y399851D01*
X971425Y399911D01*
X971412Y399973D01*
X971402Y400035D01*
X971396Y400097D01*
X971394Y400160D01*
D11*
X995394Y400410D02*
X1034394Y400410D01*
X1034394Y299210D02*
X995394Y299210D01*
D18*
X557750Y159800D03*
D11*
X533250Y163300D02*
X533250Y170300D01*
X533250Y185300D02*
X533250Y192300D01*
X541250Y192300D01*
X541250Y163300D02*
X533250Y163300D01*
D18*
X585250Y195800D03*
D11*
X609750Y192300D02*
X609750Y185300D01*
X609750Y170300D02*
X609750Y163300D01*
X601750Y163300D01*
X601750Y192300D02*
X609750Y192300D01*
D15*
X483560Y227516D02*
X483562Y227579D01*
X483568Y227641D01*
X483578Y227703D01*
X483591Y227765D01*
X483609Y227825D01*
X483630Y227884D01*
X483655Y227942D01*
X483684Y227998D01*
X483716Y228052D01*
X483751Y228104D01*
X483789Y228153D01*
X483831Y228201D01*
X483875Y228245D01*
X483923Y228287D01*
X483972Y228325D01*
X484024Y228360D01*
X484078Y228392D01*
X484134Y228421D01*
X484192Y228446D01*
X484251Y228467D01*
X484311Y228485D01*
X484373Y228498D01*
X484435Y228508D01*
X484497Y228514D01*
X484560Y228516D01*
X484623Y228514D01*
X484685Y228508D01*
X484747Y228498D01*
X484809Y228485D01*
X484869Y228467D01*
X484928Y228446D01*
X484986Y228421D01*
X485042Y228392D01*
X485096Y228360D01*
X485148Y228325D01*
X485197Y228287D01*
X485245Y228245D01*
X485289Y228201D01*
X485331Y228153D01*
X485369Y228104D01*
X485404Y228052D01*
X485436Y227998D01*
X485465Y227942D01*
X485490Y227884D01*
X485511Y227825D01*
X485529Y227765D01*
X485542Y227703D01*
X485552Y227641D01*
X485558Y227579D01*
X485560Y227516D01*
X485558Y227453D01*
X485552Y227391D01*
X485542Y227329D01*
X485529Y227267D01*
X485511Y227207D01*
X485490Y227148D01*
X485465Y227090D01*
X485436Y227034D01*
X485404Y226980D01*
X485369Y226928D01*
X485331Y226879D01*
X485289Y226831D01*
X485245Y226787D01*
X485197Y226745D01*
X485148Y226707D01*
X485096Y226672D01*
X485042Y226640D01*
X484986Y226611D01*
X484928Y226586D01*
X484869Y226565D01*
X484809Y226547D01*
X484747Y226534D01*
X484685Y226524D01*
X484623Y226518D01*
X484560Y226516D01*
X484497Y226518D01*
X484435Y226524D01*
X484373Y226534D01*
X484311Y226547D01*
X484251Y226565D01*
X484192Y226586D01*
X484134Y226611D01*
X484078Y226640D01*
X484024Y226672D01*
X483972Y226707D01*
X483923Y226745D01*
X483875Y226787D01*
X483831Y226831D01*
X483789Y226879D01*
X483751Y226928D01*
X483716Y226980D01*
X483684Y227034D01*
X483655Y227090D01*
X483630Y227148D01*
X483609Y227207D01*
X483591Y227267D01*
X483578Y227329D01*
X483568Y227391D01*
X483562Y227453D01*
X483560Y227516D01*
D11*
X658160Y239516D02*
X664660Y239516D01*
X664660Y264016D01*
X664660Y395016D02*
X664660Y419516D01*
X658160Y419516D01*
X474660Y239516D02*
X409660Y239516D01*
X409660Y419516D01*
X474660Y419516D01*
X804791Y427600D02*
X804791Y410600D01*
X820809Y410600D02*
X820809Y427600D01*
X766691Y427600D02*
X766691Y410600D01*
X782709Y410600D02*
X782709Y427600D01*
M02*
