G04 EAGLE Gerber RS-274X export*
G75*
%MOMM*%
%FSLAX34Y34*%
%LPD*%
%INSoldermask Bottom*%
%IPPOS*%
%AMOC8*
5,1,8,0,0,1.08239X$1,22.5*%
G01*
G04 Define Apertures*
%ADD10C,2.303200*%
%ADD11R,0.815000X1.115000*%
%ADD12C,1.551200*%
%ADD13C,0.959600*%
G36*
X968238Y281740D02*
X966565Y281740D01*
X966565Y294081D01*
X968238Y294081D01*
X968238Y288861D01*
X974912Y288861D01*
X974912Y294081D01*
X976585Y294081D01*
X976585Y281740D01*
X974912Y281740D01*
X974912Y287459D01*
X968238Y287459D01*
X968238Y281740D01*
G37*
G36*
X980313Y281740D02*
X978465Y281740D01*
X983160Y288151D01*
X978824Y294081D01*
X980672Y294081D01*
X984106Y289237D01*
X987443Y294081D01*
X989291Y294081D01*
X985069Y288213D01*
X989650Y281740D01*
X987802Y281740D01*
X984097Y287135D01*
X980313Y281740D01*
G37*
G36*
X1009100Y281740D02*
X1001366Y281740D01*
X1001366Y283080D01*
X1004510Y283080D01*
X1004510Y292574D01*
X1001725Y290586D01*
X1001725Y292075D01*
X1004642Y294081D01*
X1006096Y294081D01*
X1006096Y283080D01*
X1009100Y283080D01*
X1009100Y281740D01*
G37*
G36*
X1017725Y281740D02*
X1009991Y281740D01*
X1009991Y283080D01*
X1013135Y283080D01*
X1013135Y292574D01*
X1010350Y290586D01*
X1010350Y292075D01*
X1013267Y294081D01*
X1014721Y294081D01*
X1014721Y283080D01*
X1017725Y283080D01*
X1017725Y281740D01*
G37*
G36*
X994874Y281740D02*
X993228Y281740D01*
X993244Y282335D01*
X993291Y282938D01*
X993369Y283549D01*
X993479Y284167D01*
X993620Y284794D01*
X993792Y285428D01*
X993996Y286070D01*
X994231Y286719D01*
X994502Y287385D01*
X994816Y288076D01*
X995172Y288792D01*
X995570Y289532D01*
X996009Y290297D01*
X996491Y291087D01*
X997015Y291901D01*
X997581Y292741D01*
X990951Y292741D01*
X990951Y294081D01*
X999105Y294081D01*
X999105Y292802D01*
X998228Y291435D01*
X997491Y290225D01*
X996893Y289171D01*
X996433Y288274D01*
X996068Y287458D01*
X995751Y286647D01*
X995483Y285842D01*
X995264Y285042D01*
X995094Y284238D01*
X994972Y283419D01*
X994899Y282587D01*
X994881Y282165D01*
X994874Y281740D01*
G37*
D10*
X1065540Y481240D03*
X483860Y481240D03*
X1065540Y151040D03*
D11*
X947300Y393700D03*
X932300Y393700D03*
X566300Y266700D03*
X551300Y266700D03*
X528200Y266700D03*
X513200Y266700D03*
X490100Y266700D03*
X475100Y266700D03*
X1061600Y241300D03*
X1046600Y241300D03*
X1023500Y241300D03*
X1008500Y241300D03*
X985400Y241300D03*
X970400Y241300D03*
X947300Y241300D03*
X932300Y241300D03*
X909200Y241300D03*
X894200Y241300D03*
X871100Y241300D03*
X856100Y241300D03*
X833000Y241300D03*
X818000Y241300D03*
X909200Y393700D03*
X894200Y393700D03*
X794900Y241300D03*
X779900Y241300D03*
X756800Y241300D03*
X741800Y241300D03*
X718700Y241300D03*
X703700Y241300D03*
X680600Y241300D03*
X665600Y241300D03*
X642500Y241300D03*
X627500Y241300D03*
X604400Y241300D03*
X589400Y241300D03*
X566300Y241300D03*
X551300Y241300D03*
X528200Y241300D03*
X513200Y241300D03*
X490100Y241300D03*
X475100Y241300D03*
X1061600Y215900D03*
X1046600Y215900D03*
X871100Y393700D03*
X856100Y393700D03*
X1023500Y215900D03*
X1008500Y215900D03*
X985400Y215900D03*
X970400Y215900D03*
X947300Y215900D03*
X932300Y215900D03*
X909200Y215900D03*
X894200Y215900D03*
X871100Y215900D03*
X856100Y215900D03*
X833000Y215900D03*
X818000Y215900D03*
X794900Y215900D03*
X779900Y215900D03*
X756800Y215900D03*
X741800Y215900D03*
X718700Y215900D03*
X703700Y215900D03*
X680600Y215900D03*
X665600Y215900D03*
X833000Y393700D03*
X818000Y393700D03*
X642500Y215900D03*
X627500Y215900D03*
X604400Y215900D03*
X589400Y215900D03*
X566300Y215900D03*
X551300Y215900D03*
X528200Y215900D03*
X513200Y215900D03*
X490100Y215900D03*
X475100Y215900D03*
X794900Y393700D03*
X779900Y393700D03*
X756800Y393700D03*
X741800Y393700D03*
X718700Y393700D03*
X703700Y393700D03*
X680600Y393700D03*
X665600Y393700D03*
X642500Y393700D03*
X627500Y393700D03*
X604400Y393700D03*
X589400Y393700D03*
X566300Y393700D03*
X551300Y393700D03*
X528200Y393700D03*
X513200Y393700D03*
X490100Y393700D03*
X475100Y393700D03*
X1061600Y368300D03*
X1046600Y368300D03*
X1023500Y368300D03*
X1008500Y368300D03*
X985400Y368300D03*
X970400Y368300D03*
X947300Y368300D03*
X932300Y368300D03*
X909200Y368300D03*
X894200Y368300D03*
X871100Y368300D03*
X856100Y368300D03*
X833000Y368300D03*
X818000Y368300D03*
X1061600Y393700D03*
X1046600Y393700D03*
X794900Y368300D03*
X779900Y368300D03*
X756800Y368300D03*
X741800Y368300D03*
X718700Y368300D03*
X703700Y368300D03*
X680600Y368300D03*
X665600Y368300D03*
X642500Y368300D03*
X627500Y368300D03*
X604400Y368300D03*
X589400Y368300D03*
X566300Y368300D03*
X551300Y368300D03*
X528200Y368300D03*
X513200Y368300D03*
X490100Y368300D03*
X475100Y368300D03*
X1061600Y342900D03*
X1046600Y342900D03*
X1023500Y342900D03*
X1008500Y342900D03*
X985400Y342900D03*
X970400Y342900D03*
X947300Y342900D03*
X932300Y342900D03*
X909200Y342900D03*
X894200Y342900D03*
X871100Y342900D03*
X856100Y342900D03*
X833000Y342900D03*
X818000Y342900D03*
X794900Y342900D03*
X779900Y342900D03*
X756800Y342900D03*
X741800Y342900D03*
X718700Y342900D03*
X703700Y342900D03*
X680600Y342900D03*
X665600Y342900D03*
X642500Y342900D03*
X627500Y342900D03*
X604400Y342900D03*
X589400Y342900D03*
X566300Y342900D03*
X551300Y342900D03*
X528200Y342900D03*
X513200Y342900D03*
X490100Y342900D03*
X475100Y342900D03*
X1061600Y317500D03*
X1046600Y317500D03*
X1023500Y317500D03*
X1008500Y317500D03*
X985400Y317500D03*
X970400Y317500D03*
X947300Y317500D03*
X932300Y317500D03*
X909200Y317500D03*
X894200Y317500D03*
X871100Y317500D03*
X856100Y317500D03*
X833000Y317500D03*
X818000Y317500D03*
X794900Y317500D03*
X779900Y317500D03*
X756800Y317500D03*
X741800Y317500D03*
X718700Y317500D03*
X703700Y317500D03*
X680600Y317500D03*
X665600Y317500D03*
X642500Y317500D03*
X627500Y317500D03*
X604400Y317500D03*
X589400Y317500D03*
X566300Y317500D03*
X551300Y317500D03*
X528200Y317500D03*
X513200Y317500D03*
X490100Y317500D03*
X475100Y317500D03*
X1061600Y292100D03*
X1046600Y292100D03*
X1023500Y292100D03*
X1008500Y292100D03*
X985400Y292100D03*
X970400Y292100D03*
X947300Y292100D03*
X932300Y292100D03*
X909200Y292100D03*
X894200Y292100D03*
X871100Y292100D03*
X856100Y292100D03*
X833000Y292100D03*
X818000Y292100D03*
X794900Y292100D03*
X779900Y292100D03*
X756800Y292100D03*
X741800Y292100D03*
X1023500Y393700D03*
X1008500Y393700D03*
X718700Y292100D03*
X703700Y292100D03*
X680600Y292100D03*
X665600Y292100D03*
X642500Y292100D03*
X627500Y292100D03*
X604400Y292100D03*
X589400Y292100D03*
X566300Y292100D03*
X551300Y292100D03*
X528200Y292100D03*
X513200Y292100D03*
X490100Y292100D03*
X475100Y292100D03*
X1061600Y266700D03*
X1046600Y266700D03*
X1023500Y266700D03*
X1008500Y266700D03*
X985400Y266700D03*
X970400Y266700D03*
X985400Y393700D03*
X970400Y393700D03*
X947300Y266700D03*
X932300Y266700D03*
X909200Y266700D03*
X894200Y266700D03*
X871100Y266700D03*
X856100Y266700D03*
X833000Y266700D03*
X818000Y266700D03*
X794900Y266700D03*
X779900Y266700D03*
X756800Y266700D03*
X741800Y266700D03*
X718700Y266700D03*
X703700Y266700D03*
X680600Y266700D03*
X665600Y266700D03*
X642500Y266700D03*
X627500Y266700D03*
X604400Y266700D03*
X589400Y266700D03*
D12*
X586900Y461900D03*
X561900Y461900D03*
D13*
X804672Y248412D03*
X810768Y309372D03*
X893064Y434340D03*
X879348Y429768D03*
X754380Y423672D03*
X667512Y405384D03*
X839724Y332232D03*
X839724Y356616D03*
X938784Y161544D03*
X1063752Y192024D03*
X670560Y170688D03*
X566928Y156972D03*
X804672Y271272D03*
X797052Y417576D03*
X824484Y437388D03*
X545592Y431292D03*
X786384Y190500D03*
X649224Y275844D03*
X521208Y283464D03*
X522732Y382524D03*
X813816Y437388D03*
X723900Y435864D03*
X938784Y464820D03*
X702564Y227076D03*
X737616Y256032D03*
X641604Y440436D03*
X617220Y202692D03*
X605028Y205740D03*
X598932Y358140D03*
X531876Y166116D03*
X984504Y161544D03*
X970788Y408432D03*
X769620Y385572D03*
X763524Y409956D03*
X880872Y409956D03*
X923544Y397764D03*
X1011936Y358140D03*
X918972Y312420D03*
X629412Y434340D03*
X1030224Y420624D03*
X548640Y382524D03*
X534924Y359664D03*
X984504Y185928D03*
X484632Y403860D03*
X512064Y403860D03*
X836676Y408432D03*
X836676Y420624D03*
X621792Y403860D03*
X996696Y408432D03*
X937260Y422148D03*
X537972Y368808D03*
X507492Y377952D03*
X589788Y358140D03*
X879348Y350520D03*
X780288Y355092D03*
X1004316Y426720D03*
X824484Y352044D03*
X559308Y352044D03*
X582168Y352044D03*
X620268Y352044D03*
X516636Y353568D03*
X649224Y352044D03*
X903732Y228600D03*
X1002792Y332232D03*
X969264Y353568D03*
X771144Y350520D03*
X891540Y353568D03*
X557784Y256032D03*
X521208Y256032D03*
X595884Y256032D03*
X627888Y306324D03*
X597408Y326136D03*
X649224Y326136D03*
X1051560Y227076D03*
X897636Y306324D03*
X926592Y306324D03*
X826008Y307848D03*
X710184Y307848D03*
X728472Y338328D03*
X487680Y304800D03*
X512064Y304800D03*
X536448Y306324D03*
X588264Y306324D03*
X632460Y281940D03*
X649224Y306324D03*
X1028700Y195072D03*
X826008Y283464D03*
X847344Y283464D03*
X888492Y301752D03*
X918972Y297180D03*
X780288Y281940D03*
X957072Y297180D03*
X675132Y281940D03*
X687324Y281940D03*
X1036320Y252984D03*
X490728Y256032D03*
X512064Y277368D03*
X542544Y277368D03*
X588264Y277368D03*
X620268Y275844D03*
X673608Y257556D03*
X694944Y263652D03*
X848868Y252984D03*
X826008Y251460D03*
X637032Y256032D03*
X917448Y256032D03*
X542544Y268224D03*
X576072Y268224D03*
X513588Y332232D03*
X576072Y342900D03*
X1045464Y252984D03*
X673608Y231648D03*
X694944Y233172D03*
X516636Y204216D03*
X531876Y188976D03*
X1005840Y251460D03*
X673608Y207264D03*
X694944Y210312D03*
X893064Y205740D03*
X874776Y199644D03*
X1018032Y202692D03*
X1062228Y281940D03*
X999744Y263652D03*
X1056132Y303276D03*
X978408Y257556D03*
X1002792Y353568D03*
X957072Y288036D03*
X940308Y333756D03*
X918972Y288036D03*
X928116Y455676D03*
X766572Y239268D03*
X774192Y201168D03*
X879348Y233172D03*
X839724Y257556D03*
X795528Y277368D03*
X885444Y289560D03*
X902208Y204216D03*
X819912Y155448D03*
X774192Y160020D03*
X758952Y205740D03*
X755904Y277368D03*
X745236Y327660D03*
X771144Y291084D03*
X729996Y245364D03*
X719328Y277368D03*
X728472Y309372D03*
X728472Y364236D03*
X867156Y278892D03*
X877824Y249936D03*
X816864Y205740D03*
X681228Y327660D03*
X688848Y300228D03*
X864108Y187452D03*
X638556Y327660D03*
X620268Y326136D03*
X847344Y164592D03*
X667512Y182880D03*
X614172Y214884D03*
X902208Y185928D03*
X615696Y188976D03*
X576072Y224028D03*
X890016Y149352D03*
X903732Y147828D03*
X492252Y353568D03*
X490728Y281940D03*
M02*
