G04 EAGLE Gerber RS-274X export*
G75*
%MOMM*%
%FSLAX34Y34*%
%LPD*%
%INSolderpaste Bottom*%
%IPPOS*%
%AMOC8*
5,1,8,0,0,1.08239X$1,22.5*%
G01*
G04 Define Apertures*
%ADD10R,0.611800X0.911800*%
D10*
X947300Y393700D03*
X932300Y393700D03*
X566300Y266700D03*
X551300Y266700D03*
X528200Y266700D03*
X513200Y266700D03*
X490100Y266700D03*
X475100Y266700D03*
X1061600Y241300D03*
X1046600Y241300D03*
X1023500Y241300D03*
X1008500Y241300D03*
X985400Y241300D03*
X970400Y241300D03*
X947300Y241300D03*
X932300Y241300D03*
X909200Y241300D03*
X894200Y241300D03*
X871100Y241300D03*
X856100Y241300D03*
X833000Y241300D03*
X818000Y241300D03*
X909200Y393700D03*
X894200Y393700D03*
X794900Y241300D03*
X779900Y241300D03*
X756800Y241300D03*
X741800Y241300D03*
X718700Y241300D03*
X703700Y241300D03*
X680600Y241300D03*
X665600Y241300D03*
X642500Y241300D03*
X627500Y241300D03*
X604400Y241300D03*
X589400Y241300D03*
X566300Y241300D03*
X551300Y241300D03*
X528200Y241300D03*
X513200Y241300D03*
X490100Y241300D03*
X475100Y241300D03*
X1061600Y215900D03*
X1046600Y215900D03*
X871100Y393700D03*
X856100Y393700D03*
X1023500Y215900D03*
X1008500Y215900D03*
X985400Y215900D03*
X970400Y215900D03*
X947300Y215900D03*
X932300Y215900D03*
X909200Y215900D03*
X894200Y215900D03*
X871100Y215900D03*
X856100Y215900D03*
X833000Y215900D03*
X818000Y215900D03*
X794900Y215900D03*
X779900Y215900D03*
X756800Y215900D03*
X741800Y215900D03*
X718700Y215900D03*
X703700Y215900D03*
X680600Y215900D03*
X665600Y215900D03*
X833000Y393700D03*
X818000Y393700D03*
X642500Y215900D03*
X627500Y215900D03*
X604400Y215900D03*
X589400Y215900D03*
X566300Y215900D03*
X551300Y215900D03*
X528200Y215900D03*
X513200Y215900D03*
X490100Y215900D03*
X475100Y215900D03*
X794900Y393700D03*
X779900Y393700D03*
X756800Y393700D03*
X741800Y393700D03*
X718700Y393700D03*
X703700Y393700D03*
X680600Y393700D03*
X665600Y393700D03*
X642500Y393700D03*
X627500Y393700D03*
X604400Y393700D03*
X589400Y393700D03*
X566300Y393700D03*
X551300Y393700D03*
X528200Y393700D03*
X513200Y393700D03*
X490100Y393700D03*
X475100Y393700D03*
X1061600Y368300D03*
X1046600Y368300D03*
X1023500Y368300D03*
X1008500Y368300D03*
X985400Y368300D03*
X970400Y368300D03*
X947300Y368300D03*
X932300Y368300D03*
X909200Y368300D03*
X894200Y368300D03*
X871100Y368300D03*
X856100Y368300D03*
X833000Y368300D03*
X818000Y368300D03*
X1061600Y393700D03*
X1046600Y393700D03*
X794900Y368300D03*
X779900Y368300D03*
X756800Y368300D03*
X741800Y368300D03*
X718700Y368300D03*
X703700Y368300D03*
X680600Y368300D03*
X665600Y368300D03*
X642500Y368300D03*
X627500Y368300D03*
X604400Y368300D03*
X589400Y368300D03*
X566300Y368300D03*
X551300Y368300D03*
X528200Y368300D03*
X513200Y368300D03*
X490100Y368300D03*
X475100Y368300D03*
X1061600Y342900D03*
X1046600Y342900D03*
X1023500Y342900D03*
X1008500Y342900D03*
X985400Y342900D03*
X970400Y342900D03*
X947300Y342900D03*
X932300Y342900D03*
X909200Y342900D03*
X894200Y342900D03*
X871100Y342900D03*
X856100Y342900D03*
X833000Y342900D03*
X818000Y342900D03*
X794900Y342900D03*
X779900Y342900D03*
X756800Y342900D03*
X741800Y342900D03*
X718700Y342900D03*
X703700Y342900D03*
X680600Y342900D03*
X665600Y342900D03*
X642500Y342900D03*
X627500Y342900D03*
X604400Y342900D03*
X589400Y342900D03*
X566300Y342900D03*
X551300Y342900D03*
X528200Y342900D03*
X513200Y342900D03*
X490100Y342900D03*
X475100Y342900D03*
X1061600Y317500D03*
X1046600Y317500D03*
X1023500Y317500D03*
X1008500Y317500D03*
X985400Y317500D03*
X970400Y317500D03*
X947300Y317500D03*
X932300Y317500D03*
X909200Y317500D03*
X894200Y317500D03*
X871100Y317500D03*
X856100Y317500D03*
X833000Y317500D03*
X818000Y317500D03*
X794900Y317500D03*
X779900Y317500D03*
X756800Y317500D03*
X741800Y317500D03*
X718700Y317500D03*
X703700Y317500D03*
X680600Y317500D03*
X665600Y317500D03*
X642500Y317500D03*
X627500Y317500D03*
X604400Y317500D03*
X589400Y317500D03*
X566300Y317500D03*
X551300Y317500D03*
X528200Y317500D03*
X513200Y317500D03*
X490100Y317500D03*
X475100Y317500D03*
X1061600Y292100D03*
X1046600Y292100D03*
X1023500Y292100D03*
X1008500Y292100D03*
X985400Y292100D03*
X970400Y292100D03*
X947300Y292100D03*
X932300Y292100D03*
X909200Y292100D03*
X894200Y292100D03*
X871100Y292100D03*
X856100Y292100D03*
X833000Y292100D03*
X818000Y292100D03*
X794900Y292100D03*
X779900Y292100D03*
X756800Y292100D03*
X741800Y292100D03*
X1023500Y393700D03*
X1008500Y393700D03*
X718700Y292100D03*
X703700Y292100D03*
X680600Y292100D03*
X665600Y292100D03*
X642500Y292100D03*
X627500Y292100D03*
X604400Y292100D03*
X589400Y292100D03*
X566300Y292100D03*
X551300Y292100D03*
X528200Y292100D03*
X513200Y292100D03*
X490100Y292100D03*
X475100Y292100D03*
X1061600Y266700D03*
X1046600Y266700D03*
X1023500Y266700D03*
X1008500Y266700D03*
X985400Y266700D03*
X970400Y266700D03*
X985400Y393700D03*
X970400Y393700D03*
X947300Y266700D03*
X932300Y266700D03*
X909200Y266700D03*
X894200Y266700D03*
X871100Y266700D03*
X856100Y266700D03*
X833000Y266700D03*
X818000Y266700D03*
X794900Y266700D03*
X779900Y266700D03*
X756800Y266700D03*
X741800Y266700D03*
X718700Y266700D03*
X703700Y266700D03*
X680600Y266700D03*
X665600Y266700D03*
X642500Y266700D03*
X627500Y266700D03*
X604400Y266700D03*
X589400Y266700D03*
M02*
