G04 EAGLE Gerber RS-274X export*
G75*
%MOMM*%
%FSLAX34Y34*%
%LPD*%
%INSoldermask Top*%
%IPPOS*%
%AMOC8*
5,1,8,0,0,1.08239X$1,22.5*%
G01*
G04 Define Apertures*
%ADD10C,2.303200*%
%ADD11R,1.203200X1.103200*%
%ADD12R,0.763200X0.832300*%
%ADD13R,1.367800X2.918500*%
%ADD14R,1.173400X1.124100*%
%ADD15R,2.918500X1.367800*%
%ADD16R,1.367800X1.668500*%
%ADD17R,1.124100X1.173400*%
%ADD18R,0.832300X0.763200*%
%ADD19R,1.903200X2.003200*%
%ADD20R,1.115000X0.815000*%
%ADD21R,0.803200X1.753200*%
%ADD22R,1.403200X2.003200*%
%ADD23C,1.551200*%
%ADD24R,1.078900X1.413500*%
%ADD25R,1.103200X1.003200*%
%ADD26R,1.177100X1.001900*%
%ADD27R,1.001900X1.177100*%
%ADD28R,0.847200X0.738300*%
%ADD29R,0.738300X0.847200*%
%ADD30R,0.440000X0.840000*%
%ADD31R,1.520000X0.940000*%
%ADD32R,0.838200X1.473200*%
%ADD33R,1.524000X0.762000*%
%ADD34C,0.362206*%
%ADD35C,0.297181*%
%ADD36R,1.403200X0.753200*%
%ADD37C,0.349006*%
%ADD38R,1.603200X1.203200*%
%ADD39R,1.103200X1.703200*%
%ADD40R,1.703200X1.103200*%
%ADD41R,1.103200X1.103200*%
%ADD42C,0.959600*%
D10*
X1065540Y481240D03*
X483860Y481240D03*
X1065540Y151040D03*
D11*
X639700Y208060D03*
X655700Y208060D03*
X655700Y167060D03*
X639700Y167060D03*
D12*
X805076Y258045D03*
X795384Y258045D03*
D13*
X814854Y374550D03*
X785346Y374550D03*
D14*
X952500Y367116D03*
X952500Y351624D03*
X952500Y309754D03*
X952500Y325246D03*
D15*
X774700Y332254D03*
X774700Y302746D03*
D14*
X876300Y337121D03*
X876300Y321629D03*
X850900Y337121D03*
X850900Y321629D03*
X1064489Y270097D03*
X1064489Y254605D03*
D16*
X715146Y477714D03*
X732654Y477714D03*
X719954Y292100D03*
X702446Y292100D03*
D17*
X718946Y355600D03*
X703454Y355600D03*
D16*
X719954Y321904D03*
X702446Y321904D03*
D14*
X952500Y465646D03*
X952500Y450154D03*
D18*
X1016506Y482240D03*
X1016506Y472548D03*
D12*
X706354Y215900D03*
X716046Y215900D03*
D17*
X855854Y420652D03*
X871346Y420652D03*
D19*
X687188Y476040D03*
X687188Y435040D03*
D20*
X1003300Y452000D03*
X1003300Y437000D03*
D21*
X791740Y450790D03*
X781740Y450790D03*
X771740Y450790D03*
X801740Y450790D03*
X811740Y450790D03*
X821740Y450790D03*
D22*
X758740Y476040D03*
X834740Y476040D03*
D21*
X874000Y450790D03*
X884000Y450790D03*
X894000Y450790D03*
X904000Y450790D03*
D22*
X861000Y476040D03*
X917000Y476040D03*
D23*
X586900Y461900D03*
X561900Y461900D03*
D24*
X859277Y363387D03*
X880623Y363387D03*
D25*
X953570Y395340D03*
X953570Y414340D03*
X932570Y404840D03*
D26*
X901700Y409594D03*
X901700Y425898D03*
X825500Y321223D03*
X825500Y337527D03*
D27*
X922552Y363387D03*
X906248Y363387D03*
X922137Y323850D03*
X905833Y323850D03*
D28*
X571500Y198125D03*
X571500Y208275D03*
D26*
X950171Y160552D03*
X950171Y144248D03*
X967530Y144248D03*
X967530Y160552D03*
D27*
X744132Y424300D03*
X727828Y424300D03*
X715748Y444500D03*
X732052Y444500D03*
D29*
X947425Y481820D03*
X957575Y481820D03*
D26*
X977900Y436348D03*
X977900Y452652D03*
D29*
X576525Y184150D03*
X566375Y184150D03*
X576525Y165780D03*
X566375Y165780D03*
D26*
X863600Y387318D03*
X863600Y403622D03*
D11*
X503300Y167060D03*
X487300Y167060D03*
X487300Y208060D03*
X503300Y208060D03*
D30*
X703700Y257050D03*
X708700Y257050D03*
X713700Y257050D03*
X718700Y257050D03*
X718700Y237050D03*
X713700Y237050D03*
X708700Y237050D03*
X703700Y237050D03*
D31*
X711200Y247150D03*
D32*
X1041400Y173990D03*
X1041400Y275590D03*
X1028700Y275590D03*
X1016000Y275590D03*
X1003300Y275590D03*
X990600Y275590D03*
X977900Y275590D03*
X965200Y275590D03*
X952500Y275590D03*
X939800Y275590D03*
X927100Y275590D03*
X914400Y275590D03*
X901700Y275590D03*
X889000Y275590D03*
X876300Y275590D03*
X876300Y173990D03*
X889000Y173990D03*
X901700Y173990D03*
X914400Y173990D03*
X927100Y173990D03*
X939800Y173990D03*
X952500Y173990D03*
X965200Y173990D03*
X977900Y173990D03*
X990600Y173990D03*
X1003300Y173990D03*
X1016000Y173990D03*
X1028700Y173990D03*
D33*
X645160Y450242D03*
X645160Y469546D03*
X624840Y459894D03*
D34*
X836455Y232645D02*
X836455Y221135D01*
X836455Y232645D02*
X841065Y232645D01*
X841065Y221135D01*
X836455Y221135D01*
X836455Y224576D02*
X841065Y224576D01*
X841065Y228017D02*
X836455Y228017D01*
X836455Y231458D02*
X841065Y231458D01*
X823755Y232645D02*
X823755Y221135D01*
X823755Y232645D02*
X828365Y232645D01*
X828365Y221135D01*
X823755Y221135D01*
X823755Y224576D02*
X828365Y224576D01*
X828365Y228017D02*
X823755Y228017D01*
X823755Y231458D02*
X828365Y231458D01*
X811055Y232645D02*
X811055Y221135D01*
X811055Y232645D02*
X815665Y232645D01*
X815665Y221135D01*
X811055Y221135D01*
X811055Y224576D02*
X815665Y224576D01*
X815665Y228017D02*
X811055Y228017D01*
X811055Y231458D02*
X815665Y231458D01*
X798355Y232645D02*
X798355Y221135D01*
X798355Y232645D02*
X802965Y232645D01*
X802965Y221135D01*
X798355Y221135D01*
X798355Y224576D02*
X802965Y224576D01*
X802965Y228017D02*
X798355Y228017D01*
X798355Y231458D02*
X802965Y231458D01*
X785655Y232645D02*
X785655Y221135D01*
X785655Y232645D02*
X790265Y232645D01*
X790265Y221135D01*
X785655Y221135D01*
X785655Y224576D02*
X790265Y224576D01*
X790265Y228017D02*
X785655Y228017D01*
X785655Y231458D02*
X790265Y231458D01*
X772955Y232645D02*
X772955Y221135D01*
X772955Y232645D02*
X777565Y232645D01*
X777565Y221135D01*
X772955Y221135D01*
X772955Y224576D02*
X777565Y224576D01*
X777565Y228017D02*
X772955Y228017D01*
X772955Y231458D02*
X777565Y231458D01*
X760255Y232645D02*
X760255Y221135D01*
X760255Y232645D02*
X764865Y232645D01*
X764865Y221135D01*
X760255Y221135D01*
X760255Y224576D02*
X764865Y224576D01*
X764865Y228017D02*
X760255Y228017D01*
X760255Y231458D02*
X764865Y231458D01*
X747555Y232645D02*
X747555Y221135D01*
X747555Y232645D02*
X752165Y232645D01*
X752165Y221135D01*
X747555Y221135D01*
X747555Y224576D02*
X752165Y224576D01*
X752165Y228017D02*
X747555Y228017D01*
X747555Y231458D02*
X752165Y231458D01*
X747555Y177645D02*
X747555Y166135D01*
X747555Y177645D02*
X752165Y177645D01*
X752165Y166135D01*
X747555Y166135D01*
X747555Y169576D02*
X752165Y169576D01*
X752165Y173017D02*
X747555Y173017D01*
X747555Y176458D02*
X752165Y176458D01*
X760255Y177645D02*
X760255Y166135D01*
X760255Y177645D02*
X764865Y177645D01*
X764865Y166135D01*
X760255Y166135D01*
X760255Y169576D02*
X764865Y169576D01*
X764865Y173017D02*
X760255Y173017D01*
X760255Y176458D02*
X764865Y176458D01*
X772955Y177645D02*
X772955Y166135D01*
X772955Y177645D02*
X777565Y177645D01*
X777565Y166135D01*
X772955Y166135D01*
X772955Y169576D02*
X777565Y169576D01*
X777565Y173017D02*
X772955Y173017D01*
X772955Y176458D02*
X777565Y176458D01*
X785655Y177645D02*
X785655Y166135D01*
X785655Y177645D02*
X790265Y177645D01*
X790265Y166135D01*
X785655Y166135D01*
X785655Y169576D02*
X790265Y169576D01*
X790265Y173017D02*
X785655Y173017D01*
X785655Y176458D02*
X790265Y176458D01*
X798355Y177645D02*
X798355Y166135D01*
X798355Y177645D02*
X802965Y177645D01*
X802965Y166135D01*
X798355Y166135D01*
X798355Y169576D02*
X802965Y169576D01*
X802965Y173017D02*
X798355Y173017D01*
X798355Y176458D02*
X802965Y176458D01*
X811055Y177645D02*
X811055Y166135D01*
X811055Y177645D02*
X815665Y177645D01*
X815665Y166135D01*
X811055Y166135D01*
X811055Y169576D02*
X815665Y169576D01*
X815665Y173017D02*
X811055Y173017D01*
X811055Y176458D02*
X815665Y176458D01*
X823755Y177645D02*
X823755Y166135D01*
X823755Y177645D02*
X828365Y177645D01*
X828365Y166135D01*
X823755Y166135D01*
X823755Y169576D02*
X828365Y169576D01*
X828365Y173017D02*
X823755Y173017D01*
X823755Y176458D02*
X828365Y176458D01*
X836455Y177645D02*
X836455Y166135D01*
X836455Y177645D02*
X841065Y177645D01*
X841065Y166135D01*
X836455Y166135D01*
X836455Y169576D02*
X841065Y169576D01*
X841065Y173017D02*
X836455Y173017D01*
X836455Y176458D02*
X841065Y176458D01*
D35*
X725431Y407430D02*
X720371Y407430D01*
X725431Y407430D02*
X725431Y394870D01*
X720371Y394870D01*
X720371Y407430D01*
X720371Y397693D02*
X725431Y397693D01*
X725431Y400516D02*
X720371Y400516D01*
X720371Y403339D02*
X725431Y403339D01*
X725431Y406162D02*
X720371Y406162D01*
X715931Y407430D02*
X710871Y407430D01*
X715931Y407430D02*
X715931Y394870D01*
X710871Y394870D01*
X710871Y407430D01*
X710871Y397693D02*
X715931Y397693D01*
X715931Y400516D02*
X710871Y400516D01*
X710871Y403339D02*
X715931Y403339D01*
X715931Y406162D02*
X710871Y406162D01*
X706431Y407430D02*
X701371Y407430D01*
X706431Y407430D02*
X706431Y394870D01*
X701371Y394870D01*
X701371Y407430D01*
X701371Y397693D02*
X706431Y397693D01*
X706431Y400516D02*
X701371Y400516D01*
X701371Y403339D02*
X706431Y403339D01*
X706431Y406162D02*
X701371Y406162D01*
X701371Y383730D02*
X706431Y383730D01*
X706431Y371170D01*
X701371Y371170D01*
X701371Y383730D01*
X701371Y373993D02*
X706431Y373993D01*
X706431Y376816D02*
X701371Y376816D01*
X701371Y379639D02*
X706431Y379639D01*
X706431Y382462D02*
X701371Y382462D01*
X720371Y383730D02*
X725431Y383730D01*
X725431Y371170D01*
X720371Y371170D01*
X720371Y383730D01*
X720371Y373993D02*
X725431Y373993D01*
X725431Y376816D02*
X720371Y376816D01*
X720371Y379639D02*
X725431Y379639D01*
X725431Y382462D02*
X720371Y382462D01*
D36*
X996501Y463290D03*
X996501Y472790D03*
X996501Y482290D03*
X970499Y482290D03*
X970499Y463290D03*
D37*
X981023Y392039D02*
X995365Y392039D01*
X981023Y392039D02*
X981023Y396481D01*
X995365Y396481D01*
X995365Y392039D01*
X995365Y395354D02*
X981023Y395354D01*
X981023Y379339D02*
X995365Y379339D01*
X981023Y379339D02*
X981023Y383781D01*
X995365Y383781D01*
X995365Y379339D01*
X995365Y382654D02*
X981023Y382654D01*
X981023Y366639D02*
X995365Y366639D01*
X981023Y366639D02*
X981023Y371081D01*
X995365Y371081D01*
X995365Y366639D01*
X995365Y369954D02*
X981023Y369954D01*
X981023Y353939D02*
X995365Y353939D01*
X981023Y353939D02*
X981023Y358381D01*
X995365Y358381D01*
X995365Y353939D01*
X995365Y357254D02*
X981023Y357254D01*
X981023Y341239D02*
X995365Y341239D01*
X981023Y341239D02*
X981023Y345681D01*
X995365Y345681D01*
X995365Y341239D01*
X995365Y344554D02*
X981023Y344554D01*
X981023Y328539D02*
X995365Y328539D01*
X981023Y328539D02*
X981023Y332981D01*
X995365Y332981D01*
X995365Y328539D01*
X995365Y331854D02*
X981023Y331854D01*
X981023Y315839D02*
X995365Y315839D01*
X981023Y315839D02*
X981023Y320281D01*
X995365Y320281D01*
X995365Y315839D01*
X995365Y319154D02*
X981023Y319154D01*
X981023Y303139D02*
X995365Y303139D01*
X981023Y303139D02*
X981023Y307581D01*
X995365Y307581D01*
X995365Y303139D01*
X995365Y306454D02*
X981023Y306454D01*
X1034423Y303139D02*
X1048765Y303139D01*
X1034423Y303139D02*
X1034423Y307581D01*
X1048765Y307581D01*
X1048765Y303139D01*
X1048765Y306454D02*
X1034423Y306454D01*
X1034423Y315839D02*
X1048765Y315839D01*
X1034423Y315839D02*
X1034423Y320281D01*
X1048765Y320281D01*
X1048765Y315839D01*
X1048765Y319154D02*
X1034423Y319154D01*
X1034423Y328539D02*
X1048765Y328539D01*
X1034423Y328539D02*
X1034423Y332981D01*
X1048765Y332981D01*
X1048765Y328539D01*
X1048765Y331854D02*
X1034423Y331854D01*
X1034423Y341239D02*
X1048765Y341239D01*
X1034423Y341239D02*
X1034423Y345681D01*
X1048765Y345681D01*
X1048765Y341239D01*
X1048765Y344554D02*
X1034423Y344554D01*
X1034423Y353939D02*
X1048765Y353939D01*
X1034423Y353939D02*
X1034423Y358381D01*
X1048765Y358381D01*
X1048765Y353939D01*
X1048765Y357254D02*
X1034423Y357254D01*
X1034423Y366639D02*
X1048765Y366639D01*
X1034423Y366639D02*
X1034423Y371081D01*
X1048765Y371081D01*
X1048765Y366639D01*
X1048765Y369954D02*
X1034423Y369954D01*
X1034423Y379339D02*
X1048765Y379339D01*
X1034423Y379339D02*
X1034423Y383781D01*
X1048765Y383781D01*
X1048765Y379339D01*
X1048765Y382654D02*
X1034423Y382654D01*
X1034423Y392039D02*
X1048765Y392039D01*
X1034423Y392039D02*
X1034423Y396481D01*
X1048765Y396481D01*
X1048765Y392039D01*
X1048765Y395354D02*
X1034423Y395354D01*
D38*
X528750Y177800D03*
X550750Y187300D03*
X550750Y168300D03*
X614250Y177800D03*
X592250Y168300D03*
X592250Y187300D03*
D39*
X484560Y242016D03*
X497260Y242016D03*
X509960Y242016D03*
X522660Y242016D03*
X535360Y242016D03*
X548060Y242016D03*
X560760Y242016D03*
X573460Y242016D03*
X586160Y242016D03*
X598860Y242016D03*
X611560Y242016D03*
X624260Y242016D03*
X636960Y242016D03*
X649660Y242016D03*
D40*
X662160Y272366D03*
X662160Y285066D03*
X662160Y297766D03*
X662160Y310466D03*
X662160Y323166D03*
X662160Y335866D03*
X662160Y348566D03*
X662160Y361266D03*
X662160Y373966D03*
X662160Y386666D03*
D39*
X649660Y417016D03*
X636960Y417016D03*
X624260Y417016D03*
X611560Y417016D03*
X598860Y417016D03*
X586160Y417016D03*
X573460Y417016D03*
X560760Y417016D03*
X548060Y417016D03*
X535360Y417016D03*
X522660Y417016D03*
X509960Y417016D03*
X497260Y417016D03*
X484560Y417016D03*
D41*
X547760Y300516D03*
X547760Y314516D03*
X547760Y328516D03*
X561760Y300516D03*
X561760Y314516D03*
X561760Y328516D03*
X575760Y300516D03*
X575760Y314516D03*
X575760Y328516D03*
D26*
X812800Y410948D03*
X812800Y427252D03*
X774700Y410948D03*
X774700Y427252D03*
D42*
X804672Y248412D03*
X810768Y309372D03*
X893064Y434340D03*
X879348Y429768D03*
X754380Y423672D03*
X667512Y405384D03*
X839724Y332232D03*
X839724Y356616D03*
X938784Y161544D03*
X1063752Y192024D03*
X670560Y170688D03*
X566928Y156972D03*
X804672Y271272D03*
X797052Y417576D03*
X824484Y437388D03*
X545592Y431292D03*
X786384Y190500D03*
X649224Y275844D03*
X521208Y283464D03*
X522732Y382524D03*
X813816Y437388D03*
X723900Y435864D03*
X938784Y464820D03*
X702564Y227076D03*
X737616Y256032D03*
X641604Y440436D03*
X617220Y202692D03*
X605028Y205740D03*
X598932Y358140D03*
X531876Y166116D03*
X984504Y161544D03*
X970788Y408432D03*
X769620Y385572D03*
X763524Y409956D03*
X880872Y409956D03*
X923544Y397764D03*
X1011936Y358140D03*
X918972Y312420D03*
X629412Y434340D03*
X1030224Y420624D03*
X548640Y382524D03*
X534924Y359664D03*
X984504Y185928D03*
X484632Y403860D03*
X512064Y403860D03*
X836676Y408432D03*
X836676Y420624D03*
X621792Y403860D03*
X996696Y408432D03*
X937260Y422148D03*
X537972Y368808D03*
X507492Y377952D03*
X589788Y358140D03*
X879348Y350520D03*
X780288Y355092D03*
X1004316Y426720D03*
X824484Y352044D03*
X559308Y352044D03*
X582168Y352044D03*
X620268Y352044D03*
X516636Y353568D03*
X649224Y352044D03*
X903732Y228600D03*
X1002792Y332232D03*
X969264Y353568D03*
X771144Y350520D03*
X891540Y353568D03*
X557784Y256032D03*
X521208Y256032D03*
X595884Y256032D03*
X627888Y306324D03*
X597408Y326136D03*
X649224Y326136D03*
X1051560Y227076D03*
X897636Y306324D03*
X926592Y306324D03*
X826008Y307848D03*
X710184Y307848D03*
X728472Y338328D03*
X487680Y304800D03*
X512064Y304800D03*
X536448Y306324D03*
X588264Y306324D03*
X632460Y281940D03*
X649224Y306324D03*
X1028700Y195072D03*
X826008Y283464D03*
X847344Y283464D03*
X888492Y301752D03*
X918972Y297180D03*
X780288Y281940D03*
X957072Y297180D03*
X675132Y281940D03*
X687324Y281940D03*
X1036320Y252984D03*
X490728Y256032D03*
X512064Y277368D03*
X542544Y277368D03*
X588264Y277368D03*
X620268Y275844D03*
X673608Y257556D03*
X694944Y263652D03*
X848868Y252984D03*
X826008Y251460D03*
X637032Y256032D03*
X917448Y256032D03*
X542544Y268224D03*
X576072Y268224D03*
X513588Y332232D03*
X576072Y342900D03*
X1045464Y252984D03*
X673608Y231648D03*
X694944Y233172D03*
X516636Y204216D03*
X531876Y188976D03*
X1005840Y251460D03*
X673608Y207264D03*
X694944Y210312D03*
X893064Y205740D03*
X874776Y199644D03*
X1018032Y202692D03*
X1062228Y281940D03*
X999744Y263652D03*
X1056132Y303276D03*
X978408Y257556D03*
X1002792Y353568D03*
X957072Y288036D03*
X940308Y333756D03*
X918972Y288036D03*
X928116Y455676D03*
X766572Y239268D03*
X774192Y201168D03*
X879348Y233172D03*
X839724Y257556D03*
X795528Y277368D03*
X885444Y289560D03*
X902208Y204216D03*
X819912Y155448D03*
X774192Y160020D03*
X758952Y205740D03*
X755904Y277368D03*
X745236Y327660D03*
X771144Y291084D03*
X729996Y245364D03*
X719328Y277368D03*
X728472Y309372D03*
X728472Y364236D03*
X867156Y278892D03*
X877824Y249936D03*
X816864Y205740D03*
X681228Y327660D03*
X688848Y300228D03*
X864108Y187452D03*
X638556Y327660D03*
X620268Y326136D03*
X847344Y164592D03*
X667512Y182880D03*
X614172Y214884D03*
X902208Y185928D03*
X615696Y188976D03*
X576072Y224028D03*
X890016Y149352D03*
X903732Y147828D03*
X492252Y353568D03*
X490728Y281940D03*
M02*
